<?xml version="1.0" encoding="UTF-8"?>
<svg version="1.1" xmlns="http://www.w3.org/2000/svg" width="1024" height="768">
<path d="M0 0 C337.92 0 675.84 0 1024 0 C1024 253.44 1024 506.88 1024 768 C686.08 768 348.16 768 0 768 C0 514.56 0 261.12 0 0 Z " fill="#FEFEFE" transform="translate(0,0)"/>
<path d="M0 0 C4.99883894 2.07498975 8.46750784 6.02423818 12.34375 9.6875 C17.07036384 13.8024344 20.36401165 14.43187905 26.52734375 14.33203125 C30.07460076 13.85570132 32.25223656 12.21161447 35 10 C36.485 9.505 36.485 9.505 38 9 C38.21615967 9.54414551 38.43231934 10.08829102 38.6550293 10.64892578 C39.65442821 13.14569768 40.67078403 15.63523234 41.6875 18.125 C42.02716797 18.9809375 42.36683594 19.836875 42.71679688 20.71875 C44.84972019 25.90155431 46.90567049 30.11038697 51 34 C53.22107715 34.51198492 53.22107715 34.51198492 55.3125 33.875 C56.529375 33.58625 57.74625 33.2975 59 33 C59.12117188 33.99 59.24234375 34.98 59.3671875 36 C59.53522607 37.33348919 59.70458548 38.66681236 59.875 40 C59.96378418 40.69480469 60.05256836 41.38960937 60.14404297 42.10546875 C60.59566236 45.48983619 61.1062678 48.74005695 62.125 52 C65.29375315 63.78060647 63.08859231 76.52480106 57.31640625 87.078125 C54.46716018 91.66142835 51.37957392 95.7755326 48 100 C54.27 100 60.54 100 67 100 C67.515625 96.9475 68.03125 93.895 68.5625 90.75 C70.68236568 78.38674312 73.09351162 66.08274139 75.53735352 53.78027344 C77.07219759 46.01566245 78.4867286 38.27054107 79.58349609 30.42822266 C80 28 80 28 81 26 C84.3 26.33 87.6 26.66 91 27 C91.25773441 32.97678972 90.28646809 38.33405854 89.0234375 44.1640625 C88.81761047 45.14154449 88.61178345 46.11902649 88.39971924 47.12612915 C87.73125051 50.29382132 87.0531291 53.45936329 86.375 56.625 C85.91251535 58.80941518 85.45076722 60.99398642 84.98974609 63.17871094 C84.07891467 67.49186845 83.16492797 71.80433551 82.24804688 76.11621094 C80.68178891 83.48897566 79.14787207 90.8681587 77.625 98.25 C77.39264648 99.37317627 77.16029297 100.49635254 76.92089844 101.65356445 C74.90264379 111.42682304 72.93740248 121.21041922 71 131 C72.32 131.99 73.64 132.98 75 134 C77.57914621 131.52401964 79.89962444 128.92763003 82.1875 126.1875 C87.9824549 119.58565264 94.18397906 115.27165512 102.125 111.5625 C108.29435027 108.64874354 111.91012864 105.38548073 116 100 C118.30949967 97.47948006 120.64600702 94.98590161 122.984375 92.4921875 C125.15191921 89.81216191 126.56839175 87.12598004 128 84 C128.66 84 129.32 84 130 84 C131.03435556 85.64556566 132.02763513 87.3170608 133 89 C134.98727894 92.01518183 136.20668058 93.67106268 139.5625 95.0625 C146.19024481 94.94199555 152.35091389 92.09627394 158 88.75 C161 87 161 87 164 87 C164.10957031 87.66386719 164.21914063 88.32773437 164.33203125 89.01171875 C165.48052793 95.99777442 165.48052793 95.99777442 169 102 C173.42386716 104.5674229 177.74888335 105.83530225 182.75 106.6875 C183.48154297 106.81415039 184.21308594 106.94080078 184.96679688 107.07128906 C196.1798446 108.83851111 207.78103251 108.66206926 219 107 C218.68872484 108.58357459 218.37592711 110.16684993 218.0625 111.75 C217.80146484 113.07257813 217.80146484 113.07257813 217.53515625 114.421875 C217.22954456 115.8941649 216.89597967 117.36269988 216.48144531 118.80810547 C215.4374128 123.56131231 215.72889437 128.52909935 215.6875 133.375 C215.64399414 135.06109375 215.64399414 135.06109375 215.59960938 136.78125 C215.55048889 143.17447037 215.59038114 147.20795402 220 152 C221.72924012 153.70721213 221.72924012 153.70721213 223.625 155 C224.66914062 155.74830078 224.66914062 155.74830078 225.734375 156.51171875 C228.06698573 158.04400269 230.45144206 159.42924287 232.875 160.8125 C238.59654985 164.17194212 243.19696845 168.45881596 248 173 C257.4707236 182.07111263 257.4707236 182.07111263 269 188 C269 188.66 269 189.32 269 190 C267.20964834 191.27114968 265.36507132 192.46625519 263.5 193.625 C256.40602648 198.24316842 251.08679396 203.53795023 245.625 209.9375 C240.5625439 215.82246041 234.68708989 220.93408695 228.5625 225.6875 C224.410618 229.43432034 222.84616458 232.91061584 222.5625 238.4375 C222.94044383 250.38772395 227.62883452 263.40385162 233 274 C232.44127197 273.98952637 231.88254395 273.97905273 231.30688477 273.96826172 C228.7254707 273.92616621 226.14412924 273.90050657 223.5625 273.875 C222.68400391 273.85824219 221.80550781 273.84148437 220.90039062 273.82421875 C216.70721877 273.79327283 212.90349523 273.90929915 208.83984375 274.984375 C204.70894496 276.01789928 200.67632685 276.20784012 196.4375 276.2734375 C195.75594345 276.28458588 195.0743869 276.29573425 194.37217712 276.30722046 C191.53358249 276.34606093 188.69530173 276.3730994 185.85644531 276.38085938 C175.16869087 276.42986329 165.93641894 277.07803719 158 285 C156.14201724 287.9961769 156.14201724 287.9961769 154.6875 291.25 C154.17574219 292.32765625 153.66398437 293.4053125 153.13671875 294.515625 C152.76160156 295.33546875 152.38648438 296.1553125 152 297 C150.33333333 295.33333333 148.66666667 293.66666667 147 292 C146.071875 291.113125 145.14375 290.22625 144.1875 289.3125 C142 287 142 287 142 285 C141.31035156 285.33773438 140.62070312 285.67546875 139.91015625 286.0234375 C133.95088115 288.85184516 128.49207797 290.82929742 122 292 C122.48339844 293.45212891 122.48339844 293.45212891 122.9765625 294.93359375 C126.88902919 308.72417324 124.17427595 324.92173959 117.3125 337.25 C108.50507301 350.65930759 96.90517278 359.81343725 81.14208984 363.60888672 C65.76712036 366.41612414 49.98647883 363.74016684 37 355 C24.61449095 345.35673709 15.06296962 332.93569287 13 317 C12.8732823 314.63605938 12.89917569 312.36937118 13 310 C12.05511719 310.32226562 11.11023438 310.64453125 10.13671875 310.9765625 C-2.90925518 314.67963975 -18.14003977 312.77532803 -29.90625 306.43359375 C-36.2834596 302.7165404 -36.2834596 302.7165404 -38 301 C-44.15738175 300.63496506 -49.24261436 301.56180378 -55.125 303.3125 C-56.00881348 303.5688623 -56.89262695 303.82522461 -57.80322266 304.08935547 C-67.3829218 306.96081933 -76.74068022 310.47192474 -86.07861328 314.0402832 C-113.91843517 324.56956656 -142.30519298 327.33046883 -170.0859375 314.8828125 C-179.69680959 310.36686056 -187.35378057 304.30404782 -195 297 C-195.61488281 296.45988281 -196.22976563 295.91976563 -196.86328125 295.36328125 C-211.63837056 281.87888939 -220.32461612 260.16891688 -221.453125 240.5625 C-221.96416679 225.66247033 -220.15131545 212.5863007 -215.7265625 198.39111328 C-214.73240271 195.11933877 -213.94615797 191.83430177 -213.1875 188.5 C-212.97480469 187.5821875 -212.76210938 186.664375 -212.54296875 185.71875 C-211.50936117 180.54327605 -210.92855954 175.48023443 -210.76098633 170.20458984 C-209.78341906 142.54041054 -198.29836604 118.53335376 -179 99 C-178.36964844 98.29746094 -177.73929687 97.59492188 -177.08984375 96.87109375 C-163.7530773 82.36186432 -144.85402715 73.55024566 -126 69 C-124.87722656 68.7009375 -123.75445312 68.401875 -122.59765625 68.09375 C-111.12994477 65.35670505 -99.72164007 65.70210872 -88 66 C-88.88703558 56.51789549 -91.31230781 49.26837835 -96 41 C-96.33 40.34 -96.66 39.68 -97 39 C-95.84242188 38.96261719 -94.68484375 38.92523438 -93.4921875 38.88671875 C-91.95309439 38.82102575 -90.4140333 38.75457958 -88.875 38.6875 C-88.11445313 38.66494141 -87.35390625 38.64238281 -86.5703125 38.61914062 C-81.71725552 38.38903879 -78.1948276 37.68392465 -74 35 C-71.530685 31.29602751 -71.64607407 28.28826533 -72 24 C-72.32072304 22.6635773 -72.65245131 21.32969876 -73 20 C-71.06870239 20.2311853 -71.06870239 20.2311853 -69.09838867 20.46704102 C-61.46720982 21.31151632 -53.81550195 21.5710559 -46.14575195 21.83227539 C-44.26534811 21.90211202 -42.3853717 21.98468313 -40.50610352 22.08032227 C-27.69312231 22.72608125 -16.31296067 22.71413405 -5.83569336 14.25195312 C-1.78704484 10.25753592 -0.72414775 5.50601999 0 0 Z " fill="#6C379C" transform="translate(513,199)"/>
<path d="M0 0 C-0.85019035 4.3548639 -2.9808652 6.76521271 -6 10 C-6.99 10.33 -7.98 10.66 -9 11 C-9 11.99 -9 12.98 -9 14 C-8.29875 14.20109375 -7.5975 14.4021875 -6.875 14.609375 C-3.03494199 16.46679436 -0.79170451 19.08276163 2 22.25 C2.50789062 22.81074219 3.01578125 23.37148438 3.5390625 23.94921875 C12.0660767 33.41639093 12.0660767 33.41639093 14.4375 37.4375 C15.83227303 39.95130012 15.83227303 39.95130012 17.515625 41.515625 C20.89903117 44.89903117 22.41854284 47.1199757 22.5 52 C22.23285061 56.22350463 21.29665322 59.96596777 20 64 C19.67182163 65.62190635 19.3604983 67.2472782 19.0625 68.875 C18.12829748 73.74780035 16.68825752 78.34040924 15 83 C14.34 83 13.68 83 13 83 C12.67 84.32 12.34 85.64 12 87 C12.94359375 86.94779297 12.94359375 86.94779297 13.90625 86.89453125 C20.05928781 86.69993216 24.37509578 87.50004257 30 90 C30 90.66 30 91.32 30 92 C30.90766113 92.01981934 31.81532227 92.03963867 32.75048828 92.06005859 C36.13893117 92.13845667 39.52695502 92.2251592 42.91503906 92.31738281 C44.37752189 92.35551206 45.84009338 92.39039214 47.30273438 92.421875 C49.41308132 92.46787711 51.52282634 92.52580941 53.6328125 92.5859375 C54.90012207 92.6173584 56.16743164 92.6487793 57.47314453 92.68115234 C62.80347563 93.16304438 66.78807685 94.36304727 70.6875 98.0625 C72.94177554 100.18203724 73.97787332 100.99262444 77 102 C76.99476318 102.61407715 76.98952637 103.2281543 76.98413086 103.86083984 C76.96307871 106.69888241 76.95025137 109.53690846 76.9375 112.375 C76.92912109 113.34050781 76.92074219 114.30601562 76.91210938 115.30078125 C76.89097695 121.59824289 77.23892802 127.74839863 78 134 C77.29617188 134.13535156 76.59234375 134.27070313 75.8671875 134.41015625 C60.82751073 137.68904139 47.583428 144.70861275 38.625 157.5 C30.19099542 171.19930123 27.8684357 185.89986253 30.65234375 201.703125 C33.02143895 210.12205557 36.96466038 218.97176485 43.21875 225.21484375 C45 227 45 227 45 229 C45.66 229 46.32 229 47 229 C48.38232443 230.62626404 49.71937515 232.2925002 51 234 C50.195625 234.12375 49.39125 234.2475 48.5625 234.375 C32.54477518 237.18512716 17.37231006 242.99660817 2.16503906 248.62475586 C-25.32182822 258.74000619 -52.73092708 261.1397111 -80.0859375 248.8828125 C-89.69680959 244.36686056 -97.35378057 238.30404782 -105 231 C-105.61488281 230.45988281 -106.22976563 229.91976562 -106.86328125 229.36328125 C-121.63837056 215.87888939 -130.32461612 194.16891688 -131.453125 174.5625 C-131.96416679 159.66247033 -130.15131545 146.5863007 -125.7265625 132.39111328 C-124.73240271 129.11933877 -123.94615797 125.83430177 -123.1875 122.5 C-122.97480469 121.5821875 -122.76210938 120.664375 -122.54296875 119.71875 C-121.50936117 114.54327605 -120.92855954 109.48023443 -120.76098633 104.20458984 C-119.78341906 76.54041054 -108.29836604 52.53335376 -89 33 C-88.36964844 32.29746094 -87.73929687 31.59492188 -87.08984375 30.87109375 C-73.75779236 16.36699389 -54.85180052 7.539564 -36 3 C-34.85402344 2.7009375 -33.70804687 2.401875 -32.52734375 2.09375 C-21.68876991 -0.45372764 -11.07548535 -0.31205312 0 0 Z " fill="#A068C7" transform="translate(423,265)"/>
<path d="M0 0 C4.99883894 2.07498975 8.46750784 6.02423818 12.34375 9.6875 C17.07036384 13.8024344 20.36401165 14.43187905 26.52734375 14.33203125 C30.07460076 13.85570132 32.25223656 12.21161447 35 10 C35.99 9.67 36.98 9.34 38 9 C38.21615967 9.54414551 38.43231934 10.08829102 38.6550293 10.64892578 C39.65442821 13.14569768 40.67078403 15.63523234 41.6875 18.125 C42.02716797 18.9809375 42.36683594 19.836875 42.71679688 20.71875 C44.84972019 25.90155431 46.90567049 30.11038697 51 34 C53.22107715 34.51198492 53.22107715 34.51198492 55.3125 33.875 C56.529375 33.58625 57.74625 33.2975 59 33 C59.12117187 33.99 59.24234375 34.98 59.3671875 36 C59.53522607 37.33348919 59.70458548 38.66681236 59.875 40 C59.96378418 40.69480469 60.05256836 41.38960937 60.14404297 42.10546875 C60.59566236 45.48983619 61.1062678 48.74005695 62.125 52 C65.29375315 63.78060647 63.08859231 76.52480106 57.31640625 87.078125 C54.46716018 91.66142835 51.37957392 95.7755326 48 100 C54.27 100 60.54 100 67 100 C67.515625 96.9475 68.03125 93.895 68.5625 90.75 C70.68236568 78.38674312 73.09351162 66.08274139 75.53735352 53.78027344 C77.07219759 46.01566245 78.4867286 38.27054107 79.58349609 30.42822266 C80 28 80 28 81 26 C84.3 26.33 87.6 26.66 91 27 C91.25773441 32.97678972 90.28646809 38.33405854 89.0234375 44.1640625 C88.81761047 45.14154449 88.61178345 46.11902649 88.39971924 47.12612915 C87.73125051 50.29382132 87.0531291 53.45936329 86.375 56.625 C85.91251535 58.80941518 85.45076722 60.99398642 84.98974609 63.17871094 C84.07891467 67.49186845 83.16492797 71.80433551 82.24804688 76.11621094 C80.68178891 83.48897566 79.14787207 90.8681587 77.625 98.25 C77.39264648 99.37317627 77.16029297 100.49635254 76.92089844 101.65356445 C74.90264379 111.42682304 72.93740248 121.21041922 71 131 C69.66634524 130.7098066 68.33309785 130.41774108 67 130.125 C66.17346924 129.94412842 65.34693848 129.76325684 64.49536133 129.5769043 C62.33091923 129.07650544 60.2111243 128.49838576 58.07421875 127.89453125 C43.72609193 124.28000932 26.26176384 126.22903703 13.5 133.4375 C5.22000837 138.52150585 -1.29465962 144.44483568 -6 153 C-6.66 154.093125 -7.32 155.18625 -8 156.3125 C-10.14663949 160.0608628 -11.57150039 163.92877612 -13 168 C-17.18362028 167.26763759 -19.14345211 165.24901142 -22.12109375 162.375 C-25.59068762 159.83592091 -29.79807378 159.8700427 -33.984375 159.71875 C-34.92023438 159.68136719 -35.85609375 159.64398438 -36.8203125 159.60546875 C-37.78710938 159.57066406 -38.75390625 159.53585937 -39.75 159.5 C-53.526 158.996 -53.526 158.996 -60 158 C-60.33 157.34 -60.66 156.68 -61 156 C-66.56991247 153.98535081 -72.11854503 153.44968871 -78 153 C-77.67 151.68 -77.34 150.36 -77 149 C-76.34 149 -75.68 149 -75 149 C-74.87625 148.113125 -74.7525 147.22625 -74.625 146.3125 C-74 143 -74 143 -73.02734375 140.640625 C-71.95785279 137.89166726 -71.4184921 135.34366236 -70.9375 132.4375 C-70.07262873 127.28401084 -70.07262873 127.28401084 -69.4765625 124.953125 C-68.48219662 120.877855 -68.14012787 117.12980838 -69 113 C-70.77128606 110.38838288 -72.69549926 108.30109088 -74.95703125 106.10546875 C-77.10961055 103.88703617 -78.42806846 101.65110733 -80 99 C-81.39938416 97.34206296 -82.83933987 95.71774307 -84.3125 94.125 C-87.05533245 91.14655957 -89.7106276 88.15277924 -92.25 85 C-94.53308909 82.28962887 -96.49634007 80.92743939 -100 80 C-99.8125 78.1875 -99.8125 78.1875 -99 76 C-98.236875 75.566875 -97.47375 75.13375 -96.6875 74.6875 C-92.99987621 72.3720153 -91.96182994 69.85099952 -90 66 C-89.34 66 -88.68 66 -88 66 C-88.88703558 56.51789549 -91.31230781 49.26837835 -96 41 C-96.33 40.34 -96.66 39.68 -97 39 C-95.84242188 38.96261719 -94.68484375 38.92523438 -93.4921875 38.88671875 C-91.95309439 38.82102575 -90.4140333 38.75457958 -88.875 38.6875 C-87.73417969 38.65366211 -87.73417969 38.65366211 -86.5703125 38.61914062 C-81.71725552 38.38903879 -78.1948276 37.68392465 -74 35 C-71.530685 31.29602751 -71.64607407 28.28826533 -72 24 C-72.32072304 22.6635773 -72.65245131 21.32969876 -73 20 C-71.71246826 20.15412354 -70.42493652 20.30824707 -69.09838867 20.46704102 C-61.46720982 21.31151632 -53.81550195 21.5710559 -46.14575195 21.83227539 C-44.26534811 21.90211202 -42.3853717 21.98468313 -40.50610352 22.08032227 C-27.69312231 22.72608125 -16.31296067 22.71413405 -5.83569336 14.25195312 C-1.78704484 10.25753592 -0.72414775 5.50601999 0 0 Z " fill="#81C735" transform="translate(513,199)"/>
<path d="M0 0 C0.66 0 1.32 0 2 0 C3.03435556 1.64556566 4.02763513 3.3170608 5 5 C6.98727894 8.01518183 8.20668058 9.67106268 11.5625 11.0625 C18.19024481 10.94199555 24.35091389 8.09627394 30 4.75 C33 3 33 3 36 3 C36.10957031 3.66386719 36.21914063 4.32773437 36.33203125 5.01171875 C37.48052793 11.99777442 37.48052793 11.99777442 41 18 C45.42386716 20.5674229 49.74888335 21.83530225 54.75 22.6875 C55.48154297 22.81415039 56.21308594 22.94080078 56.96679688 23.07128906 C68.1798446 24.83851111 79.78103251 24.66206926 91 23 C90.68872484 24.58357459 90.37592711 26.16684993 90.0625 27.75 C89.88847656 28.63171875 89.71445312 29.5134375 89.53515625 30.421875 C89.22954456 31.8941649 88.89597967 33.36269988 88.48144531 34.80810547 C87.4374128 39.56131231 87.72889437 44.52909935 87.6875 49.375 C87.65849609 50.4990625 87.62949219 51.623125 87.59960938 52.78125 C87.55048889 59.17447037 87.59038114 63.20795402 92 68 C93.72924012 69.70721213 93.72924012 69.70721213 95.625 71 C96.32109375 71.49886719 97.0171875 71.99773437 97.734375 72.51171875 C100.06698573 74.04400269 102.45144206 75.42924287 104.875 76.8125 C110.59654985 80.17194212 115.19696845 84.45881596 120 89 C129.4707236 98.07111263 129.4707236 98.07111263 141 104 C141 104.66 141 105.32 141 106 C139.20964834 107.27114968 137.36507132 108.46625519 135.5 109.625 C128.40602648 114.24316842 123.08679396 119.53795023 117.625 125.9375 C112.5625439 131.82246041 106.68708989 136.93408695 100.5625 141.6875 C96.410618 145.43432034 94.84616458 148.91061584 94.5625 154.4375 C94.94044383 166.38772395 99.62883452 179.40385162 105 190 C104.16190796 189.98428955 104.16190796 189.98428955 103.30688477 189.96826172 C100.7254707 189.92616621 98.14412924 189.90050657 95.5625 189.875 C94.68400391 189.85824219 93.80550781 189.84148437 92.90039062 189.82421875 C88.70721877 189.79327283 84.90349523 189.90929915 80.83984375 190.984375 C76.70894496 192.01789928 72.67632685 192.20784012 68.4375 192.2734375 C67.75594345 192.28458588 67.0743869 192.29573425 66.37217712 192.30722046 C63.53358249 192.34606093 60.69530173 192.3730994 57.85644531 192.38085938 C47.16869087 192.42986329 37.93641894 193.07803719 30 201 C28.14201724 203.9961769 28.14201724 203.9961769 26.6875 207.25 C26.17574219 208.32765625 25.66398438 209.4053125 25.13671875 210.515625 C24.76160156 211.33546875 24.38648438 212.1553125 24 213 C20.08060535 209.19588166 16.50897269 205.18423892 13 201 C13.66 200.360625 14.32 199.72125 15 199.0625 C16.00476162 198.04635298 17.00403179 197.0247673 18 196 C18.94166016 195.03513672 18.94166016 195.03513672 19.90234375 194.05078125 C30.95122687 182.23844363 35.78460234 168.89499459 35.421875 152.69921875 C34.52274602 144.81518964 32.37873946 136.36017743 27.765625 129.84375 C26 127 26 127 26.01171875 124.34765625 C27.18936699 121.55015984 28.45071621 120.32605067 30.8125 118.4375 C33.13334039 116.53598855 35.27658074 114.71614082 37.375 112.5625 C39 111 39 111 41 111 C41.17015625 110.35675781 41.3403125 109.71351563 41.515625 109.05078125 C41.75796875 108.14714844 42.0003125 107.24351562 42.25 106.3125 C42.51941406 105.30058594 42.78882813 104.28867187 43.06640625 103.24609375 C43.67372216 101.13446395 44.34559968 99.04000088 45.08984375 96.97265625 C49.20042945 85.3723201 49.61718532 72.84256562 46 61 C45.83242188 60.32195312 45.66484375 59.64390625 45.4921875 58.9453125 C45.06984843 57.27606761 44.54449507 55.63348521 44 54 C43.01 53.505 43.01 53.505 42 53 C41.22626093 51.649579 40.50475013 50.26895078 39.8125 48.875 C34.24252598 38.62819648 24.7587684 32.10789339 14 28 C12.87722656 27.48179687 11.75445313 26.96359375 10.59765625 26.4296875 C4.86341886 24.28108123 -0.96012847 24.67758878 -7 24.8125 C-8.73443359 24.83280273 -8.73443359 24.83280273 -10.50390625 24.85351562 C-13.33643004 24.88862956 -16.16796307 24.93781 -19 25 C-16.74491121 21.09480663 -14.39983958 18.24057686 -11.125 15.125 C-4.28970863 8.42981706 -4.28970863 8.42981706 0 0 Z " fill="#81C634" transform="translate(641,283)"/>
<path d="M0 0 C4.95 0.495 4.95 0.495 10 1 C10.25773441 6.97678972 9.28646809 12.33405854 8.0234375 18.1640625 C7.71469696 19.63028549 7.71469696 19.63028549 7.39971924 21.12612915 C6.73125051 24.29382132 6.0531291 27.45936329 5.375 30.625 C4.91251535 32.80941518 4.45076722 34.99398642 3.98974609 37.17871094 C3.07891467 41.49186845 2.16492797 45.80433551 1.24804688 50.11621094 C-0.31821109 57.48897566 -1.85212793 64.8681587 -3.375 72.25 C-3.60735352 73.37317627 -3.83970703 74.49635254 -4.07910156 75.65356445 C-6.09735621 85.42682304 -8.06259752 95.21041922 -10 105 C-12.97 104.34 -15.94 103.68 -19 103 C-17.28571429 83.57142857 -17.28571429 83.57142857 -15 79 C-18.02107902 78.9456749 -21.04116528 78.90617073 -24.0625 78.875 C-25.33383789 78.84986328 -25.33383789 78.84986328 -26.63085938 78.82421875 C-31.82994086 78.7840714 -35.99396683 79.45558551 -41 81 C-50.17793852 82.00334196 -57.26069477 81.14504374 -65 76 C-65.9013266 75.22513496 -65.9013266 75.22513496 -66.82086182 74.43461609 C-69.43589908 72.71302975 -70.84647523 72.63541089 -73.95214844 72.65942383 C-75.42322052 72.65976372 -75.42322052 72.65976372 -76.92401123 72.66011047 C-77.97518127 72.67559433 -79.02635132 72.69107819 -80.109375 72.70703125 C-81.73229462 72.71339851 -81.73229462 72.71339851 -83.38800049 72.71989441 C-86.8422539 72.73668155 -90.29592304 72.77433473 -93.75 72.8125 C-96.09243949 72.82754675 -98.43488813 72.84123517 -100.77734375 72.85351562 C-106.51842838 72.88658519 -112.25917245 72.93678534 -118 73 C-118 72.67 -118 72.34 -118 72 C-113.98485623 71.56325148 -109.96876765 71.13657209 -105.95166016 70.71826172 C-104.5920088 70.57535926 -103.23261827 70.42994764 -101.87353516 70.28173828 C-92.52102837 69.26410801 -83.4017423 68.80202999 -74 69 C-74.62068359 68.29508423 -74.62068359 68.29508423 -75.25390625 67.57592773 C-83.68528474 57.99018786 -91.94839022 48.25815628 -100.18188477 38.50244141 C-103.74006805 34.29237221 -107.34640742 30.12743735 -111 26 C-110.67 25.34 -110.34 24.68 -110 24 C-104.33946623 29.41966 -99.22352433 35.05452461 -94.32421875 41.16796875 C-90.40273778 45.94624389 -86.17946537 50.44810702 -82 55 C-80.66018695 56.47329996 -79.32609142 57.95183741 -78 59.4375 C-77.195625 60.33275391 -77.195625 60.33275391 -76.375 61.24609375 C-74.94195718 63.07403758 -73.96358988 64.89214713 -73 67 C-72.34 67 -71.68 67 -71 67 C-71.02755371 66.45142334 -71.05510742 65.90284668 -71.08349609 65.33764648 C-71.29798121 57.39766547 -70.01639374 49.85977672 -68.625 42.0625 C-68.40044569 40.73642891 -68.17648355 39.4102574 -67.953125 38.08398438 C-66.25803027 28.38704541 -66.25803027 28.38704541 -64 25 C-64.69669699 33.51403182 -65.75618511 41.94205271 -66.98242188 50.39453125 C-68.42908433 60.18008026 -68.42908433 60.18008026 -68 70 C-66.0595146 72.50626262 -66.0595146 72.50626262 -63.1875 73.625 C-61.84751953 74.29402344 -61.84751953 74.29402344 -60.48046875 74.9765625 C-51.1858215 78.81151932 -41.59353682 77.38242333 -32.17578125 74.66796875 C-26.17769627 73.40637892 -20.10118438 73.77495631 -14 74 C-13.79246094 72.75734375 -13.58492187 71.5146875 -13.37109375 70.234375 C-10.96491948 56.03606908 -8.26828758 41.9040634 -5.46264648 27.78027344 C-3.92780241 20.01566245 -2.5132714 12.27054107 -1.41650391 4.42822266 C-1 2 -1 2 0 0 Z " fill="#0E6325" transform="translate(594,225)"/>
<path d="M0 0 C2.82959587 2.17661221 3.81147254 3.82802004 4.37890625 7.35546875 C4.88350924 18.63578725 0.69935044 28.15830986 -6 37 C-6.680625 37.94875 -7.36125 38.8975 -8.0625 39.875 C-10.28218068 42.30948848 -11.94960663 43.72309115 -15 45 C-18.45327221 45.06166558 -20.85398835 45.01084104 -23.5234375 42.65625 C-28.08652322 37.27550152 -28.4598885 33.49446871 -28.4140625 26.59765625 C-27.40243569 17.80795537 -22.09231605 9.1325669 -15.23828125 3.5703125 C-10.01254597 -0.30790614 -6.61535621 -1.62482433 0 0 Z " fill="#FCF9FD" transform="translate(538,340)"/>
<path d="M0 0 C3.09116594 2.7836965 4.24512143 5.00660812 4.49609375 9.07421875 C4.50224524 10.61209089 4.48164456 12.15024926 4.4375 13.6875 C4.42356201 14.4904248 4.40962402 15.29334961 4.39526367 16.12060547 C4.10513913 25.4669628 1.95564362 33.59176038 -4 41 C-7 43 -7 43 -10.375 43 C-15.53138876 41.57754793 -17.36654142 38.62848793 -20.109375 34.21484375 C-22.43429543 28.43313372 -21.89958871 20.97587159 -20.125 15.10546875 C-16.05369232 6.38697764 -10.22694396 -1.05795972 0 0 Z " fill="#FBF9FC" transform="translate(485,417)"/>
<path d="M0 0 C1 1 1 1 1.26953125 3.3125 C0.84452887 7.55020487 -1.50984258 9.24304549 -4.5078125 12.0703125 C-8.62863561 15.26104388 -13.16624629 17.1358618 -18 19 C-18.82113281 19.36609375 -19.64226563 19.7321875 -20.48828125 20.109375 C-24.92916154 21.68405728 -29.35852002 21.54974051 -34 21 C-37.1875 19.4375 -37.1875 19.4375 -39 17 C-39.6738841 12.95669538 -39.30072792 10.66980309 -37.625 6.9375 C-28.00796818 -3.82441656 -12.4747731 -7.92402679 0 0 Z " fill="#FBF7FC" transform="translate(645,320)"/>
<path d="M0 0 C1.11761719 -0.00193359 1.11761719 -0.00193359 2.2578125 -0.00390625 C3.02609375 -0.00003906 3.794375 0.00382812 4.5859375 0.0078125 C5.36195313 0.00394531 6.13796875 0.00007813 6.9375 -0.00390625 C12.70753484 0.00611117 12.70753484 0.00611117 14.9609375 1.1328125 C14.67392846 3.27927376 14.38106637 5.4249526 14.0859375 7.5703125 C13.92351563 8.76527344 13.76109375 9.96023438 13.59375 11.19140625 C12.89328706 15.55416616 11.96602066 19.83191984 10.9609375 24.1328125 C6.81452841 23.82766166 2.66894432 23.51246739 -1.4765625 23.1953125 C-2.66056641 23.10830078 -3.84457031 23.02128906 -5.06445312 22.93164062 C-6.18916016 22.84462891 -7.31386719 22.75761719 -8.47265625 22.66796875 C-10.03584595 22.55014038 -10.03584595 22.55014038 -11.63061523 22.42993164 C-14.0390625 22.1328125 -14.0390625 22.1328125 -15.0390625 21.1328125 C-15.90651618 14.63402016 -14.7032671 9.54946278 -11.0390625 4.1328125 C-7.93667572 0.40994836 -4.68829725 0.00779342 0 0 Z " fill="#F8F9F8" transform="translate(564.0390625,302.8671875)"/>
<path d="M0 0 C3.8382853 1.46591339 7.46584392 3.19623869 11.125 5.0625 C18.04946649 8.59380523 22.95407959 9.20978548 30.625 9.25 C32.06552734 9.2809375 32.06552734 9.2809375 33.53515625 9.3125 C39.21946387 9.34335106 43.83800004 8.74501684 49.13818359 6.64746094 C51 6 51 6 54 6 C53.67 7.98 53.34 9.96 53 12 C52.030625 12.28875 51.06125 12.5775 50.0625 12.875 C46.89335797 13.64214682 46.89335797 13.64214682 46 16 C45.34 16 44.68 16 44 16 C44 16.99 44 17.98 44 19 C44.66 19.66 45.32 20.32 46 21 C29.30643548 21.60993912 17.23792131 20.44994777 3 11 C3.2475 9.9275 3.495 8.855 3.75 7.75 C4.42428622 3.97254504 4.42428622 3.97254504 2.0625 1.5625 C1.381875 1.046875 0.70125 0.53125 0 0 Z " fill="#6F429A" transform="translate(473,490)"/>
<path d="M0 0 C1.83034744 5.49104233 -1.67144461 10.94679474 -4 16 C-5.7426448 18.94683193 -7.71629341 21.45591831 -10 24 C-10.57363281 24.67675781 -11.14726563 25.35351562 -11.73828125 26.05078125 C-19.82515835 34.94132315 -30.55079889 39.4658551 -42.3984375 40.21484375 C-54.31923687 40.52208085 -65.58231866 39.04225518 -76 33 C-75.01 32.505 -75.01 32.505 -74 32 C-72.948125 32.433125 -72.948125 32.433125 -71.875 32.875 C-58.65469585 38.04816249 -42.60512633 35.10400852 -29.9921875 29.71484375 C-17.47694881 23.3146006 -9.36595088 14.68838799 -2 3 C-1.34 2.01 -0.68 1.02 0 0 Z " fill="#F6EFFA" transform="translate(608,398)"/>
<path d="M0 0 C1.21079153 3.63237459 0.76395223 4.22567895 -0.875 7.5625 C-7.27645463 19.72526379 -16.2662524 27.12592933 -29.1328125 31.203125 C-43.19529967 35.11150018 -56.66873022 33.02452988 -69.40234375 26.16796875 C-75.67519335 22.15745835 -81.01161923 17.51656227 -86 12 C-85.67 11.34 -85.34 10.68 -85 10 C-84.608125 10.4846875 -84.21625 10.969375 -83.8125 11.46875 C-76.38923886 19.78792197 -64.65712791 26.41548642 -53.41796875 27.2734375 C-37.30518586 27.82363009 -22.04608983 23.3370323 -9.8828125 12.24609375 C-4.05501276 6.78318625 -4.05501276 6.78318625 0 0 Z " fill="#F2EAF9" transform="translate(627,524)"/>
<path d="M0 0 C4.98719764 4.03521482 9.25183984 8.34451282 13.375 13.25 C14.50966054 14.58007249 15.6450796 15.90949827 16.78125 17.23828125 C17.32910156 17.88104004 17.87695312 18.52379883 18.44140625 19.18603516 C20.54806791 21.63786726 22.70541659 24.04129914 24.875 26.4375 C25.57496094 27.21222656 26.27492188 27.98695313 26.99609375 28.78515625 C28.3419025 30.27262907 29.68826478 31.75960125 31.03515625 33.24609375 C31.66292969 33.94863281 32.29070313 34.65117187 32.9375 35.375 C33.75541016 36.28378906 33.75541016 36.28378906 34.58984375 37.2109375 C36.04135381 39.0524655 37.02946548 40.87138806 38 43 C38.66 43 39.32 43 40 43 C39.97244629 42.45142334 39.94489258 41.90284668 39.91650391 41.33764648 C39.70201879 33.39766547 40.98360626 25.85977672 42.375 18.0625 C42.59955431 16.73642891 42.82351645 15.4102574 43.046875 14.08398438 C44.74196973 4.38704541 44.74196973 4.38704541 47 1 C46.30330301 9.51403182 45.24381489 17.94205271 44.01757812 26.39453125 C42.57091567 36.18008026 42.57091567 36.18008026 43 46 C44.9404854 48.50626262 44.9404854 48.50626262 47.8125 49.625 C49.15248047 50.29402344 49.15248047 50.29402344 50.51953125 50.9765625 C53.85783092 52.35393969 56.64396699 53.13835297 60.23046875 53.31640625 C61.43413086 53.37924805 61.43413086 53.37924805 62.66210938 53.44335938 C63.91217773 53.50233398 63.91217773 53.50233398 65.1875 53.5625 C66.03248047 53.60568359 66.87746094 53.64886719 67.74804688 53.69335938 C69.83184433 53.79931518 71.91590103 53.9001502 74 54 C73.505 54.99 73.505 54.99 73 56 C65.70912745 58.43029085 57.25838456 58.10354629 50.375 54.6875 C48.11656451 53.40412283 46.14911775 52.12819563 44.17913818 50.43461609 C41.56410092 48.71302975 40.15352477 48.63541089 37.04785156 48.65942383 C35.57677948 48.65976372 35.57677948 48.65976372 34.07598877 48.66011047 C33.02481873 48.67559433 31.97364868 48.69107819 30.890625 48.70703125 C29.26770538 48.71339851 29.26770538 48.71339851 27.61199951 48.71989441 C24.1577461 48.73668155 20.70407696 48.77433473 17.25 48.8125 C14.90756051 48.82754675 12.56511187 48.84123517 10.22265625 48.85351562 C4.48157162 48.88658519 -1.25917245 48.93678534 -7 49 C-7 48.67 -7 48.34 -7 48 C-2.98485623 47.56325148 1.03123235 47.13657209 5.04833984 46.71826172 C6.4079912 46.57535926 7.76738173 46.42994764 9.12646484 46.28173828 C18.47897163 45.26410801 27.5982577 44.80202999 37 45 C36.58621094 44.53005615 36.17242188 44.0601123 35.74609375 43.57592773 C27.31430322 33.98971941 19.0390807 24.26529841 10.81811523 14.49804688 C7.66623278 10.76059098 4.44354248 7.09633335 1.14453125 3.48828125 C0 2 0 2 0 0 Z " fill="#0A5708" transform="translate(483,249)"/>
<path d="M0 0 C0.66 0.99 1.32 1.98 2 3 C2.66 2.34 3.32 1.68 4 1 C4.71484375 2.69921875 4.71484375 2.69921875 5 5 C-2.92818075 18.48468349 -16.10570624 26.2443196 -30.74609375 30.5546875 C-33.21319682 31.04212208 -35.49140648 31.07963789 -38 31 C-37.67 29.02 -37.34 27.04 -37 25 C-35.94941406 24.69707031 -34.89882813 24.39414062 -33.81640625 24.08203125 C-18.57810473 19.58298309 -8.04791502 14.2785589 0 0 Z " fill="#74499F" transform="translate(625,532)"/>
<path d="M0 0 C5.28557366 -0.50338797 7.90950339 0.65323004 12 4 C14.10857453 6.65863745 14.00023614 7.98701207 13.9375 11.4375 C12.82467569 15.66623237 11.36546545 17.27557559 8 20 C4.47940432 21.17353189 1.693507 21.20146402 -2 21 C-4 19 -4 19 -4.1875 16.4375 C-4 14 -4 14 -3 13 C-1.14712498 12.92773498 0.70833878 12.9161878 2.5625 12.9375 C3.57441406 12.94652344 4.58632813 12.95554687 5.62890625 12.96484375 C6.80259766 12.98224609 6.80259766 12.98224609 8 13 C7.2575 12.2575 6.515 11.515 5.75 10.75 C4.8425 9.8425 3.935 8.935 3 8 C2.21625 7.319375 1.4325 6.63875 0.625 5.9375 C-0.179375 4.9784375 -0.179375 4.9784375 -1 4 C-0.75 1.75 -0.75 1.75 0 0 Z " fill="#9E71C7" transform="translate(264,380)"/>
<path d="M0 0 C3.8382853 1.46591339 7.46584392 3.19623869 11.125 5.0625 C18.04946649 8.59380523 22.95407959 9.20978548 30.625 9.25 C32.06552734 9.2809375 32.06552734 9.2809375 33.53515625 9.3125 C39.21946387 9.34335106 43.83800004 8.74501684 49.13818359 6.64746094 C51 6 51 6 54 6 C53.67 7.98 53.34 9.96 53 12 C42.84230921 16.27692244 30.4600076 16.82683205 20 13 C12.79377362 9.90612681 5.85680746 6.28835262 0 1 C0 0.67 0 0.34 0 0 Z " fill="#F3EBF8" transform="translate(473,490)"/>
<path d="M0 0 C-0.78375 0.37125 -1.5675 0.7425 -2.375 1.125 C-5.63719148 3.45513677 -5.88084837 5.24284809 -7 9 C-7.99 9.66 -8.98 10.32 -10 11 C-10.78375 11.78375 -11.5675 12.5675 -12.375 13.375 C-14.801272 15.801272 -17.31815383 17.86827612 -20 20 C-21.35147138 21.31494512 -22.69112542 22.64264858 -24 24 C-24.66 22.68 -25.32 21.36 -26 20 C-27.32 20.33 -28.64 20.66 -30 21 C-26.05081766 12.72466792 -10.25682292 -3.66315104 0 0 Z " fill="#674393" transform="translate(539,328)"/>
<path d="M0 0 C0 4.77038787 -2.92327394 7.52797723 -6 11 C-12.21165201 16.94099179 -20.08206647 20.66658078 -28.6875 21.25 C-29.450625 21.1675 -30.21375 21.085 -31 21 C-31.33 19.35 -31.66 17.7 -32 16 C-31.05640625 15.79246094 -30.1128125 15.58492188 -29.140625 15.37109375 C-18.0960067 12.78264683 -7.56032829 8.91038692 0 0 Z " fill="#F0E6F7" transform="translate(663,463)"/>
<path d="M0 0 C0.66 0.33 1.32 0.66 2 1 C-5.52123121 9.83673172 -13.14178079 18.36484018 -25 21 C-27.33212027 21.07522969 -29.6685311 21.09325876 -32 21 C-30.875 19.5 -30.875 19.5 -29 18 C-27.00045254 17.95745644 -24.99958364 17.95919217 -23 18 C-20.84971696 17.05021103 -20.84971696 17.05021103 -19 16 C-18.01 16 -17.02 16 -16 16 C-16 15.01 -16 14.02 -16 13 C-16.66 13 -17.32 13 -18 13 C-16.8578839 9.57365169 -16.0459149 9.03642174 -13.1875 7 C-12.50042969 6.505 -11.81335938 6.01 -11.10546875 5.5 C-10.41066406 5.005 -9.71585938 4.51 -9 4 C-7.66417912 3.00332535 -6.33009828 2.00429893 -5 1 C-5 2.32 -5 3.64 -5 5 C-3.35 3.35 -1.7 1.7 0 0 Z " fill="#6D4C92" transform="translate(666,469)"/>
<path d="M0 0 C0 0.33 0 0.66 0 1 C-16.01058231 1.7213011 -31.97308977 2.14453125 -48 2 C-48 1.67 -48 1.34 -48 1 C-43.98485623 0.56325148 -39.96876765 0.13657209 -35.95166016 -0.28173828 C-34.5920088 -0.42464074 -33.23261827 -0.57005236 -31.87353516 -0.71826172 C-5.79942933 -3.55534059 -5.79942933 -3.55534059 0 0 Z " fill="#1C6307" transform="translate(524,296)"/>
<path d="M0 0 C4.62 0 9.24 0 14 0 C13 5 13 5 11.375 6.3125 C8.14466238 7.24759773 5.3427643 7.24761217 2 7 C1.34 6.34 0.68 5.68 0 5 C0 3.35 0 1.7 0 0 Z " fill="#9C69C3" transform="translate(260,394)"/>
<path d="M0 0 C0 3.34486972 -0.48115476 4.02421621 -2.3125 6.6875 C-4.90245351 10.65336631 -6.48052739 14.52155441 -8 19 C-11.36166422 18.40501518 -13.21159678 17.25635842 -15.75 15 C-16.36359375 14.46375 -16.9771875 13.9275 -17.609375 13.375 C-18.06828125 12.92125 -18.5271875 12.4675 -19 12 C-19 11.67 -19 11.34 -19 11 C-15.4780279 10.91995518 -12.38018531 10.95994298 -9 12 C-6.0459281 7.73422431 -6.0459281 7.73422431 -4 3 C-1.9375 1.3125 -1.9375 1.3125 0 0 Z " fill="#83AE5A" transform="translate(508,348)"/>
<path d="M0 0 C0.66 0.33 1.32 0.66 2 1 C-0.36292656 3.52588702 -1.66462511 4.88820837 -5 6 C-5 6.99 -5 7.98 -5 9 C-4.29875 9.20238281 -3.5975 9.40476562 -2.875 9.61328125 C0.95278044 11.45956122 3.20592513 14.04239289 6 17.1875 C6.50789063 17.73986328 7.01578125 18.29222656 7.5390625 18.86132812 C11.02184582 22.7057851 14.05088949 26.73354785 17 31 C12.5060166 29.42103286 10.12356593 27.96624037 7.75 23.8125 C3.29402844 16.65111714 -0.78522342 12.3059022 -9 10 C-8.62669176 7.27425729 -8.20805399 6.19177915 -6.15234375 4.296875 C-5.42144531 3.78640625 -4.69054687 3.2759375 -3.9375 2.75 C-3.20402344 2.22921875 -2.47054688 1.7084375 -1.71484375 1.171875 C-1.14894531 0.78515625 -0.58304687 0.3984375 0 0 Z " fill="#8E908B" transform="translate(419,270)"/>
<path d="M0 0 C1.65 0 3.3 0 5 0 C6.13764351 4.26616316 7 7.56486311 7 12 C4.69 12.33 2.38 12.66 0 13 C0 8.71 0 4.42 0 0 Z " fill="#EAE0F3" transform="translate(564,443)"/>
<path d="M0 0 C1.43410153 3.78819273 0.51009497 6.06521279 -0.9375 9.75 C-1.31777344 10.73484375 -1.69804687 11.7196875 -2.08984375 12.734375 C-2.39019531 13.48203125 -2.69054687 14.2296875 -3 15 C-3.66 15 -4.32 15 -5 15 C-5.33 16.32 -5.66 17.64 -6 19 C-5.35933594 18.97679687 -4.71867187 18.95359375 -4.05859375 18.9296875 C1.40987096 18.81559137 5.83098277 19.20208096 11 21 C7.5126236 22.12604443 4.5662873 21.95775125 0.9375 21.625 C-0.62677734 21.48964844 -0.62677734 21.48964844 -2.22265625 21.3515625 C-5 21 -5 21 -8 20 C-4.53380282 5.94084507 -4.53380282 5.94084507 0 0 Z " fill="#8C9E74" transform="translate(441,333)"/>
<path d="M0 0 C16.335 0.495 16.335 0.495 33 1 C33 1.66 33 2.32 33 3 C33.99 3.33 34.98 3.66 36 4 C31.68729764 3.85980449 27.37489539 3.71181808 23.0625 3.5625 C21.85013672 3.52318359 20.63777344 3.48386719 19.38867188 3.44335938 C12.87513852 3.2138853 6.46525519 2.82995185 0 2 C0 1.34 0 0.68 0 0 Z " fill="#90997C" transform="translate(453,355)"/>
<path d="M0 0 C0.33 0 0.66 0 1 0 C0.23488411 9.42791387 -0.90689189 18.80160833 -2.0625 28.1875 C-2.25080564 29.72719464 -2.43895777 31.26690807 -2.62695312 32.80664062 C-3.08286857 36.53797899 -3.54085134 40.26905816 -4 44 C-4.33 44 -4.66 44 -5 44 C-6.36113281 34.56332561 -5.40474798 26.25751003 -3.625 16.9375 C-3.38667148 15.62068621 -3.14968521 14.30362876 -2.9140625 12.98632812 C-1.20670536 3.62011607 -1.20670536 3.62011607 0 0 Z " fill="#236C0F" transform="translate(529,250)"/>
<path d="M0 0 C0.33 0.66 0.66 1.32 1 2 C1.73524902 1.97381592 2.47049805 1.94763184 3.22802734 1.9206543 C6.61012778 1.81571088 9.99188434 1.7513668 13.375 1.6875 C15.10943359 1.6246582 15.10943359 1.6246582 16.87890625 1.56054688 C23.84850858 1.46210616 28.75137985 2.17395431 34.80322266 5.72192383 C37.13246652 7.07706849 39.48157183 8.05081444 42 9 C42 9.66 42 10.32 42 11 C37.32497824 9.52367734 32.80687281 7.74934146 28.26953125 5.90234375 C24.36016078 4.34801573 21.43135352 3.88105912 17.23828125 3.90234375 C15.56088867 3.90717773 15.56088867 3.90717773 13.84960938 3.91210938 C12.68236328 3.92048828 11.51511719 3.92886719 10.3125 3.9375 C9.13365234 3.94201172 7.95480469 3.94652344 6.74023438 3.95117188 C3.82677211 3.96296727 0.91341137 3.9794273 -2 4 C-1.34 2.68 -0.68 1.36 0 0 Z " fill="#8DB35D" transform="translate(624,304)"/>
<path d="M0 0 C0.33 0.66 0.66 1.32 1 2 C1.66 2 2.32 2 3 2 C3 2.99 3 3.98 3 5 C-4.28571429 8.42857143 -4.28571429 8.42857143 -9 8 C-9.33 7.01 -9.66 6.02 -10 5 C-12.01508358 4.26676204 -12.01508358 4.26676204 -14 4 C-13.15695312 3.79503906 -12.31390625 3.59007812 -11.4453125 3.37890625 C-10.34960938 3.10949219 -9.25390625 2.84007812 -8.125 2.5625 C-7.03445313 2.29566406 -5.94390625 2.02882813 -4.8203125 1.75390625 C-2.07515279 1.1213522 -2.07515279 1.1213522 0 0 Z " fill="#6C39A2" transform="translate(647,480)"/>
<path d="M0 0 C7.5975948 -0.15318589 15.06044887 0.3198338 22.625 1 C23.72457031 1.09539062 24.82414063 1.19078125 25.95703125 1.2890625 C28.63837982 1.52222324 31.31932221 1.7592704 34 2 C34 2.33 34 2.66 34 3 C22.45 3 10.9 3 -1 3 C-0.67 2.01 -0.34 1.02 0 0 Z " fill="#0F5C0C" transform="translate(684,388)"/>
<path d="M0 0 C0.66 0.33 1.32 0.66 2 1 C-5.3697851 10.47543799 -5.3697851 10.47543799 -10 11.0625 C-10.99 11.041875 -11.98 11.02125 -13 11 C-12.44449305 7.40094092 -11.25112752 6.00090201 -8.4375 3.75 C-7.79683594 3.22921875 -7.15617188 2.7084375 -6.49609375 2.171875 C-6.00238281 1.78515625 -5.50867188 1.3984375 -5 1 C-5 2.32 -5 3.64 -5 5 C-3.35 3.35 -1.7 1.7 0 0 Z " fill="#663A95" transform="translate(666,469)"/>
<path d="M0 0 C0.33 0.66 0.66 1.32 1 2 C-2.4147168 2.39441857 -5.83179889 2.76212413 -9.25 3.125 C-10.70212891 3.29322266 -10.70212891 3.29322266 -12.18359375 3.46484375 C-13.11816406 3.56152344 -14.05273438 3.65820312 -15.015625 3.7578125 C-15.87446289 3.8520752 -16.73330078 3.94633789 -17.61816406 4.04345703 C-20.27676495 3.99495037 -21.74271699 3.35711145 -24 2 C-16.09388645 -0.63537118 -8.23134837 -0.17981101 0 0 Z " fill="#16601E" transform="translate(577,300)"/>
<path d="M0 0 C0.33 0 0.66 0 1 0 C0.88557539 1.60495567 0.75805306 3.20898119 0.625 4.8125 C0.55539062 5.70582031 0.48578125 6.59914063 0.4140625 7.51953125 C0 10 0 10 -2 13 C-1.67 11.02 -1.34 9.04 -1 7 C-7.93 6.505 -7.93 6.505 -15 6 C-15 5.67 -15 5.34 -15 5 C-9.06 4.505 -9.06 4.505 -3 4 C-6.96 3.67 -10.92 3.34 -15 3 C-15 2.67 -15 2.34 -15 2 C-10.05 2 -5.1 2 0 2 C0 1.34 0 0.68 0 0 Z " fill="#679C72" transform="translate(580,297)"/>
<path d="M0 0 C-0.33 0.99 -0.66 1.98 -1 3 C-7.5377294 3.94902524 -13.79672589 4.02004994 -20.375 3.6875 C-21.15987793 3.65277588 -21.94475586 3.61805176 -22.75341797 3.58227539 C-23.87707764 3.51641235 -23.87707764 3.51641235 -25.0234375 3.44921875 C-25.69294434 3.41143311 -26.36245117 3.37364746 -27.05224609 3.3347168 C-29.31165425 2.94644297 -31.00451033 2.10733822 -33 1 C-31.9644397 1.00785522 -31.9644397 1.00785522 -30.90795898 1.01586914 C-27.75114874 1.03677867 -24.59435314 1.04970442 -21.4375 1.0625 C-20.35146484 1.07087891 -19.26542969 1.07925781 -18.14648438 1.08789062 C-12.04204377 1.10644516 -6.02096742 0 0 0 Z " fill="#8EC555" transform="translate(732,306)"/>
<path d="M0 0 C0.66 1.32 1.32 2.64 2 4 C1.1028125 4.13921875 1.1028125 4.13921875 0.1875 4.28125 C-2.51037462 5.16769452 -3.30738404 6.25544405 -5 8.5 C-7.14957287 11.35052055 -8.43144411 12.44625857 -12 13 C-11.34 14.65 -10.68 16.3 -10 18 C-10.99 17.34 -11.98 16.68 -13 16 C-12.51282794 11.76087598 -11.50081246 10.08692054 -8.1875 7.4375 C-7.46949219 6.84710938 -6.75148438 6.25671875 -6.01171875 5.6484375 C-5.34785156 5.10445313 -4.68398438 4.56046875 -4 4 C-2.64989719 2.68364976 -1.30585054 1.36026098 0 0 Z " fill="#88B04B" transform="translate(680,394)"/>
<path d="M0 0 C3.8382853 1.46591339 7.46584392 3.19623869 11.125 5.0625 C14.08657781 6.57283083 16.84546442 7.94848814 20 9 C20 9.99 20 10.98 20 12 C12.09793157 9.92732631 6.26944707 6.22649232 0 1 C0 0.67 0 0.34 0 0 Z " fill="#DFC4EE" transform="translate(473,490)"/>
<path d="M0 0 C1.18765541 3.56296622 0.58522618 5.42852867 -0.7734375 8.86328125 C-3.27606912 13.22296117 -7.51691584 16.75845792 -12 19 C-12 17.35 -12 15.7 -12 14 C-11.01 14.33 -10.02 14.66 -9 15 C-9 13.68 -9 12.36 -9 11 C-8.2575 10.855625 -7.515 10.71125 -6.75 10.5625 C-2.56152352 8.18268382 -1.61547154 4.3861406 0 0 Z " fill="#5F5276" transform="translate(684,383)"/>
<path d="M0 0 C0.928125 0.28875 1.85625 0.5775 2.8125 0.875 C6.99917351 2.09076204 11.24418452 2.76445345 15.546875 3.4375 C18 4 18 4 21 6 C15.82835901 7.31078458 12.64058117 6.54425165 7.6875 4.6875 C6.45386719 4.23761719 5.22023438 3.78773438 3.94921875 3.32421875 C1 2 1 2 0 0 Z " fill="#DFC9ED" transform="translate(532,430)"/>
<path d="M0 0 C1.65 0 3.3 0 5 0 C5 0.66 5 1.32 5 2 C5.66 2 6.32 2 7 2 C7 2.66 7 3.32 7 4 C3.5980513 6.09350689 0.94727588 6.17942163 -3 6 C-2.67 4.68 -2.34 3.36 -2 2 C-1.34 2 -0.68 2 0 2 C0 1.34 0 0.68 0 0 Z " fill="#673A92" transform="translate(519,504)"/>
<path d="M0 0 C1.65 0.33 3.3 0.66 5 1 C5.75 2.5625 5.75 2.5625 6 5 C4.86915563 7.50286409 3.47860484 9.67007722 2 12 C1.67 12 1.34 12 1 12 C1 10.35 1 8.7 1 7 C1.66 7 2.32 7 3 7 C3 6.34 3 5.68 3 5 C1.35 5 -0.3 5 -2 5 C-1.34 3.35 -0.68 1.7 0 0 Z " fill="#7345A4" transform="translate(510,348)"/>
<path d="M0 0 C4.24430153 2.54658092 6.73214679 4.58365428 9 9 C9.33 9.33 9.66 9.66 10 10 C10.12537741 12.14307896 10.17574364 14.29078886 10.1875 16.4375 C10.20167969 17.61183594 10.21585937 18.78617187 10.23046875 19.99609375 C10 23 10 23 8 25 C8.0928125 24.09378906 8.185625 23.18757813 8.28125 22.25390625 C8.83139693 14.86088469 8.83139693 14.86088469 6.21875 8.13671875 C4.05141517 5.74462532 4.05141517 5.74462532 1.75 3.671875 C1.1725 3.12015625 0.595 2.5684375 0 2 C0 1.34 0 0.68 0 0 Z " fill="#88997C" transform="translate(436,301)"/>
<path d="M0 0 C0.53625 0.226875 1.0725 0.45375 1.625 0.6875 C0.84125 1.079375 0.0575 1.47125 -0.75 1.875 C-3.72656418 3.93024669 -4.36323563 5.28429258 -5.375 8.6875 C-6.365 8.6875 -7.355 8.6875 -8.375 8.6875 C-8.045 7.3675 -7.715 6.0475 -7.375 4.6875 C-8.695 5.0175 -10.015 5.3475 -11.375 5.6875 C-8.45877964 2.28524292 -4.62034368 -0.60793996 0 0 Z " fill="#654D83" transform="translate(537.375,327.3125)"/>
<path d="M0 0 C0.33 0 0.66 0 1 0 C1.30769231 6.76923077 1.30769231 6.76923077 -1 10 C-3.99904936 12.0683099 -6.41302423 12.19927643 -10 12 C-9 10 -9 10 -6.6875 8.8125 C-3.07396489 6.37546469 -1.965992 3.85916949 0 0 Z " fill="#89B057" transform="translate(423,265)"/>
<path d="M0 0 C5.59753384 4.54799625 10.3143947 9.52331848 15 15 C14.34 15.66 13.68 16.32 13 17 C11.20327652 14.92084841 9.41257473 12.83699349 7.625 10.75 C7.11710937 10.16347656 6.60921875 9.57695312 6.0859375 8.97265625 C3.64854442 6.11834067 1.44300952 3.5119027 0 0 Z " fill="#21660D" transform="translate(483,249)"/>
<path d="M0 0 C-1.46966358 3.39859703 -3.38037514 5.64963709 -6 8.25 C-6.70125 8.95640625 -7.4025 9.6628125 -8.125 10.390625 C-10 12 -10 12 -12 12 C-10.53033642 8.60140297 -8.61962486 6.35036291 -6 3.75 C-5.29875 3.04359375 -4.5975 2.3371875 -3.875 1.609375 C-2 0 -2 0 0 0 Z " fill="#EEFADF" transform="translate(773,395)"/>
<path d="M0 0 C1.13643966 3.40931897 0.86747764 4.00335456 -0.4375 7.1875 C-0.72496094 7.90292969 -1.01242187 8.61835938 -1.30859375 9.35546875 C-1.53675781 9.89816406 -1.76492188 10.44085938 -2 11 C-1.01 11.33 -0.02 11.66 1 12 C-0.65 11.67 -2.3 11.34 -4 11 C-4.75 9.375 -4.75 9.375 -5 7 C-3.50594347 4.4601039 -2.09462345 2.09462345 0 0 Z " fill="#996EBB" transform="translate(435,342)"/>
<path d="M0 0 C0 4.12036206 -1.6993277 5.43252807 -4.3125 8.5625 C-5.11300781 9.53316406 -5.91351562 10.50382812 -6.73828125 11.50390625 C-9 14 -9 14 -12 16 C-12.33 15.01 -12.66 14.02 -13 13 C-12.31292969 12.39671875 -11.62585938 11.7934375 -10.91796875 11.171875 C-10.01691406 10.37265625 -9.11585938 9.5734375 -8.1875 8.75 C-6.84751953 7.56664062 -6.84751953 7.56664062 -5.48046875 6.359375 C-3.35871775 4.34120555 -1.65745577 2.40083295 0 0 Z " fill="#86A95F" transform="translate(667,470)"/>
<path d="M0 0 C0 0.66 0 1.32 0 2 C-3.46153846 5 -3.46153846 5 -6 5 C-6.3403125 5.86625 -6.3403125 5.86625 -6.6875 6.75 C-8.33038023 9.5663661 -10.39533227 11.08077114 -13 13 C-13.66 12.67 -14.32 12.34 -15 12 C-3.26213592 0 -3.26213592 0 0 0 Z " fill="#744F9E" transform="translate(608,315)"/>
<path d="M0 0 C3.78496138 1.51398455 4.0072198 2.0144396 6 6 C3.03 6 0.06 6 -3 6 C-2.01 4.02 -1.02 2.04 0 0 Z " fill="#6BBB40" transform="translate(514,288)"/>
<path d="M0 0 C0.33 0 0.66 0 1 0 C1.23396451 5.73213046 1.08898273 10.61262348 -1 16 C-1.99 16.66 -2.98 17.32 -4 18 C-3.71125 17.071875 -3.4225 16.14375 -3.125 15.1875 C-1.68956277 10.20448217 -0.86802087 5.10654831 0 0 Z " fill="#86B359" transform="translate(443,326)"/>
<path d="M0 0 C0.33 0 0.66 0 1 0 C1.33 2.97 1.66 5.94 2 9 C3.32 9.33 4.64 9.66 6 10 C6.33 9.01 6.66 8.02 7 7 C7.33 8.65 7.66 10.3 8 12 C3.545 11.01 3.545 11.01 -1 10 C-0.67 6.7 -0.34 3.4 0 0 Z " fill="#2C6148" transform="translate(576,318)"/>
<path d="M0 0 C0.33 0.66 0.66 1.32 1 2 C0.66226563 2.47050781 0.32453125 2.94101562 -0.0234375 3.42578125 C-0.46945312 4.04839844 -0.91546875 4.67101562 -1.375 5.3125 C-1.81585937 5.92738281 -2.25671875 6.54226563 -2.7109375 7.17578125 C-3.83410907 8.7652392 -4.92041447 10.38062171 -6 12 C-9.125 13.1875 -9.125 13.1875 -12 14 C-8 9.33333333 -4 4.66666667 0 0 Z " fill="#8EC758" transform="translate(637,290)"/>
<path d="M0 0 C2.24973447 -0.054138 4.49984383 -0.09285491 6.75 -0.125 C8.00296875 -0.14820313 9.2559375 -0.17140625 10.546875 -0.1953125 C13.72820492 -0.01537302 15.36521896 0.31001418 18 2 C18 2.33 18 2.66 18 3 C13.71 3 9.42 3 5 3 C5 2.67 5 2.34 5 2 C3.35 1.67 1.7 1.34 0 1 C0 0.67 0 0.34 0 0 Z " fill="#227215" transform="translate(506,294)"/>
<path d="M0 0 C0.95465783 2.16967689 1.14401212 3.56328793 0.3984375 5.82421875 C-0.35870385 7.5684743 -1.17609198 9.28627131 -2 11 C-2.66 11 -3.32 11 -4 11 C-4.33 11.99 -4.66 12.98 -5 14 C-5.33 13.34 -5.66 12.68 -6 12 C-5.29296875 9.94140625 -5.29296875 9.94140625 -4.1875 7.5625 C-3.83042969 6.78003906 -3.47335937 5.99757813 -3.10546875 5.19140625 C-2 3 -2 3 0 0 Z " fill="#948891" transform="translate(441,333)"/>
<path d="M0 0 C-0.50789062 0.35191406 -1.01578125 0.70382812 -1.5390625 1.06640625 C-6.42205707 4.56862895 -10.30303954 8.26677032 -14 13 C-14 9.45595664 -13.39010515 8.89732095 -11.125 6.3125 C-10.59132813 5.68988281 -10.05765625 5.06726563 -9.5078125 4.42578125 C-8 3 -8 3 -6 3 C-6 2.01 -6 1.02 -6 0 C-2.25 -1.125 -2.25 -1.125 0 0 Z " fill="#83AD62" transform="translate(524,334)"/>
<path d="M0 0 C3.80380709 2.07177584 6.46450897 4.3068869 9.3125 7.5625 C10.00988281 8.34753906 10.70726562 9.13257813 11.42578125 9.94140625 C13 12 13 12 13 14 C11.68 13.67 10.36 13.34 9 13 C8.91878906 12.41476562 8.83757813 11.82953125 8.75390625 11.2265625 C7.77100589 8.32369616 6.31214136 7.27638832 3.9375 5.375 C2.59087828 4.29107602 1.26911978 3.17371898 0 2 C0 1.34 0 0.68 0 0 Z " fill="#5E507F" transform="translate(668,318)"/>
<path d="M0 0 C2.6465335 2.6465335 3.59941997 5.56221264 5 9 C0.05 8.67 -4.9 8.34 -10 8 C-10 7.67 -10 7.34 -10 7 C-4.555 6.505 -4.555 6.505 1 6 C0.67 4.02 0.34 2.04 0 0 Z " fill="#91C359" transform="translate(741,464)"/>
<path d="M0 0 C0.75 1.6875 0.75 1.6875 1 4 C-0.8125 6.75 -0.8125 6.75 -3 9 C-3.66 9 -4.32 9 -5 9 C-4.5206753 4.68607774 -3.2542015 2.83430453 0 0 Z " fill="#6E2CA3" transform="translate(666,465)"/>
<path d="M0 0 C0 0.99 0 1.98 0 3 C-5.79799884 7.0333905 -10.01370081 7.50604984 -17 7 C-17 6.67 -17 6.34 -17 6 C-16.33613281 5.90203125 -15.67226563 5.8040625 -14.98828125 5.703125 C-9.81541932 4.8271367 -4.24681096 0 0 0 Z " fill="#9DCF6D" transform="translate(551,208)"/>
<path d="M0 0 C2.3125 0.25 2.3125 0.25 5 1 C6.00642948 2.32848691 7.00692179 3.66150329 8 5 C9.32 5 10.64 5 12 5 C11.67 5.99 11.34 6.98 11 8 C7.63833578 7.40501518 5.78840322 6.25635842 3.25 4 C2.63640625 3.46375 2.0228125 2.9275 1.390625 2.375 C0.93171875 1.92125 0.4728125 1.4675 0 1 C0 0.67 0 0.34 0 0 Z " fill="#8B838F" transform="translate(489,359)"/>
<path d="M0 0 C1.92154764 0.9063904 3.83706654 1.82556804 5.75 2.75 C7.35101562 3.51570313 7.35101562 3.51570313 8.984375 4.296875 C11.86694755 5.92485639 13.80426309 7.54844908 16 10 C12.51873079 8.6413032 9.11851499 7.18120256 5.75 5.5625 C4.87859375 5.15128906 4.0071875 4.74007813 3.109375 4.31640625 C1 3 1 3 0 0 Z " fill="#8FC15A" transform="translate(735,354)"/>
<path d="M0 0 C0.66 1.32 1.32 2.64 2 4 C0.35 6.31 -1.3 8.62 -3 11 C-3.66 9.68 -4.32 8.36 -5 7 C-4.01 6.67 -3.02 6.34 -2 6 C-1.32843384 4.06381575 -1.32843384 4.06381575 -1 2 C-0.67 1.34 -0.34 0.68 0 0 Z " fill="#784EA2" transform="translate(628,533)"/>
<path d="M0 0 C0 1.65 0 3.3 0 5 C-0.99 5.495 -0.99 5.495 -2 6 C-2 4.68 -2 3.36 -2 2 C-6.29 2 -10.58 2 -15 2 C-15 1.67 -15 1.34 -15 1 C-13.25021843 0.83105557 -11.50016388 0.66493691 -9.75 0.5 C-8.77546875 0.4071875 -7.8009375 0.314375 -6.796875 0.21875 C-4.53697847 0.04199832 -2.26679807 0 0 0 Z " fill="#B187D2" transform="translate(276,392)"/>
<path d="M0 0 C0 0.66 0 1.32 0 2 C-5.1468192 5.16727335 -9.158256 5.35050464 -15 5 C-12.18459435 3.52159064 -9.39290564 2.37423966 -6.375 1.375 C-5.21097656 0.98441406 -5.21097656 0.98441406 -4.0234375 0.5859375 C-2 0 -2 0 0 0 Z " fill="#92C457" transform="translate(667,291)"/>
<path d="M0 0 C0.33 0.66 0.66 1.32 1 2 C-6.3697851 6.46015566 -6.3697851 6.46015566 -11 5.75 C-11.99 5.5025 -12.98 5.255 -14 5 C-14 4.67 -14 4.34 -14 4 C-13.15695312 3.79503906 -12.31390625 3.59007812 -11.4453125 3.37890625 C-10.34960938 3.10949219 -9.25390625 2.84007812 -8.125 2.5625 C-7.03445313 2.29566406 -5.94390625 2.02882813 -4.8203125 1.75390625 C-2.07515279 1.1213522 -2.07515279 1.1213522 0 0 Z " fill="#7955A6" transform="translate(647,480)"/>
<path d="M0 0 C0.99 0 1.98 0 3 0 C3.33 2.31 3.66 4.62 4 7 C3.01 7 2.02 7 1 7 C0.34 5.02 -0.32 3.04 -1 1 C-0.67 0.67 -0.34 0.34 0 0 Z " fill="#9B61CC" transform="translate(272,385)"/>
<path d="M0 0 C2.97 0.495 2.97 0.495 6 1 C6.33 1.99 6.66 2.98 7 4 C4.69 4 2.38 4 0 4 C0 2.68 0 1.36 0 0 Z " fill="#653D91" transform="translate(560,552)"/>
<path d="M0 0 C0.66 0.33 1.32 0.66 2 1 C-0.64 3.97 -3.28 6.94 -6 10 C-6.33 8.68 -6.66 7.36 -7 6 C-6.401875 5.7525 -5.80375 5.505 -5.1875 5.25 C-2.71352479 3.83629988 -1.56629745 2.34944617 0 0 Z " fill="#5C4583" transform="translate(666,469)"/>
<path d="M0 0 C-1.5277867 3.43752007 -3.50181056 6.18953688 -6 9 C-6.66 9 -7.32 9 -8 9 C-6.68994234 5.06982701 -4.75047804 0 0 0 Z " fill="#EFFCE2" transform="translate(745,422)"/>
<path d="M0 0 C1.98 0.99 3.96 1.98 6 3 C6 3.66 6 4.32 6 5 C7.32 5.66 8.64 6.32 10 7 C9.34 7.66 8.68 8.32 8 9 C6.66079162 7.88200014 5.32877444 6.75538103 4 5.625 C2.88625 4.68527344 2.88625 4.68527344 1.75 3.7265625 C1.1725 3.15679687 0.595 2.58703125 0 2 C0 1.34 0 0.68 0 0 Z " fill="#5D9F2B" transform="translate(478,243)"/>
<path d="M0 0 C2.97 0.33 5.94 0.66 9 1 C9 1.33 9 1.66 9 2 C7.35 2 5.7 2 4 2 C3.67 4.64 3.34 7.28 3 10 C2.67 10 2.34 10 2 10 C1.34 6.7 0.68 3.4 0 0 Z " fill="#93C75C" transform="translate(440,219)"/>
<path d="M0 0 C4.95 0.33 9.9 0.66 15 1 C15 1.33 15 1.66 15 2 C10.38 2.33 5.76 2.66 1 3 C0.67 2.01 0.34 1.02 0 0 Z " fill="#1C7015" transform="translate(535,302)"/>
<path d="M0 0 C0.66 1.32 1.32 2.64 2 4 C0.37660195 5.70884005 -1.29319053 7.37446717 -3 9 C-3.66 9 -4.32 9 -5 9 C-3.50163895 5.88801935 -1.80066242 2.9465385 0 0 Z " fill="#EDF8DB" transform="translate(568,288)"/>
<path d="M0 0 C-1.269553 0.64834654 -2.54069706 1.29357815 -3.8125 1.9375 C-4.52019531 2.29714844 -5.22789062 2.65679687 -5.95703125 3.02734375 C-8 4 -8 4 -11 5 C-9.96508351 2.17750049 -9.30084735 1.16625774 -6.625 -0.3125 C-3.83346058 -1.04361747 -2.69138789 -0.79596365 0 0 Z " fill="#E5F7E2" transform="translate(564,304)"/>
<path d="M0 0 C1.21236328 0.04060547 1.21236328 0.04060547 2.44921875 0.08203125 C3.06410156 0.11683594 3.67898438 0.15164063 4.3125 0.1875 C1.44950494 3.05049506 -0.34602284 3.18171225 -4.375 3.25 C-5.468125 3.229375 -6.56125 3.20875 -7.6875 3.1875 C-5.26849268 0.20484049 -3.789448 -0.16475861 0 0 Z " fill="#67428D" transform="translate(641.6875,486.8125)"/>
<path d="M0 0 C0.33 0 0.66 0 1 0 C1 2.64 1 5.28 1 8 C0.34 8 -0.32 8 -1 8 C-1.33 9.65 -1.66 11.3 -2 13 C-3.45047396 10.09905209 -2.45356803 8.44027404 -1.5625 5.375 C-1.27503906 4.37210937 -0.98757813 3.36921875 -0.69140625 2.3359375 C-0.46324219 1.56507813 -0.23507812 0.79421875 0 0 Z " fill="#7FA05F" transform="translate(689,370)"/>
<path d="M0 0 C1.98 0.99 3.96 1.98 6 3 C5.01 4.485 5.01 4.485 4 6 C2.02 4.68 0.04 3.36 -2 2 C-1.34 1.34 -0.68 0.68 0 0 Z " fill="#115E13" transform="translate(530,298)"/>
<path d="M0 0 C3.55780196 0.60990891 6.6828589 1.5783681 10 3 C8.02 3.99 8.02 3.99 6 5 C3.98079663 3.69593116 1.98075027 2.36176581 0 1 C0 0.67 0 0.34 0 0 Z " fill="#EBD9F4" transform="translate(554,546)"/>
<path d="M0 0 C0.66 0.33 1.32 0.66 2 1 C2.33 1.99 2.66 2.98 3 4 C1.68 4.99 0.36 5.98 -1 7 C-1.625 5.1875 -1.625 5.1875 -2 3 C-1.34 2.01 -0.68 1.02 0 0 Z " fill="#7242A7" transform="translate(478,495)"/>
<path d="M0 0 C-0.33 0.99 -0.66 1.98 -1 3 C-3.0625 3.6875 -3.0625 3.6875 -5 4 C-4.34 5.65 -3.68 7.3 -3 9 C-3.99 8.34 -4.98 7.68 -6 7 C-5.6875 4.625 -5.6875 4.625 -5 2 C-2 0 -2 0 0 0 Z " fill="#7DB350" transform="translate(673,403)"/>
<path d="M0 0 C0.66 0 1.32 0 2 0 C2.33 0.66 2.66 1.32 3 2 C6.02934491 2.65772428 6.02934491 2.65772428 9 3 C9 3.33 9 3.66 9 4 C5.7 4 2.4 4 -1 4 C-0.67 2.68 -0.34 1.36 0 0 Z " fill="#79BD43" transform="translate(436,348)"/>
<path d="M0 0 C0.66 0 1.32 0 2 0 C2 0.66 2 1.32 2 2 C2.61875 2.268125 3.2375 2.53625 3.875 2.8125 C6 4 6 4 8 7 C7.01 7 6.02 7 5 7 C0 1.53488372 0 1.53488372 0 0 Z " fill="#68B83C" transform="translate(511,279)"/>
<path d="M0 0 C0.99 0.495 0.99 0.495 2 1 C2 1.99 2 2.98 2 4 C2.99 4.33 3.98 4.66 5 5 C4.67 6.32 4.34 7.64 4 9 C0 4.5 0 4.5 0 0 Z " fill="#5C5578" transform="translate(681,332)"/>
<path d="M0 0 C2.97 0.33 5.94 0.66 9 1 C5.23312136 2.88343932 3.97041037 3.22057835 0 3 C0 2.01 0 1.02 0 0 Z " fill="#684094" transform="translate(646,309)"/>
</svg>
