<?xml version="1.0" encoding="UTF-8"?>
<svg version="1.1" xmlns="http://www.w3.org/2000/svg" width="1024" height="768">
<path d="M0 0 C337.92 0 675.84 0 1024 0 C1024 253.44 1024 506.88 1024 768 C686.08 768 348.16 768 0 768 C0 514.56 0 261.12 0 0 Z " fill="#FEFEFE" transform="translate(0,0)"/>
<path d="M0 0 C0.99 0 1.98 0 3 0 C2.30374224 6.52935056 1.04696709 12.84268401 -0.375 19.25 C-0.58382812 20.21035156 -0.79265625 21.17070312 -1.0078125 22.16015625 C-2.04777529 26.89705993 -3.14358286 31.61071276 -4.34765625 36.30859375 C-7.07902106 47.10942129 -9.35267836 58.02454219 -11.74145508 68.9050293 C-12.40004431 71.90193209 -13.06124415 74.8982504 -13.72265625 77.89453125 C-13.92166031 78.80507767 -14.12066437 79.71562408 -14.32569885 80.65376282 C-15.39474558 85.49250917 -16.58030404 90.25191919 -18 95 C-17.32195312 94.9278125 -16.64390625 94.855625 -15.9453125 94.78125 C-15.01460937 94.6884375 -14.08390625 94.595625 -13.125 94.5 C-12.22007812 94.4071875 -11.31515625 94.314375 -10.3828125 94.21875 C-5.91856828 93.93006908 -1.47180731 93.96014235 3 94 C5.03077422 100.65766641 7.02354822 107.32601806 9 114 C9.30454102 115.02125977 9.60908203 116.04251953 9.92285156 117.09472656 C10.85760675 120.24694516 11.7743667 123.40395695 12.6875 126.5625 C12.97246338 127.51632568 13.25742676 128.47015137 13.55102539 129.45288086 C18.61401781 147.18001031 19.44307823 164.62191123 19.40405273 182.95996094 C19.40976833 185.4113038 19.41673714 187.862644 19.42485046 190.3139801 C19.44081889 196.23270975 19.44291121 202.15134104 19.43763756 208.07008067 C19.43356836 212.88548915 19.43507168 217.70086646 19.44038582 222.5162735 C19.44113424 223.20598402 19.44188266 223.89569454 19.44265376 224.60630538 C19.44418548 226.00811727 19.44572383 227.40992915 19.44726873 228.81174102 C19.4609367 241.90062848 19.45559487 254.98945584 19.44408352 268.07834187 C19.43414147 280.02043415 19.44711872 291.9623717 19.47101771 303.90444013 C19.49546454 316.21435521 19.50500387 328.52419837 19.49836498 340.8341372 C19.49488715 347.7263415 19.49701005 354.61842674 19.51461601 361.51061249 C19.53096134 367.98854968 19.52607015 374.46626456 19.50731087 380.9441967 C19.50364069 383.311596 19.5066872 385.67901744 19.51719666 388.04639626 C19.59221562 406.35171851 18.82843193 423.74618674 6 438 C10.90543958 437.55405095 14.52030863 435.36472359 18 432 C27.01707397 419.83312621 27.12813955 406.71371076 27.28125 392.14453125 C27.29918229 390.73400948 27.31746896 389.32349217 27.33607483 387.91297913 C27.38593963 384.03328536 27.42988157 380.15354466 27.47252274 376.27376556 C27.50967358 372.94599282 27.54986242 369.61825903 27.58987904 366.29051971 C27.72608309 354.92227338 27.84819043 343.55389 27.96675873 332.18544769 C28.00087096 328.91653758 28.03524978 325.64763033 28.06964111 322.37872314 C28.3652019 294.19444133 28.63201205 266.01004154 28.84944153 237.82504272 C28.93059831 227.33274817 29.01805182 216.84068789 29.13335514 206.34870911 C29.20097138 200.11985038 29.24887094 193.89103798 29.28610229 187.66192627 C29.30323571 185.32572121 29.3271862 182.98955248 29.35916138 180.65350342 C29.64346993 159.37811278 26.60533385 139.74521504 19.5 119.6875 C19.02061254 118.28762996 18.54275086 116.8872365 18.06640625 115.48632812 C15.80426434 108.88286976 13.42855535 102.34966182 10.68164062 95.92895508 C10 94 10 94 10 91 C12.97 90.01 15.94 89.02 19 88 C19.41511841 89.04957886 19.41511841 89.04957886 19.83862305 90.12036133 C21.11873466 93.35221022 22.40309399 96.58235552 23.6875 99.8125 C24.12255859 100.91271484 24.55761719 102.01292969 25.00585938 103.14648438 C27.10425838 108.41579743 29.25527874 113.63295273 31.63671875 118.78125 C33.73889429 123.34430729 35.54084772 127.92176813 37.125 132.6875 C37.36347656 133.36232422 37.60195313 134.03714844 37.84765625 134.73242188 C42.39550038 148.28991397 43.44273327 161.64323104 43.328125 175.80078125 C43.32542746 177.49790296 43.32398179 179.19502705 43.32368469 180.89215088 C43.31881382 185.42312201 43.29468072 189.95379279 43.26610184 194.48466873 C43.24430221 198.3131559 43.23376041 202.14164413 43.22300434 205.97017574 C43.14871717 231.76382145 42.89771841 257.5548016 42.42016602 283.34423828 C42.37050365 286.06020822 42.32163142 288.77619111 42.2734375 291.4921875 C42.26119833 292.18070423 42.24895916 292.86922096 42.23634911 293.57860184 C42.01186713 306.5190606 41.93170255 319.45915067 41.86899757 332.40128517 C41.8340764 339.24934612 41.78919788 346.09735251 41.74531841 352.94536114 C41.70355611 359.69351628 41.67870711 366.44147105 41.66588211 373.18973923 C41.65366012 377.42841558 41.62503265 381.66687457 41.59231186 385.90543747 C41.58045586 387.87948067 41.57532884 389.85357838 41.57767105 391.82765579 C41.59343075 410.08312974 39.85074056 427.31971927 26.84765625 441.2890625 C21.78897818 445.97341978 15.47688368 447.60822382 9 449.625 C8.35498535 449.8314917 7.7099707 450.0379834 7.04541016 450.25073242 C-6.05415664 454.09867153 -19.82807612 454.37830304 -33.375 454.3125 C-34.13903137 454.31100952 -34.90306274 454.30951904 -35.69024658 454.3079834 C-47.03466074 454.26825853 -57.95980499 453.77801003 -69 451 C-70.18851562 450.7215625 -71.37703125 450.443125 -72.6015625 450.15625 C-83.51991815 447.24468849 -92.16535084 441.82871499 -98 432 C-103.7094712 421.5943426 -105.43818511 410.40198343 -105.52416992 398.67456055 C-105.54409248 397.49609778 -105.56401505 396.31763502 -105.58454132 395.10346127 C-105.63605824 391.8761769 -105.67495271 388.6490476 -105.70793891 385.42153025 C-105.74643568 381.94464518 -105.80104837 378.46800411 -105.85322571 374.99130249 C-105.96306632 367.45506426 -106.05119228 359.91866838 -106.13473511 352.38209915 C-106.18693464 347.68591002 -106.24417342 342.98979032 -106.30224609 338.29367065 C-106.54906344 318.21651523 -106.75374447 298.13913216 -106.93506634 278.06128579 C-106.98391225 272.67929451 -107.03618294 267.29734501 -107.09039307 261.91540527 C-107.25783315 245.20031997 -107.38904024 228.48571262 -107.46133423 211.76992798 C-107.48407668 206.66572371 -107.52007173 201.56188633 -107.56771851 196.45785522 C-107.62249302 190.46742324 -107.64689233 184.47760222 -107.64833641 178.48692703 C-107.6534826 176.323534 -107.6685587 174.16013395 -107.69518471 171.99689865 C-107.92746734 152.10018048 -103.70382421 133.91328538 -94.5390625 116.171875 C-92.79616266 112.57990883 -91.42046897 108.93731569 -90.0625 105.1875 C-87.91486221 99.34957392 -85.6211868 93.64563311 -83 88 C-80.4569019 88.43595967 -78.1886848 88.91879815 -75.8125 89.94140625 C-72.33476937 91.25038542 -68.83456822 91.93085227 -65.1875 92.5625 C-64.45281494 92.69180908 -63.71812988 92.82111816 -62.96118164 92.9543457 C-55.33886114 94.22486793 -47.71343743 94.69893717 -40 95 C-39.86803223 93.99976807 -39.73606445 92.99953613 -39.60009766 91.96899414 C-39.04593161 88.10068235 -38.24857943 84.31117168 -37.3984375 80.49609375 C-37.24124237 79.7881517 -37.08404724 79.08020966 -36.92208862 78.35081482 C-36.40923494 76.04573203 -35.89228523 73.741592 -35.375 71.4375 C-35.01523745 69.82634849 -34.6555377 68.21518295 -34.29589844 66.60400391 C-31.72421281 55.10958272 -29.07568181 43.63414769 -26.37792969 32.16870117 C-24.56876483 24.47553829 -22.80750582 16.77448112 -21.15332031 9.04638672 C-20.10446438 4.20892877 -20.10446438 4.20892877 -19 2 C-18.34 2 -17.68 2 -17 2 C-18.25339615 12.40369967 -20.37785571 22.35748271 -22.9375 32.5 C-23.63733659 35.30128766 -24.33335272 38.10350877 -25.02734375 40.90625 C-25.282276 41.93451401 -25.282276 41.93451401 -25.5423584 42.98355103 C-27.17670414 49.62483537 -28.6024872 56.30518065 -30 63 C-30.52224017 65.45077628 -31.04569384 67.90129426 -31.5703125 70.3515625 C-31.82683594 71.55167969 -32.08335937 72.75179687 -32.34765625 73.98828125 C-32.60417969 75.18839844 -32.86070312 76.38851562 -33.125 77.625 C-33.38925781 78.86378906 -33.65351562 80.10257812 -33.92578125 81.37890625 C-34.17972656 82.56613281 -34.43367187 83.75335938 -34.6953125 84.9765625 C-34.92234863 86.03955566 -35.14938477 87.10254883 -35.38330078 88.19775391 C-35.88493745 90.47716234 -36.41754537 92.74018479 -37 95 C-36.01 95 -35.02 95 -34 95 C-33.90203125 94.3915625 -33.8040625 93.783125 -33.703125 93.15625 C-32.06983207 83.5817742 -29.61501878 74.22935813 -27.1796875 64.8359375 C-25.86799597 59.71343691 -24.70186911 54.59475829 -23.69921875 49.40234375 C-21.97657606 40.64694568 -19.99305713 31.95406317 -17.98339844 23.26074219 C-17.36485387 20.5810443 -16.75263723 17.89994645 -16.140625 15.21875 C-15.74777408 13.51293368 -15.35455917 11.80720113 -14.9609375 10.1015625 C-14.68750015 8.90027206 -14.68750015 8.90027206 -14.40853882 7.67471313 C-13.11455617 2.11455617 -13.11455617 2.11455617 -12 1 C-10.31391034 0.92794489 -8.62499341 0.91613932 -6.9375 0.9375 C-6.01839844 0.94652344 -5.09929687 0.95554688 -4.15234375 0.96484375 C-3.44207031 0.97644531 -2.73179687 0.98804688 -2 1 C-2.90042579 7.91906133 -4.0798715 14.6082154 -5.83203125 21.36328125 C-7.86904572 29.33934646 -9.6764222 37.35607216 -11.43600464 45.39724731 C-13.86057732 56.46990029 -16.30824246 67.53635632 -18.9375 78.5625 C-19.13657959 79.39934326 -19.33565918 80.23618652 -19.54077148 81.09838867 C-20.26572499 84.10941167 -21.0201081 87.06032431 -22 90 C-22.03954234 92.33299825 -22.04401732 94.66708189 -22 97 C-18.24852202 81.14625752 -14.58906553 65.27978817 -11.13885498 49.35742188 C-7.56467575 32.87332977 -3.78716426 16.43626322 0 0 Z " fill="#FDA305" transform="translate(547,240)"/>
<path d="M0 0 C3.41021743 0.78697325 6.68885166 1.87119943 10 3 C9.40459938 10.74804229 7.42703779 17.37823692 4.87890625 24.68554688 C3.84480121 27.77205691 2.90976443 30.8743486 2 34 C1.78615662 34.71754456 1.57231323 35.43508911 1.35198975 36.17437744 C-3.33504699 52.37060553 -3.65716073 68.16111455 -3.4038353 84.902565 C-3.35459517 88.48421619 -3.33349772 92.06606612 -3.30786133 95.64794922 C-3.25286762 102.57846357 -3.16167321 109.50797504 -3.05462646 116.43786621 C-3.00745975 119.51355757 -2.96604527 122.58922213 -2.92822266 125.66503906 C-2.78816712 136.45084965 -2.45230186 147.22296586 -2 158 C-1.95617187 159.04518799 -1.91234375 160.09037598 -1.8671875 161.16723633 C-0.5785318 191.5268327 1.02968355 221.86940124 2.87600327 252.19989777 C2.99756344 254.20971508 3.11643922 256.21969417 3.23526001 258.22967529 C4.03358437 271.64063783 4.9898214 285.00767813 6.5 298.359375 C6.61851318 299.41803772 6.73702637 300.47670044 6.85913086 301.56744385 C8.40563387 314.51035117 11.71769639 324.81320947 20 335 C20.78375 335.99 21.5675 336.98 22.375 338 C22.91125 338.66 23.4475 339.32 24 340 C13.72029551 340.71580147 5.30989324 339.06330487 -2.8125 332.4375 C-13.9293079 321.67865729 -16.30736129 307.46101185 -16.56835938 292.60798645 C-16.5874144 291.02381598 -16.60628852 289.43964332 -16.625 287.85546875 C-16.65558162 286.15233481 -16.6875227 284.44922482 -16.72070312 282.74613953 C-16.78997942 279.08635564 -16.85144198 275.42655444 -16.90722656 271.76654053 C-16.99843076 265.89809729 -17.11763152 260.03041618 -17.2421875 254.16259766 C-17.41787366 245.83312491 -17.5878751 237.50357653 -17.75 229.17382812 C-17.77061493 228.11513079 -17.79122986 227.05643345 -17.81246948 225.96565437 C-17.85418406 223.82062985 -17.89586085 221.6756046 -17.9375 219.53057861 C-18.10300528 211.00883435 -18.26980718 202.48711563 -18.43768883 193.96541786 C-18.47917018 191.85867841 -18.52054343 189.75193682 -18.56180763 187.6451931 C-18.83713071 173.61303003 -19.14482872 159.58196916 -19.47713661 145.55104828 C-19.87383134 128.71942246 -20.23740452 111.890843 -20.29516602 95.05395508 C-20.30692674 92.6850804 -20.32773426 90.31623667 -20.35668945 87.94750977 C-20.59037867 68.5199725 -19.437114 49.98978819 -12.1875 31.75 C-11.84710693 30.8523291 -11.50671387 29.9546582 -11.15600586 29.02978516 C-8.61879189 22.39742912 -5.94800949 15.81185727 -3.1706543 9.27636719 C-1.87367716 6.21840982 -0.65474106 3.26541746 0 0 Z " fill="#FDFBF1" transform="translate(469,336)"/>
<path d="M0 0 C2.90697546 2.14731695 4.37842661 5.17572881 6.07739258 8.28735352 C6.4409082 8.92092773 6.80442383 9.55450195 7.17895508 10.20727539 C8.80446045 13.11301901 9.82739258 14.96980939 9.82739258 18.34985352 C9.14862061 18.72682373 8.46984863 19.10379395 7.77050781 19.4921875 C-9.47542562 29.07976999 -9.47542562 29.07976999 -26.46166992 39.11547852 C-31.89277552 42.40980523 -37.41118889 45.55656855 -42.91821289 48.72167969 C-43.68794434 49.16487549 -44.45767578 49.60807129 -45.25073242 50.06469727 C-45.93554688 50.45778076 -46.62036133 50.85086426 -47.32592773 51.25585938 C-50.75391867 53.06603196 -50.75391867 53.06603196 -52.88609314 56.11514282 C-53.04501541 56.8263327 -53.20393768 57.53752258 -53.36767578 58.27026367 C-53.64828102 59.48391098 -53.64828102 59.48391098 -53.93455505 60.72207642 C-54.12526077 61.60213348 -54.31596649 62.48219055 -54.51245117 63.38891602 C-54.72068008 64.30256927 -54.928909 65.21622253 -55.14344788 66.15756226 C-55.81034516 69.09423196 -56.46068549 72.03427488 -57.11010742 74.97485352 C-57.75746567 77.85565823 -58.40822516 80.73568012 -59.05923462 83.61566162 C-59.48510193 85.50051243 -59.9097312 87.3856434 -60.33309937 89.27105713 C-64.88966702 109.5010323 -64.88966702 109.5010323 -67.17260742 116.34985352 C-67.83260742 116.34985352 -68.49260742 116.34985352 -69.17260742 116.34985352 C-68.50268719 109.65065119 -67.12684641 103.18246117 -65.67016602 96.61401367 C-65.1050346 94.0423607 -64.55429862 91.46782584 -64.00463867 88.89282227 C-56.30095032 52.89826125 -56.30095032 52.89826125 -52.54370117 50.16479492 C-51.58657227 49.68792236 -51.58657227 49.68792236 -50.61010742 49.20141602 C-49.90112305 48.83927002 -49.19213867 48.47712402 -48.46166992 48.10400391 C-47.7062793 47.73138428 -46.95088867 47.35876465 -46.17260742 46.97485352 C-44.60909403 46.17605271 -43.04658605 45.37528081 -41.48510742 44.57250977 C-40.73358398 44.18853027 -39.98206055 43.80455078 -39.20776367 43.40893555 C-36.00768404 41.74363499 -32.94361928 39.88621819 -29.87182617 37.99829102 C-26.26975407 35.79847274 -22.62671501 33.67089002 -18.98510742 31.53735352 C-11.01591203 26.86053714 -3.08677042 22.11908712 4.82739258 17.34985352 C0.15349478 18.71454682 -3.75817002 20.72273489 -7.86010742 23.28735352 C-9.18476601 24.09865886 -10.51033195 24.90848407 -11.83666992 25.71704102 C-12.53695312 26.1446875 -13.23723633 26.57233398 -13.95874023 27.01293945 C-17.85375713 29.36506919 -21.79428046 31.63808476 -25.73510742 33.91235352 C-26.53746826 34.37577148 -27.3398291 34.83918945 -28.16650391 35.31665039 C-48.71013307 47.16689595 -48.71013307 47.16689595 -51.00610352 48.07519531 C-54.08883619 49.42252655 -55.76160099 50.46531727 -57.20776367 53.57763672 C-58.05509065 56.46397599 -58.70185074 59.33879632 -59.29760742 62.28735352 C-59.53785645 63.35622803 -59.77810547 64.42510254 -60.02563477 65.52636719 C-60.52049273 67.73104587 -61.00434493 69.93822305 -61.47729492 72.14770508 C-62.30845039 75.97545617 -63.23163394 79.77612374 -64.16552734 83.57983398 C-66.74481007 94.11813166 -68.99838285 104.72166077 -71.17260742 115.34985352 C-78.60117885 115.49271066 -78.60117885 115.49271066 -82.17260742 114.34985352 C-81.93026367 113.3430957 -81.68791992 112.33633789 -81.43823242 111.29907227 C-79.83211729 104.57691261 -78.24900638 97.8555065 -76.86914062 91.08276367 C-76.39698222 88.78780017 -75.90011277 86.49892715 -75.40307617 84.20922852 C-74.69398429 80.91961473 -74.03243111 77.62628172 -73.42504883 74.31665039 C-72.72856323 70.52275632 -71.97556721 66.74302528 -71.19519043 62.96554565 C-70.89187209 61.44712311 -70.60761059 59.92475151 -70.34387207 58.3989563 C-68.22218552 46.22669137 -68.22218552 46.22669137 -63.35986328 41.77416992 C-60.04397875 39.7186979 -56.70055264 38.01082506 -53.17260742 36.34985352 C-51.36763611 35.30256341 -49.57361086 34.23606755 -47.79370117 33.14672852 C-46.06642419 32.13010451 -44.33855042 31.11449383 -42.61010742 30.09985352 C-35.1568072 25.70932315 -27.71615289 21.29888615 -20.29760742 16.84985352 C-19.49637451 16.37 -18.6951416 15.89014648 -17.86962891 15.39575195 C-13.46419151 12.75035163 -9.10461782 10.05289696 -4.79711914 7.25024414 C-3.17260742 6.34985352 -3.17260742 6.34985352 -1.17260742 6.34985352 C-1.66760742 4.86485352 -1.66760742 4.86485352 -2.17260742 3.34985352 C-2.77508301 3.69129395 -3.37755859 4.03273438 -3.99829102 4.38452148 C-15.69583443 11.01142736 -27.40376576 17.61743409 -39.16479492 24.13110352 C-39.81649658 24.49236328 -40.46819824 24.85362305 -41.13964844 25.22583008 C-42.57083368 26.01713269 -44.0037792 26.80525575 -45.43798828 27.59106445 C-51.18670619 30.75349543 -56.71698837 34.15822946 -62.25463867 37.67797852 C-64.73721503 39.10039174 -66.44513059 39.75636628 -69.17260742 40.34985352 C-69.27283203 40.90745361 -69.37305664 41.46505371 -69.47631836 42.03955078 C-71.35647697 52.41559617 -73.39698485 62.61182403 -76.24682617 72.76782227 C-77.20822618 76.48766955 -77.89695922 80.18891805 -78.54760742 83.97485352 C-80.26801812 93.97615756 -83.25487353 103.64389353 -86.17260742 113.34985352 C-86.83260742 113.34985352 -87.49260742 113.34985352 -88.17260742 113.34985352 C-87.54553548 107.73154225 -86.61140796 102.29798293 -85.36010742 96.78735352 C-85.20735352 96.09061523 -85.05459961 95.39387695 -84.8972168 94.67602539 C-83.81268064 89.8363364 -82.55874083 85.05689642 -81.25463867 80.27172852 C-79.8124248 74.95778684 -78.53391126 69.63059437 -77.39135742 64.24438477 C-77.1773101 63.24464882 -77.1773101 63.24464882 -76.9589386 62.22471619 C-76.37894117 59.50897582 -75.80152153 56.79300133 -75.24536133 54.07226562 C-74.82837009 52.0431777 -74.39272845 50.01883657 -73.95385742 47.99438477 C-73.58357422 46.22091675 -73.58357422 46.22091675 -73.20581055 44.41162109 C-71.49535022 39.34288694 -68.08984437 37.08741839 -63.61010742 34.47485352 C-62.71807617 33.95407227 -61.82604492 33.43329102 -60.90698242 32.89672852 C-57.48427804 30.96045575 -54.03023727 29.0871366 -50.57104492 27.21704102 C-46.1830773 24.80618064 -41.83311089 22.33189915 -37.48510742 19.84985352 C-36.15914551 19.09623535 -36.15914551 19.09623535 -34.80639648 18.32739258 C-29.70174778 15.41379676 -24.64309215 12.43774733 -19.61791992 9.38891602 C-17.99116333 8.41148438 -17.99116333 8.41148438 -16.33154297 7.41430664 C-14.21035376 6.13725267 -12.0969452 4.84717053 -9.9921875 3.54321289 C-9.02949951 2.96635742 -8.06681152 2.38950195 -7.07495117 1.79516602 C-5.79865845 1.01423584 -5.79865845 1.01423584 -4.49658203 0.2175293 C-2.17260742 -0.65014648 -2.17260742 -0.65014648 0 0 Z " fill="#12970C" transform="translate(622.172607421875,98.650146484375)"/>
<path d="M0 0 C0.99 0 1.98 0 3 0 C2.30374224 6.52935056 1.04696709 12.84268401 -0.375 19.25 C-0.58382812 20.21035156 -0.79265625 21.17070312 -1.0078125 22.16015625 C-2.04918945 26.90350125 -3.14663469 31.62365299 -4.3515625 36.328125 C-6.79645248 45.99776692 -8.85753799 55.75996562 -11 65.5 C-18.47281373 99.47281373 -18.47281373 99.47281373 -20 101 C-26.59054292 101.58582604 -32.71588692 99.9129871 -39 98 C-39.33 97.67 -39.66 97.34 -40 97 C-39.47707868 88.27496093 -37.30410044 79.81097551 -35.375 71.3125 C-35.01501492 69.71051314 -34.65531829 68.10846143 -34.29589844 66.50634766 C-31.71815942 55.04599895 -29.06803572 43.60266976 -26.37792969 32.16821289 C-24.56856636 24.47525922 -22.80747244 16.77432517 -21.15332031 9.04638672 C-20.10446438 4.20892877 -20.10446438 4.20892877 -19 2 C-18.34 2 -17.68 2 -17 2 C-18.25339615 12.40369967 -20.37785571 22.35748271 -22.9375 32.5 C-23.63733659 35.30128766 -24.33335272 38.10350877 -25.02734375 40.90625 C-25.19729858 41.59175934 -25.36725342 42.27726868 -25.5423584 42.98355103 C-27.17670414 49.62483537 -28.6024872 56.30518065 -30 63 C-30.52224017 65.45077628 -31.04569384 67.90129426 -31.5703125 70.3515625 C-31.82683594 71.55167969 -32.08335937 72.75179687 -32.34765625 73.98828125 C-32.60417969 75.18839844 -32.86070312 76.38851562 -33.125 77.625 C-33.38925781 78.86378906 -33.65351562 80.10257812 -33.92578125 81.37890625 C-34.17972656 82.56613281 -34.43367187 83.75335938 -34.6953125 84.9765625 C-34.92234863 86.03955566 -35.14938477 87.10254883 -35.38330078 88.19775391 C-35.88493745 90.47716234 -36.41754537 92.74018479 -37 95 C-36.01 95 -35.02 95 -34 95 C-33.90203125 94.3915625 -33.8040625 93.783125 -33.703125 93.15625 C-32.06983207 83.5817742 -29.61501878 74.22935813 -27.1796875 64.8359375 C-25.86799597 59.71343691 -24.70186911 54.59475829 -23.69921875 49.40234375 C-21.97657606 40.64694568 -19.99305713 31.95406317 -17.98339844 23.26074219 C-17.36485387 20.5810443 -16.75263723 17.89994645 -16.140625 15.21875 C-15.74777408 13.51293368 -15.35455917 11.80720113 -14.9609375 10.1015625 C-14.77864594 9.30070221 -14.59635437 8.49984192 -14.40853882 7.67471313 C-13.11455617 2.11455617 -13.11455617 2.11455617 -12 1 C-10.31391034 0.92794489 -8.62499341 0.91613932 -6.9375 0.9375 C-6.01839844 0.94652344 -5.09929688 0.95554688 -4.15234375 0.96484375 C-3.44207031 0.97644531 -2.73179687 0.98804688 -2 1 C-2.90042579 7.91906133 -4.0798715 14.6082154 -5.83203125 21.36328125 C-7.86904572 29.33934646 -9.6764222 37.35607216 -11.43600464 45.39724731 C-13.86057732 56.46990029 -16.30824246 67.53635632 -18.9375 78.5625 C-19.13657959 79.39934326 -19.33565918 80.23618652 -19.54077148 81.09838867 C-20.26572499 84.10941167 -21.0201081 87.06032431 -22 90 C-22.03954234 92.33299825 -22.04401732 94.66708189 -22 97 C-18.24852202 81.14625752 -14.58906553 65.27978817 -11.13885498 49.35742188 C-7.56467575 32.87332977 -3.78716426 16.43626322 0 0 Z " fill="#13980D" transform="translate(547,240)"/>
<path d="M0 0 C0.495 1.98 0.495 1.98 1 4 C0.00484375 4.58265625 -0.9903125 5.1653125 -2.015625 5.765625 C-9.9310192 10.40720831 -17.8247113 15.08230268 -25.6875 19.8125 C-35.66857262 25.81685407 -45.6942883 31.74439616 -55.73022461 37.65649414 C-56.47925049 38.09985107 -57.22827637 38.54320801 -58 39 C-59.31025146 39.58285767 -59.31025146 39.58285767 -60.64697266 40.17749023 C-64.02357789 42.79280027 -64.43775351 45.8766448 -65.24609375 49.875 C-65.42269531 50.66425369 -65.59929688 51.45350739 -65.78125 52.26667786 C-66.35250907 54.84066093 -66.8948632 57.41984648 -67.4375 60 C-67.82555849 61.76826167 -68.21562452 63.53608393 -68.60766602 65.3034668 C-69.58025062 69.70834704 -70.53067709 74.11761594 -71.47216797 78.52923584 C-72.52428477 83.45415956 -73.59329527 88.37535637 -74.67016602 93.29492188 C-75.17192074 95.59504346 -75.66496627 97.89708666 -76.14819336 100.20117188 C-76.36612549 101.21373047 -76.58405762 102.22628906 -76.80859375 103.26953125 C-76.99220459 104.14198486 -77.17581543 105.01443848 -77.36499023 105.91333008 C-78 108 -78 108 -80 110 C-80.99 109.67 -81.98 109.34 -83 109 C-83.495 109.99 -83.495 109.99 -84 111 C-82.9126898 104.11847095 -81.36965088 97.45531791 -79.52783203 90.73730469 C-78.1364403 85.61892517 -76.9979853 80.48030225 -75.91796875 75.2890625 C-74.66798381 69.36309841 -73.29567527 63.46439632 -71.9375 57.5625 C-71.67984863 56.43610107 -71.42219727 55.30970215 -71.15673828 54.14916992 C-70.45237775 51.09580121 -69.72719101 48.0479906 -69 45 C-68.84047852 44.25814453 -68.68095703 43.51628906 -68.51660156 42.75195312 C-67.85150032 39.93591742 -67.3541529 38.30125039 -65.1171875 36.3984375 C-64.37726562 36.06070313 -63.63734375 35.72296875 -62.875 35.375 C-62.06546875 34.97925781 -61.2559375 34.58351562 -60.421875 34.17578125 C-59.62265625 33.78777344 -58.8234375 33.39976562 -58 33 C-56.69627802 32.20698801 -55.40394963 31.39487424 -54.125 30.5625 C-51.15292277 28.67424725 -48.12584365 26.94956387 -45.02734375 25.27734375 C-38.80335171 21.89997972 -32.6170731 18.45784298 -26.4375 15 C-25.37853516 14.40960938 -24.31957031 13.81921875 -23.22851562 13.2109375 C-17.47121709 9.98997196 -11.76937531 6.70329304 -6.14086914 3.26171875 C-4.13132718 2.07739752 -2.09918327 1.01518612 0 0 Z " fill="#B4F1A3" transform="translate(620,101)"/>
<path d="M0 0 C2.13086944 3.88804057 2.24781526 6.7310143 2.24291992 11.19360352 C2.24479278 11.91718017 2.24666563 12.64075682 2.24859524 13.38626003 C2.25225415 15.80058117 2.24146791 18.21461069 2.23046875 20.62890625 C2.22965341 22.34318015 2.22961954 24.05745457 2.23031616 25.77172852 C2.22926214 30.40143887 2.21490289 35.03101997 2.19743729 39.66069412 C2.18745644 42.5752193 2.18120108 45.48972857 2.17623901 48.40426636 C2.12997667 75.38699393 1.91923444 102.36287911 1.41992188 129.34130859 C1.37031915 132.05825475 1.32154884 134.77521454 1.2734375 137.4921875 C1.26120399 138.18077221 1.24897049 138.86935692 1.23636627 139.57880783 C1.01187145 152.51919814 0.93170222 165.45921883 0.86899757 178.40128517 C0.8340764 185.24934612 0.78919788 192.09735251 0.74531841 198.94536114 C0.70355611 205.69351628 0.67870711 212.44147105 0.66588211 219.18973923 C0.65366012 223.42841558 0.62503265 227.66687457 0.59231186 231.90543747 C0.58045586 233.87948067 0.57532884 235.85357838 0.57767105 237.82765579 C0.59349905 256.16225529 -1.23100019 273.13743113 -14.09375 287.26953125 C-17.33132607 290.20856035 -21.50262113 293 -26 293 C-26 292.34 -26 291.68 -26 291 C-25.360625 290.87625 -24.72125 290.7525 -24.0625 290.625 C-23.381875 290.41875 -22.70125 290.2125 -22 290 C-21.67 289.34 -21.34 288.68 -21 288 C-19.02111039 287.27306096 -17.02045442 286.60183749 -15 286 C-15 285.34 -15 284.68 -15 284 C-14.34 284 -13.68 284 -13 284 C-11.47700477 281.06279492 -10.19899698 278.0831351 -9 275 C-8.34 275 -7.68 275 -7 275 C-6.80083984 273.82630859 -6.80083984 273.82630859 -6.59765625 272.62890625 C-6.42105469 271.61699219 -6.24445312 270.60507812 -6.0625 269.5625 C-5.80146484 268.04849609 -5.80146484 268.04849609 -5.53515625 266.50390625 C-5 264 -5 264 -4 263 C-3.76665025 259.94014741 -3.59635092 256.90034414 -3.4705658 253.83544922 C-3.42912978 252.89266554 -3.38769377 251.94988186 -3.34500211 250.97852898 C-2.90560908 240.53325445 -2.67096485 230.08496053 -2.47094727 219.6328125 C-2.45045543 218.60715305 -2.42996359 217.58149361 -2.40885079 216.52475357 C-1.9661806 194.33755168 -1.70751625 172.14926775 -1.49474788 149.95884705 C-1.44326744 144.64995436 -1.38874814 139.34109269 -1.33460999 134.03222656 C-1.23342766 124.06779165 -1.13480946 114.10333325 -1.03721577 104.13886261 C-0.92560777 92.75705019 -0.81098401 81.37526868 -0.69616115 69.99348831 C-0.46085438 46.66235747 -0.22915859 23.33119198 0 0 Z " fill="#EFAE38" transform="translate(588,394)"/>
<path d="M0 0 C0.33 0 0.66 0 1 0 C1.90367452 6.16923709 2.14838892 12.15992962 2.14717102 18.39002991 C2.15084771 19.41125346 2.1545244 20.43247702 2.1583125 21.48464674 C2.16929171 24.89349689 2.17318334 28.3023165 2.17700195 31.71118164 C2.18327092 34.16089982 2.18991811 36.61061705 2.19691467 39.06033325 C2.21609274 46.40010655 2.22673469 53.73987174 2.23564246 61.07966271 C2.24003642 64.54398398 2.24540024 68.00830374 2.25063133 71.47262383 C2.26763424 83.00137165 2.28212677 94.53011857 2.28938007 106.05887699 C2.29128966 109.04535486 2.29321004 112.03183271 2.29516602 115.01831055 C2.29564976 115.76049619 2.2961335 116.50268183 2.2966319 117.26735794 C2.30492637 129.28126956 2.33025763 141.29508143 2.36274669 153.30894954 C2.39589507 165.66822284 2.41383573 178.02744556 2.41702431 190.38676351 C2.41918194 197.31603693 2.42782069 204.24516476 2.45348549 211.17439461 C2.47759112 217.69730359 2.48096963 224.22002236 2.47072411 230.74296951 C2.47023044 233.12810703 2.47650038 235.51325772 2.49028015 237.89835548 C2.62461035 262.54095618 2.62461035 262.54095618 -2 274 C-2.66 274.66 -3.32 275.32 -4 276 C-3.54177532 272.53058454 -3.10868317 269.32604951 -2 266 C-1.6469857 261.57650464 -1.58077953 257.13478575 -1.45727539 252.69946289 C-1.43652454 251.99155991 -1.4157737 251.28365692 -1.39439404 250.55430233 C-0.74576055 227.91124983 -0.77144223 205.25495757 -0.69667697 182.60452151 C-0.67447342 176.16244684 -0.64725656 169.72039317 -0.62062073 163.27833557 C-0.57673519 152.5062855 -0.53582784 141.73422868 -0.49731445 130.9621582 C-0.45770766 119.8866288 -0.41622503 108.81110892 -0.37231445 97.7355957 C-0.36959018 97.04829561 -0.36686591 96.36099551 -0.36405908 95.65286814 C-0.3503755 92.20351036 -0.33665604 88.75415272 -0.32291877 85.30479515 C-0.20972115 56.86988366 -0.10281522 28.43495082 0 0 Z " fill="#F2B747" transform="translate(564,390)"/>
<path d="M0 0 C0.99 0 1.98 0 3 0 C2.30374224 6.52935056 1.04696709 12.84268401 -0.375 19.25 C-0.58382812 20.21035156 -0.79265625 21.17070312 -1.0078125 22.16015625 C-2.04918945 26.90350125 -3.14663469 31.62365299 -4.3515625 36.328125 C-6.79645248 45.99776692 -8.85753799 55.75996562 -11 65.5 C-18.47281373 99.47281373 -18.47281373 99.47281373 -20 101 C-26.59054292 101.58582604 -32.71588692 99.9129871 -39 98 C-39.33 97.67 -39.66 97.34 -40 97 C-39.47707868 88.27496093 -37.30410044 79.81097551 -35.375 71.3125 C-35.01501492 69.71051314 -34.65531829 68.10846143 -34.29589844 66.50634766 C-31.71815942 55.04599895 -29.06803572 43.60266976 -26.37792969 32.16821289 C-24.56856636 24.47525922 -22.80747244 16.77432517 -21.15332031 9.04638672 C-20.10446438 4.20892877 -20.10446438 4.20892877 -19 2 C-18.34 2 -17.68 2 -17 2 C-18.25339615 12.40369967 -20.37785571 22.35748271 -22.9375 32.5 C-23.63733659 35.30128766 -24.33335272 38.10350877 -25.02734375 40.90625 C-25.19729858 41.59175934 -25.36725342 42.27726868 -25.5423584 42.98355103 C-27.17670414 49.62483537 -28.6024872 56.30518065 -30 63 C-30.52224017 65.45077628 -31.04569384 67.90129426 -31.5703125 70.3515625 C-31.82683594 71.55167969 -32.08335937 72.75179687 -32.34765625 73.98828125 C-32.60417969 75.18839844 -32.86070312 76.38851562 -33.125 77.625 C-33.38925781 78.86378906 -33.65351562 80.10257812 -33.92578125 81.37890625 C-34.17972656 82.56613281 -34.43367187 83.75335938 -34.6953125 84.9765625 C-34.92234863 86.03955566 -35.14938477 87.10254883 -35.38330078 88.19775391 C-35.88493745 90.47716234 -36.41754537 92.74018479 -37 95 C-36.01 95.33 -35.02 95.66 -34 96 C-34.495 96.495 -34.495 96.495 -35 97 C-31.37 97.66 -27.74 98.32 -24 99 C-23.67 97.68 -23.34 96.36 -23 95 C-22.505 95.99 -22.505 95.99 -22 97 C-18.24852202 81.14625752 -14.58906553 65.27978817 -11.13885498 49.35742188 C-7.56467575 32.87332977 -3.78716426 16.43626322 0 0 Z " fill="#479C3A" transform="translate(547,240)"/>
<path d="M0 0 C0.33 0 0.66 0 1 0 C1.01839432 0.94414261 1.03678864 1.88828522 1.05574036 2.86103821 C1.14757306 7.5701244 1.23974683 12.27920389 1.33203125 16.98828125 C1.34983265 17.89677511 1.36763405 18.80526897 1.38597488 19.74129295 C1.61317427 31.32305894 1.84392016 42.90474617 2.08032227 54.48632812 C2.10337276 55.61669432 2.12642324 56.74706051 2.15017223 57.91168022 C2.2960799 65.06666929 2.2960799 65.06666929 2.44225121 72.22165298 C2.77110736 88.32470265 3.08570909 104.4279279 3.38433373 120.53156364 C3.6338802 133.98438267 3.89347979 147.43698121 4.16119289 160.88945103 C4.33203413 169.49433687 4.49441854 178.09930221 4.64638996 186.70454222 C4.7525753 192.6727952 4.86906914 198.64079405 4.99328041 204.60869879 C5.06528627 208.08378012 5.13277669 211.55879558 5.18812943 215.03418541 C5.25120238 218.84478409 5.33146849 222.6546638 5.41577148 226.46484375 C5.42989987 227.56455663 5.44402826 228.6642695 5.45858479 229.79730701 C5.70011804 239.298579 7.77531986 248.07011653 11 257 C10.34 256.67 9.68 256.34 9 256 C9 255.01 9 254.02 9 253 C8.34 253 7.68 253 7 253 C3.18314382 243.07825395 3.26040959 233.11935493 2.9375 222.625 C2.86172832 220.41722817 2.78570845 218.20946484 2.70947266 216.00170898 C2.46864386 208.76183984 2.26284441 201.52115917 2.06327057 194.28006744 C1.99792392 191.92518461 1.93109253 189.57034749 1.86395264 187.21551514 C0.09070155 124.80583999 -0.26444615 62.43207852 0 0 Z " fill="#F0AB33" transform="translate(448,402)"/>
<path d="M0 0 C2.09854373 1.5227961 2.8183138 2.90210775 3.77172852 5.28564453 C2.45172852 4.95564453 1.13172852 4.62564453 -0.22827148 4.28564453 C-0.55827148 4.94564453 -0.88827148 5.60564453 -1.22827148 6.28564453 C-1.72327148 4.80064453 -1.72327148 4.80064453 -2.22827148 3.28564453 C-2.83074707 3.62708496 -3.43322266 3.96852539 -4.05395508 4.3203125 C-15.75149849 10.94721838 -27.45942982 17.5532251 -39.22045898 24.06689453 C-39.87216064 24.4281543 -40.5238623 24.78941406 -41.1953125 25.16162109 C-42.62649774 25.9529237 -44.05944326 26.74104676 -45.49365234 27.52685547 C-51.24237026 30.68928644 -56.77265243 34.09402047 -62.31030273 37.61376953 C-64.79287909 39.03618276 -66.50079465 39.6921573 -69.22827148 40.28564453 C-69.32849609 40.84324463 -69.4287207 41.40084473 -69.53198242 41.9753418 C-71.41214103 52.35138719 -73.45264891 62.54761505 -76.30249023 72.70361328 C-77.26389024 76.42346057 -77.95262328 80.12470906 -78.60327148 83.91064453 C-80.32368218 93.91194858 -83.3105376 103.57968454 -86.22827148 113.28564453 C-86.88827148 113.28564453 -87.54827148 113.28564453 -88.22827148 113.28564453 C-87.60119954 107.66733326 -86.66707202 102.23377395 -85.41577148 96.72314453 C-85.26301758 96.02640625 -85.11026367 95.32966797 -84.95288086 94.61181641 C-83.86834471 89.77212741 -82.61440489 84.99268743 -81.31030273 80.20751953 C-79.86808886 74.89357786 -78.58957532 69.56638538 -77.44702148 64.18017578 C-77.23297417 63.18043983 -77.23297417 63.18043983 -77.01460266 62.1605072 C-76.43460523 59.44476684 -75.85718559 56.72879235 -75.30102539 54.00805664 C-74.88403415 51.97896872 -74.44839252 49.95462758 -74.00952148 47.93017578 C-73.63923828 46.15670776 -73.63923828 46.15670776 -73.26147461 44.34741211 C-71.55101428 39.27867796 -68.14550843 37.02320941 -63.66577148 34.41064453 C-62.77374023 33.88986328 -61.88170898 33.36908203 -60.96264648 32.83251953 C-57.5399421 30.89624677 -54.08590133 29.02292762 -50.62670898 27.15283203 C-46.23874136 24.74197166 -41.88877495 22.26769017 -37.54077148 19.78564453 C-36.21480957 19.03202637 -36.21480957 19.03202637 -34.86206055 18.26318359 C-29.75741185 15.34958778 -24.69875621 12.37353834 -19.67358398 9.32470703 C-18.04682739 8.34727539 -18.04682739 8.34727539 -16.38720703 7.35009766 C-14.26601782 6.07304369 -12.15260927 4.78296154 -10.04785156 3.47900391 C-9.08516357 2.90214844 -8.12247559 2.32529297 -7.13061523 1.73095703 C-5.85432251 0.95002686 -5.85432251 0.95002686 -4.55224609 0.15332031 C-2.22827148 -0.71435547 -2.22827148 -0.71435547 0 0 Z " fill="#318931" transform="translate(622.228271484375,98.71435546875)"/>
<path d="M0 0 C1.32 0 2.64 0 4 0 C3.40294337 5.26926165 2.56909285 10.35154626 1.3984375 15.53125 C1.24115173 16.23285248 1.08386597 16.93445496 0.92181396 17.65731812 C0.40964121 19.93899985 -0.10763175 22.21949129 -0.625 24.5 C-1.35042473 27.72102502 -2.07353843 30.94256801 -2.796875 34.1640625 C-2.98035492 34.9794046 -3.16383484 35.7947467 -3.35287476 36.63479614 C-4.59784817 42.17590961 -5.81619897 47.72229679 -7.015625 53.2734375 C-7.17408905 54.00544373 -7.3325531 54.73744995 -7.49581909 55.49163818 C-8.10402327 58.30246697 -8.71201334 61.11332247 -9.31378174 63.92553711 C-9.72451506 65.84421076 -10.13951406 67.76196973 -10.5546875 69.6796875 C-10.78655762 70.75976074 -11.01842773 71.83983398 -11.25732422 72.95263672 C-12.00980705 76.04024051 -12.96431454 78.99693233 -14 82 C-14.55617398 83.95426271 -15.09848594 85.91253849 -15.625 87.875 C-15.88539063 88.84179688 -16.14578125 89.80859375 -16.4140625 90.8046875 C-16.70410156 91.89136719 -16.70410156 91.89136719 -17 93 C-17.99 93 -18.98 93 -20 93 C-19.49398933 86.92787192 -18.40088585 81.32219175 -16.85083008 75.43432617 C-16.0062152 72.02508729 -15.30592471 68.61640712 -14.640625 65.16796875 C-12.98139841 56.71573462 -11.06456512 48.32904322 -9.125 39.9375 C-8.77190761 38.40264028 -8.4190454 36.86772759 -8.06640625 35.33276367 C-7.36958285 32.30011565 -6.67191276 29.26766451 -5.97363281 26.23535156 C-4.63788071 20.43028228 -3.31774809 14.62167914 -2 8.8125 C-1.79262207 7.89911865 -1.58524414 6.9857373 -1.37158203 6.04467773 C-0.91416288 4.02983626 -0.45703922 2.0149277 0 0 Z " fill="#B2F2A2" transform="translate(530,242)"/>
<path d="M0 0 C2.93325018 2.42311971 3.3791378 4.31702134 4 8 C3.32122803 8.37697021 2.64245605 8.75394043 1.94311523 9.14233398 C-15.30281819 18.72991647 -15.30281819 18.72991647 -32.2890625 28.765625 C-37.7201681 32.05995171 -43.23858147 35.20671504 -48.74560547 38.37182617 C-49.51533691 38.81502197 -50.28506836 39.25821777 -51.078125 39.71484375 C-51.76293945 40.10792725 -52.44775391 40.50101074 -53.15332031 40.90600586 C-56.58131125 42.71617844 -56.58131125 42.71617844 -58.71348572 45.76528931 C-58.87240799 46.47647919 -59.03133026 47.18766907 -59.19506836 47.92041016 C-59.38213852 48.72950836 -59.56920868 49.53860657 -59.76194763 50.3722229 C-59.95265335 51.25227997 -60.14335907 52.13233704 -60.33984375 53.0390625 C-60.54807266 53.95271576 -60.75630157 54.86636902 -60.97084045 55.80770874 C-61.63773774 58.74437845 -62.28807807 61.68442136 -62.9375 64.625 C-63.58485825 67.50580471 -64.23561774 70.3858266 -64.8866272 73.26580811 C-65.31249451 75.15065891 -65.73712377 77.03578989 -66.16049194 78.92120361 C-70.7170596 99.15117879 -70.7170596 99.15117879 -73 106 C-73.66 106 -74.32 106 -75 106 C-74.33007977 99.30079768 -72.95423899 92.83260766 -71.49755859 86.26416016 C-70.93242718 83.69250718 -70.3816912 81.11797232 -69.83203125 78.54296875 C-62.1283429 42.54840774 -62.1283429 42.54840774 -58.37109375 39.81494141 C-57.73300781 39.49702637 -57.09492187 39.17911133 -56.4375 38.8515625 C-55.72851562 38.4894165 -55.01953125 38.12727051 -54.2890625 37.75415039 C-53.53367187 37.38153076 -52.77828125 37.00891113 -52 36.625 C-50.43648661 35.82619919 -48.87397863 35.0254273 -47.3125 34.22265625 C-46.56097656 33.83867676 -45.80945313 33.45469727 -45.03515625 33.05908203 C-41.83507662 31.39378147 -38.77101186 29.53636468 -35.69921875 27.6484375 C-32.09714665 25.44861923 -28.45410759 23.3210365 -24.8125 21.1875 C-16.84330461 16.51068362 -8.914163 11.7692336 -1 7 C-1.99 7 -2.98 7 -4 7 C-4 6.34 -4 5.68 -4 5 C-2.35 5 -0.7 5 1 5 C0.505 2.525 0.505 2.525 0 0 Z " fill="#33932C" transform="translate(628,109)"/>
<path d="M0 0 C0.66 0 1.32 0 2 0 C2.04577894 33.38548772 2.08101997 66.77096764 2.10213066 100.15647978 C2.10463207 104.09805363 2.10722071 108.03962742 2.10986328 111.98120117 C2.1103879 112.76589668 2.11091252 113.5505922 2.11145304 114.35906636 C2.12015536 127.06430476 2.13592439 139.76952507 2.15430559 152.47475273 C2.17300944 165.51173847 2.18411775 178.54871472 2.18817699 191.58571333 C2.19092104 199.63005975 2.1995876 207.67435501 2.21583293 215.71868568 C2.22765575 221.88735572 2.22891011 228.05598677 2.22621536 234.2246666 C2.22676614 236.75505704 2.23075177 239.28544941 2.23841095 241.81582832 C2.24835036 245.26853083 2.24597237 248.72101381 2.24050903 252.17372131 C2.24633472 253.17665083 2.2521604 254.17958034 2.25816262 255.21290165 C2.23535719 260.53940593 1.75778938 264.9613926 0 270 C-0.66 270 -1.32 270 -2 270 C-1.85831863 268.56208484 -1.71148957 267.1246763 -1.5625 265.6875 C-1.48128906 264.88699219 -1.40007813 264.08648438 -1.31640625 263.26171875 C-1 261 -1 261 0 258 C0.08970492 256.53603046 0.12375948 255.06829003 0.12304783 253.6015749 C0.12503888 252.69688569 0.12702993 251.79219649 0.12908131 250.86009246 C0.12616847 249.86496633 0.12325563 248.86984019 0.12025452 247.84455872 C0.12110894 246.78843893 0.12196337 245.73231915 0.12284368 244.64419574 C0.1244972 241.08805686 0.11897917 237.53196465 0.11352539 233.97583008 C0.11324347 231.43354798 0.11340136 228.89126581 0.1139679 226.34898376 C0.11419597 220.866737 0.1113506 215.38450539 0.10573006 209.90226173 C0.09760895 201.97582386 0.09499921 194.04939174 0.09374207 186.12295016 C0.09155251 173.26336 0.08489503 160.40377617 0.07543945 147.54418945 C0.06626285 135.05102571 0.05918323 122.55786369 0.05493164 110.06469727 C0.05453756 108.90991223 0.05453756 108.90991223 0.05413551 107.73179821 C0.05283049 103.86971974 0.05156678 100.00764126 0.05032361 96.14556277 C0.03995399 64.09703724 0.02233829 32.0485195 0 0 Z " fill="#FEF8D9" transform="translate(565,391)"/>
<path d="M0 0 C0.99 0.33 1.98 0.66 3 1 C-5.52599141 6.40348547 -14.07951083 11.69470113 -22.875 16.65234375 C-29.51405501 20.4073031 -36.07570337 24.2988947 -42.65039062 28.16503906 C-43.64232422 28.74608398 -44.63425781 29.32712891 -45.65625 29.92578125 C-46.59106201 30.47830566 -47.52587402 31.03083008 -48.48901367 31.60009766 C-51 33 -51 33 -54.58203125 34.41796875 C-57.37108539 35.90206716 -57.37108539 35.90206716 -58.35546875 39.625 C-58.65770593 41.07837825 -58.93386521 42.53735682 -59.1875 44 C-59.50103888 45.54849484 -59.81614237 47.09667372 -60.1328125 48.64453125 C-60.27879883 49.39557129 -60.42478516 50.14661133 -60.57519531 50.92041016 C-61.11214355 53.54898781 -61.81548118 56.11144025 -62.5625 58.6875 C-63.95820035 63.68813761 -65.04386158 68.72763967 -66.10546875 73.80859375 C-67.23733757 79.17792164 -68.46721594 84.52521638 -69.6875 89.875 C-69.91421387 90.86927002 -70.14092773 91.86354004 -70.37451172 92.88793945 C-70.91564925 95.25878529 -71.45743993 97.62947937 -72 100 C-72.66 99.67 -73.32 99.34 -74 99 C-73.41869946 92.77884738 -72.40014675 86.92713118 -70.875 80.875 C-69.23800569 74.2384701 -67.67462644 67.59240992 -66.21875 60.9140625 C-65.91038055 59.50926383 -65.60194945 58.1044787 -65.29345703 56.69970703 C-64.83492959 54.61021415 -64.37933143 52.52030527 -63.93304443 50.42816162 C-63.51292869 48.46078021 -63.080877 46.49595937 -62.6484375 44.53125 C-62.40270996 43.39236328 -62.15698242 42.25347656 -61.90380859 41.08007812 C-60.72817768 37.0736601 -59.44439304 33.93024213 -55.87109375 31.62890625 C-55.06800781 31.27699219 -54.26492188 30.92507812 -53.4375 30.5625 C-49.91458385 28.92558946 -46.56472375 27.21468643 -43.25 25.1875 C-39.35013326 22.80391115 -35.41185799 20.50743534 -31.4375 18.25 C-25.23835893 14.72793694 -19.08702201 11.12835909 -12.94897461 7.50097656 C-11.61253411 6.7116909 -10.27429312 5.9254442 -8.93408203 5.14257812 C-7.62835992 4.37120985 -6.33250753 3.58292147 -5.04638672 2.77929688 C-3.40788368 1.77772699 -1.70703398 0.87969849 0 0 Z " fill="#9FF092" transform="translate(625,115)"/>
<path d="M0 0 C0.66 0 1.32 0 2 0 C0.74660385 10.40369967 -1.37785571 20.35748271 -3.9375 30.5 C-4.63733659 33.30128766 -5.33335272 36.10350877 -6.02734375 38.90625 C-6.19729858 39.59175934 -6.36725342 40.27726868 -6.5423584 40.98355103 C-8.17670414 47.62483537 -9.6024872 54.30518065 -11 61 C-11.52224017 63.45077628 -12.04569384 65.90129426 -12.5703125 68.3515625 C-12.82683594 69.55167969 -13.08335937 70.75179687 -13.34765625 71.98828125 C-13.60417969 73.18839844 -13.86070312 74.38851562 -14.125 75.625 C-14.38925781 76.86378906 -14.65351562 78.10257812 -14.92578125 79.37890625 C-15.17972656 80.56613281 -15.43367187 81.75335938 -15.6953125 82.9765625 C-15.92234863 84.03955566 -16.14938477 85.10254883 -16.38330078 86.19775391 C-16.88493745 88.47716234 -17.41754537 90.74018479 -18 93 C-17.01 93.33 -16.02 93.66 -15 94 C-16.65 94 -18.3 94 -20 94 C-21.17851776 89.75010347 -20.73724251 86.77087779 -19.70703125 82.51171875 C-19.40829102 81.25560791 -19.10955078 79.99949707 -18.80175781 78.70532227 C-18.47222015 77.36599527 -18.1424635 76.02672214 -17.8125 74.6875 C-17.48316992 73.31783814 -17.15472179 71.94796393 -16.82714844 70.57788086 C-15.18290097 63.72746315 -13.48471433 56.89055542 -11.75 50.0625 C-10.27040579 44.23737491 -9.0648742 38.39523964 -7.921875 32.49609375 C-6.69509736 26.36656612 -5.27554328 20.27915925 -3.875 14.1875 C-3.47595459 12.44073975 -3.47595459 12.44073975 -3.06884766 10.65869141 C-2.8166748 9.56862793 -2.56450195 8.47856445 -2.3046875 7.35546875 C-2.07765137 6.37215576 -1.85061523 5.38884277 -1.61669922 4.37573242 C-1 2 -1 2 0 0 Z " fill="#368E33" transform="translate(528,242)"/>
<path d="M0 0 C0.495 1.98 0.495 1.98 1 4 C0.00484375 4.58265625 -0.9903125 5.1653125 -2.015625 5.765625 C-10.16537718 10.54517891 -18.28538914 15.36928853 -26.375 20.25 C-33.16308084 24.34151702 -39.97448272 28.32610564 -47 32 C-47 31.34 -47 30.68 -47 30 C-48.98 30.33 -50.96 30.66 -53 31 C-50.64381029 28.37826303 -48.20802351 26.88543357 -45.09765625 25.25 C-38.83286053 21.91097415 -32.63254614 18.46650108 -26.4375 15 C-25.37853516 14.40960938 -24.31957031 13.81921875 -23.22851562 13.2109375 C-17.47121709 9.98997196 -11.76937531 6.70329304 -6.14086914 3.26171875 C-4.13132718 2.07739752 -2.09918327 1.01518612 0 0 Z " fill="#AEF0A2" transform="translate(620,101)"/>
<path d="M0 0 C1.65 0 3.3 0 5 0 C4.42376816 5.95866949 3.53773051 11.64374448 2.14453125 17.4609375 C1.87134315 18.63072395 1.87134315 18.63072395 1.59263611 19.82414246 C1.20434459 21.48453587 0.81375649 23.14439368 0.42102051 24.80374146 C-0.61358227 29.1753792 -1.63144417 33.55092732 -2.65234375 37.92578125 C-2.85550201 38.79402023 -3.05866028 39.66225922 -3.26797485 40.55680847 C-4.979782 47.88103197 -6.63037446 55.21729402 -8.25 62.5625 C-8.48517334 63.62243164 -8.72034668 64.68236328 -8.96264648 65.77441406 C-10.12463429 71.01460689 -11.27241361 76.25755079 -12.40625 81.50390625 C-12.85397706 83.54431245 -13.3018851 85.58467894 -13.75 87.625 C-13.94883789 88.56287354 -14.14767578 89.50074707 -14.35253906 90.46704102 C-14.63436035 91.74019165 -14.63436035 91.74019165 -14.921875 93.0390625 C-15.16309082 94.15595459 -15.16309082 94.15595459 -15.40917969 95.29541016 C-16 97 -16 97 -18 98 C-18.47440031 92.18859617 -17.43397961 87.46126417 -15.84033203 81.8762207 C-13.97055666 75.18744483 -12.54822707 68.42090928 -11.125 61.625 C-8.95909403 51.32247974 -6.62169817 41.07979349 -4.12084961 30.85375977 C-2.32817519 23.48453844 -0.69790536 16.09358309 0.79541016 8.65795898 C1.90254629 3.19490742 1.90254629 3.19490742 3 1 C2.01 0.67 1.02 0.34 0 0 Z " fill="#8FEB8C" transform="translate(542,240)"/>
<path d="M0 0 C0.66 0 1.32 0 2 0 C1.7183197 1.13685745 1.4366394 2.2737149 1.14642334 3.44502258 C-1.69799535 15.49592642 -2.60354182 26.88091048 -2.609375 39.23046875 C-2.62440756 41.08662826 -2.64114501 42.94277464 -2.65948486 44.79890442 C-2.70260215 49.61388872 -2.72303176 54.42869292 -2.73822021 59.24383545 C-2.75799528 64.18544937 -2.79993999 69.12687426 -2.83984375 74.06835938 C-2.91454085 83.71218045 -2.96519524 93.35595802 -3 103 C-3.33 103 -3.66 103 -4 103 C-4.069609 91.27327759 -4.12286669 79.5466046 -4.15543652 67.81971741 C-4.17107093 62.37404058 -4.19226869 56.92850545 -4.22631836 51.48291016 C-4.25899095 46.22445285 -4.27686974 40.96613157 -4.28463173 35.70758057 C-4.29016105 33.70458842 -4.30095844 31.70160344 -4.31719017 29.69866943 C-4.33906936 26.88619077 -4.34196254 24.07426927 -4.34057617 21.26171875 C-4.351362 20.43956375 -4.36214783 19.61740875 -4.3732605 18.77033997 C-4.34359207 13.18278522 -3.16298834 9.15219733 -1 4 C-0.64487208 2.67230536 -0.30550697 1.33998298 0 0 Z " fill="#FEFCE0" transform="translate(442,379)"/>
<path d="M0 0 C0.33 0 0.66 0 1 0 C2.55833232 12.28510527 3.32125339 24.47877477 3.57006836 36.86230469 C3.74333508 43.72032916 4.43135821 50.26329487 5.56347656 57.02734375 C6.14457042 60.98450189 6.22720947 64.82239959 6.125 68.8125 C6.11597656 69.51697266 6.10695313 70.22144531 6.09765625 70.94726562 C6.0747392 72.63166907 6.03891396 74.31589019 6 76 C5.67 76 5.34 76 5 76 C1.78122109 50.75935495 -0.53928932 25.4664402 0 0 Z " fill="#F0A92B" transform="translate(471,570)"/>
<path d="M0 0 C0.66 0 1.32 0 2 0 C1.58516138 6.53370832 0.49638554 12.70419513 -1 19.0625 C-1.17821289 19.8248999 -1.35642578 20.5872998 -1.54003906 21.37280273 C-2.8676981 26.8676981 -2.8676981 26.8676981 -4 28 C-10.63934484 28.59016399 -16.63490902 26.75588717 -23 25 C-23 24.01 -23 23.02 -23 22 C-22.45859375 22.30679687 -21.9171875 22.61359375 -21.359375 22.9296875 C-18.65549492 24.15628211 -16.17537342 24.63743776 -13.25 25.125 C-12.26515625 25.29257812 -11.2803125 25.46015625 -10.265625 25.6328125 C-9.51796875 25.75398438 -8.7703125 25.87515625 -8 26 C-7.67 24.68 -7.34 23.36 -7 22 C-6.67 22.66 -6.34 23.32 -6 24 C-5.85377197 23.34402832 -5.70754395 22.68805664 -5.55688477 22.01220703 C-4.89478972 19.04919382 -4.22869581 16.08709377 -3.5625 13.125 C-3.33240234 12.09246094 -3.10230469 11.05992187 -2.86523438 9.99609375 C-2.53168945 8.51689453 -2.53168945 8.51689453 -2.19140625 7.0078125 C-1.88505249 5.64100342 -1.88505249 5.64100342 -1.57250977 4.24658203 C-1 2 -1 2 0 0 Z " fill="#2D942B" transform="translate(531,313)"/>
<path d="M0 0 C0.33 0 0.66 0 1 0 C0.35343144 8.89031769 -1.87022567 17.37193748 -4 26 C-12.59032572 26.31216527 -20.82896089 26.12944735 -29.3125 24.625 C-30.03493896 24.49891357 -30.75737793 24.37282715 -31.50170898 24.24291992 C-34.90618688 23.5926902 -37.07765815 22.9482279 -40 21 C-37.35375716 21.14021805 -34.70815422 21.28689776 -32.0625 21.4375 C-31.30775391 21.47681641 -30.55300781 21.51613281 -29.77539062 21.55664062 C-24.11328125 21.88671875 -24.11328125 21.88671875 -23 23 C-20.14122091 23.23701239 -17.30116703 23.42219182 -14.4375 23.5625 C-13.63119141 23.60568359 -12.82488281 23.64886719 -11.99414062 23.69335938 C-9.99631195 23.79975262 -7.9981793 23.90040888 -6 24 C-5.88785156 23.20335937 -5.77570313 22.40671875 -5.66015625 21.5859375 C-4.84886608 17.1790477 -3.66356994 12.93169946 -2.4375 8.625 C-2.08655273 7.37783203 -2.08655273 7.37783203 -1.72851562 6.10546875 C-1.15517202 4.06951391 -0.5779756 2.03464473 0 0 Z " fill="#EFF2C9" transform="translate(511,309)"/>
<path d="M0 0 C0.33 0 0.66 0 1 0 C1.9584521 11.49818353 2.1222403 22.90536806 2.0625 34.4375 C2.05746829 36.15169138 2.05290837 37.86588421 2.04882812 39.58007812 C2.03797027 43.72008893 2.02080066 47.86002771 2 52 C1.67 52 1.34 52 1 52 C-1.19702238 19.16737035 -1.19702238 19.16737035 -1.1875 8 C-1.18814453 7.27893066 -1.18878906 6.55786133 -1.18945312 5.81494141 C-1.13765331 1.13765331 -1.13765331 1.13765331 0 0 Z " fill="#F1AD2C" transform="translate(469,517)"/>
<path d="M0 0 C2.15483476 1.50745951 2.85426124 2.85830936 3.8203125 5.2734375 C2.5003125 4.9434375 1.1803125 4.6134375 -0.1796875 4.2734375 C-0.5096875 4.9334375 -0.8396875 5.5934375 -1.1796875 6.2734375 C-1.5096875 5.2834375 -1.8396875 4.2934375 -2.1796875 3.2734375 C-2.86071533 3.66200928 -3.54174316 4.05058105 -4.2434082 4.45092773 C-7.3247761 6.20701567 -10.40844651 7.9590204 -13.4921875 9.7109375 C-15.0999707 10.62842773 -15.0999707 10.62842773 -16.74023438 11.56445312 C-17.76826172 12.14775391 -18.79628906 12.73105469 -19.85546875 13.33203125 C-21.2772644 14.14111938 -21.2772644 14.14111938 -22.7277832 14.96655273 C-25.1796875 16.2734375 -25.1796875 16.2734375 -28.1796875 17.2734375 C-28.8396875 16.6134375 -29.4996875 15.9534375 -30.1796875 15.2734375 C-29.68678223 15.00192871 -29.19387695 14.73041992 -28.68603516 14.45068359 C-26.39119568 13.18517469 -24.09799092 11.91672772 -21.8046875 10.6484375 C-20.98210449 10.1956543 -20.15952148 9.74287109 -19.31201172 9.27636719 C-14.10765689 6.39657629 -9.04461894 3.38934063 -4.125 0.0390625 C-2.1796875 -0.7265625 -2.1796875 -0.7265625 0 0 Z " fill="#368F30" transform="translate(622.1796875,98.7265625)"/>
<path d="M0 0 C0.33 1.32 0.66 2.64 1 4 C1.66 4 2.32 4 3 4 C3.33 3.01 3.66 2.02 4 1 C3.26309887 7.48472993 1.64681249 13.69239743 0 20 C-1.32 19.67 -2.64 19.34 -4 19 C-4.33 19.66 -4.66 20.32 -5 21 C-3.83760783 13.80684375 -2.25496388 6.93025566 0 0 Z " fill="#B1F2A4" transform="translate(541,191)"/>
<path d="M0 0 C1.84464844 0.22236328 1.84464844 0.22236328 3.7265625 0.44921875 C7.48942504 0.87001673 11.24435844 1.1626087 15.0234375 1.39453125 C16.58384766 1.49797852 16.58384766 1.49797852 18.17578125 1.60351562 C20.33120978 1.7443159 22.48755516 1.87165018 24.64453125 1.98632812 C25.67707031 2.05916016 26.70960938 2.13199219 27.7734375 2.20703125 C28.70591309 2.2635083 29.63838867 2.31998535 30.59912109 2.37817383 C33.63257757 3.1638372 34.41676684 4.36819606 36 7 C34.68 7 33.36 7 32 7 C31.505 6.01 31.505 6.01 31 5 C28.1836191 4.52832732 28.1836191 4.52832732 24.77734375 4.3671875 C23.51728516 4.28339844 22.25722656 4.19960938 20.95898438 4.11328125 C19.61850178 4.03364862 18.27800679 3.95422426 16.9375 3.875 C15.5930424 3.78863643 14.24864005 3.70140805 12.90429688 3.61328125 C9.60331151 3.40031445 6.30201189 3.19629661 3 3 C3.33 4.32 3.66 5.64 4 7 C1.03 6.01 -1.94 5.02 -5 4 C-5 3.67 -5 3.34 -5 3 C-3.35 2.67 -1.7 2.34 0 2 C0 1.34 0 0.68 0 0 Z " fill="#E9AB2D" transform="translate(474,332)"/>
<path d="M0 0 C0.99 0 1.98 0 3 0 C2.29030646 6.78695435 0.92442573 13.34423721 -0.5625 20 C-0.79646484 21.06089844 -1.03042969 22.12179687 -1.27148438 23.21484375 C-1.84442795 25.81062894 -2.42067235 28.40563354 -3 31 C-3.33 31 -3.66 31 -4 31 C-5.29013679 23.38746875 -4.55627018 17.28786877 -2.5625 9.875 C-2.19801758 8.44027344 -2.19801758 8.44027344 -1.82617188 6.9765625 C-1.23208709 4.64681826 -0.62329797 2.32206534 0 0 Z " fill="#3E9E31" transform="translate(547,240)"/>
<path d="M0 0 C0.33 0 0.66 0 1 0 C0.61324812 10.05554891 -4.31642076 19.09216473 -11.12890625 26.375 C-14.40596472 29.22104661 -18.53936004 32 -23 32 C-23 31.34 -23 30.68 -23 30 C-22.360625 29.87625 -21.72125 29.7525 -21.0625 29.625 C-20.381875 29.41875 -19.70125 29.2125 -19 29 C-18.67 28.34 -18.34 27.68 -18 27 C-16.02111039 26.27306096 -14.02045442 25.60183749 -12 25 C-12 24.34 -12 23.68 -12 23 C-11.34 23 -10.68 23 -10 23 C-8.47700477 20.06279492 -7.19899698 17.0831351 -6 14 C-5.34 14 -4.68 14 -4 14 C-3.87882813 13.24074219 -3.75765625 12.48148438 -3.6328125 11.69921875 C-3.46523438 10.70535156 -3.29765625 9.71148438 -3.125 8.6875 C-2.96257813 7.70136719 -2.80015625 6.71523438 -2.6328125 5.69921875 C-2 3 -2 3 0 0 Z " fill="#EBAD3B" transform="translate(585,655)"/>
<path d="M0 0 C0.90212723 0.1065818 0.90212723 0.1065818 1.82247925 0.21531677 C8.03450287 0.89970623 14.13680852 1.13392045 20.3828125 1.09765625 C21.79323318 1.09553383 21.79323318 1.09553383 23.23214722 1.09336853 C26.19646568 1.08783008 29.16070488 1.07528962 32.125 1.0625 C34.15104057 1.05747703 36.17708233 1.05291553 38.203125 1.04882812 C43.13544659 1.03788092 48.06770992 1.02065981 53 1 C53 1.66 53 2.32 53 3 C36.17 3 19.34 3 2 3 C2 2.34 2 1.68 2 1 C1.34 0.67 0.68 0.34 0 0 Z " fill="#FDE9BB" transform="translate(486,692)"/>
<path d="M0 0 C0.66 0.66 1.32 1.32 2 2 C1.53914393 8.24250488 -0.14931084 14.35326543 -1.5625 20.4375 C-1.79646484 21.45521484 -2.03042969 22.47292969 -2.27148438 23.52148438 C-2.84509303 26.01492607 -3.42132897 28.50772922 -4 31 C-4.66 30.67 -5.32 30.34 -6 30 C-5.38627074 23.12199963 -4.10103248 16.6335677 -2.4375 9.9375 C-2.20353516 8.97650391 -1.96957031 8.01550781 -1.72851562 7.02539062 C-1.15732057 4.68232518 -0.58107577 2.34063082 0 0 Z " fill="#83E176" transform="translate(557,184)"/>
<path d="M0 0 C0.33 0 0.66 0 1 0 C1.47509573 7.04381056 -0.26815306 13.55150578 -1.875 20.375 C-2.14441406 21.57511719 -2.41382813 22.77523438 -2.69140625 24.01171875 C-2.95566406 25.14996094 -3.21992187 26.28820312 -3.4921875 27.4609375 C-3.73308105 28.50040527 -3.97397461 29.53987305 -4.22216797 30.61083984 C-4.47885254 31.3992627 -4.73553711 32.18768555 -5 33 C-5.99 33.495 -5.99 33.495 -7 34 C-7.65852751 25.93303802 -5.20591017 18.66929343 -3 11 C-2.41345015 8.85504365 -1.82969652 6.70931867 -1.25 4.5625 C-0.83378471 3.04154307 -0.41731117 1.52065661 0 0 Z " fill="#A7F79B" transform="translate(531,304)"/>
<path d="M0 0 C0.66 0 1.32 0 2 0 C2.22139648 0.55872803 2.44279297 1.11745605 2.67089844 1.69311523 C3.69536481 4.27533551 4.7226677 6.85641866 5.75 9.4375 C6.09804688 10.31599609 6.44609375 11.19449219 6.8046875 12.09960938 C8.81074263 17.13332178 10.90440889 22.0972705 13.20117188 27.00585938 C14.39814489 29.99390205 14.72794286 32.8033286 15 36 C12.72369832 33.72369832 11.96169522 31.8698938 10.72265625 28.90625 C10.29146484 27.875 9.86027344 26.84375 9.41601562 25.78125 C8.96935547 24.6984375 8.52269531 23.615625 8.0625 22.5 C7.61970703 21.448125 7.17691406 20.39625 6.72070312 19.3125 C4.08511486 12.96509219 1.81405416 6.63023367 0 0 Z " fill="#FEF5D3" transform="translate(566,328)"/>
<path d="M0 0 C7.59 0 15.18 0 23 0 C23 1.65 23 3.3 23 5 C22.67 3.68 22.34 2.36 22 1 C20.99839844 1.144375 19.99679687 1.28875 18.96484375 1.4375 C17.62243078 1.62525007 16.27998085 1.81273594 14.9375 2 C13.95233398 2.14308594 13.95233398 2.14308594 12.94726562 2.2890625 C8.59861237 2.88887674 4.38670929 3.09127093 0 3 C-0.66 6.96 -1.32 10.92 -2 15 C-2.33 15 -2.66 15 -3 15 C-2.67 10.71 -2.34 6.42 -2 2 C-1.34 2 -0.68 2 0 2 C0 1.34 0 0.68 0 0 Z " fill="#DCF7DD" transform="translate(528,239)"/>
<path d="M0 0 C0.33 0.66 0.66 1.32 1 2 C2.32 2.33 3.64 2.66 5 3 C-0.94 6.465 -0.94 6.465 -7 10 C-7.33 9.34 -7.66 8.68 -8 8 C-9.98 8.33 -11.96 8.66 -14 9 C-11.48367951 6.14015453 -8.66114447 4.58531178 -5.3125 2.8125 C-4.31863281 2.28269531 -3.32476563 1.75289063 -2.30078125 1.20703125 C-1.54152344 0.80871094 -0.78226563 0.41039063 0 0 Z " fill="#9FEF98" transform="translate(581,123)"/>
<path d="M0 0 C0.66 0 1.32 0 2 0 C1.46023721 7.17958457 -0.17917691 13.49153638 -2.4375 20.3125 C-2.75009766 21.28767578 -3.06269531 22.26285156 -3.38476562 23.26757812 C-4.70469627 27.33341101 -6.00067515 31.21148955 -8 35 C-7.96719221 27.25736202 -6.12939262 20.89192329 -3.17138672 13.8359375 C-1.26278211 9.1832018 -0.44642359 5.01668514 0 0 Z " fill="#FEF3CC" transform="translate(477,339)"/>
<path d="M0 0 C3.57268784 3.57268784 4.56434576 8.79200289 6.1875 13.5 C6.56841797 14.57121094 6.94933594 15.64242188 7.34179688 16.74609375 C7.69693359 17.76832031 8.05207031 18.79054688 8.41796875 19.84375 C8.74563232 20.78412109 9.0732959 21.72449219 9.41088867 22.69335938 C10 25 10 25 9 27 C7 26 7 26 6.25390625 23.99609375 C6.02574219 23.15175781 5.79757812 22.30742187 5.5625 21.4375 C4.64549033 18.16512538 3.65738671 15.0215391 2.375 11.875 C0.83940631 7.9355188 0.37522224 4.20248911 0 0 Z " fill="#FDF2C3" transform="translate(560,342)"/>
<path d="M0 0 C1.32 0 2.64 0 4 0 C3.36934845 5.7809725 2.34844868 11.3443706 1 17 C0.67 17 0.34 17 0 17 C-2.58589108 10.91555039 -2.07530998 6.22592993 0 0 Z " fill="#B0F19F" transform="translate(530,242)"/>
<path d="M0 0 C0.33 0 0.66 0 1 0 C1.42575617 7.23785489 0.21150296 14.09158937 -2 21 C-2.66 21.33 -3.32 21.66 -4 22 C-4.62599202 14.17509977 -2.32514129 7.39062767 0 0 Z " fill="#329129" transform="translate(542,265)"/>
<path d="M0 0 C0.33 0 0.66 0 1 0 C0.27958495 7.44428888 -0.62639017 14.8791705 -3 22 C-3.66 22 -4.32 22 -5 22 C-4.65259661 14.14868332 -2.71548094 7.35074375 0 0 Z " fill="#30882E" transform="translate(520,280)"/>
<path d="M0 0 C0.70511719 0.30679687 1.41023438 0.61359375 2.13671875 0.9296875 C5.04265573 2.01594498 7.75754152 2.6097058 10.8125 3.125 C11.78832031 3.29257812 12.76414062 3.46015625 13.76953125 3.6328125 C14.50558594 3.75398438 15.24164062 3.87515625 16 4 C16.33 2.68 16.66 1.36 17 0 C17.33 0.66 17.66 1.32 18 2 C18.99 1.67 19.98 1.34 21 1 C20.67 2.65 20.34 4.3 20 6 C13.50109414 6.44310722 7.09029048 5.33429115 1 3 C0.67 2.01 0.34 1.02 0 0 Z " fill="#3F930C" transform="translate(507,335)"/>
<path d="M0 0 C0.66 0 1.32 0 2 0 C2.21755666 5.4389165 2.10428384 9.87080814 0 15 C-0.99 15 -1.98 15 -3 15 C-2.5547115 9.72684667 -1.91626837 4.98229776 0 0 Z " fill="#C6FAB8" transform="translate(513,320)"/>
<path d="M0 0 C-1.36682561 4.10047683 -3.25983367 4.9534939 -7 7 C-10.375 7.25 -10.375 7.25 -13 7 C-11.78081617 3.3424485 -10.15928702 2.57671131 -6.85546875 0.78515625 C-4.48526307 -0.217815 -2.54101354 -0.30800164 0 0 Z " fill="#B6F1B0" transform="translate(595,118)"/>
<path d="M0 0 C3.3 0 6.6 0 10 0 C9.34 4.29 8.68 8.58 8 13 C7.67 13 7.34 13 7 13 C6.9729957 11.54176788 6.95360213 10.08339325 6.9375 8.625 C6.92589844 7.81289062 6.91429687 7.00078125 6.90234375 6.1640625 C7 4 7 4 8 2 C6.8553125 2.5259375 6.8553125 2.5259375 5.6875 3.0625 C3 4 3 4 0 3 C-0.33 3.66 -0.66 4.32 -1 5 C-0.67 3.35 -0.34 1.7 0 0 Z " fill="#28972A" transform="translate(535,241)"/>
<path d="M0 0 C0.99 0.33 1.98 0.66 3 1 C3.16682272 5.92127034 3.24828052 9.50343896 1 14 C0.34 14 -0.32 14 -1 14 C-1.18451025 4.58997722 -1.18451025 4.58997722 0 0 Z " fill="#BAF7AA" transform="translate(543,181)"/>
<path d="M0 0 C0.33 0.99 0.66 1.98 1 3 C1.99 2.67 2.98 2.34 4 2 C2.68 8.27 1.36 14.54 0 21 C-0.96697501 17.13209997 -0.979595 15.91837998 -0.0625 12.25 C0.13214844 11.45078125 0.32679688 10.6515625 0.52734375 9.828125 C0.68332031 9.22484375 0.83929687 8.6215625 1 8 C0.34 8 -0.32 8 -1 8 C-1.33 8.66 -1.66 9.32 -2 10 C-1.46274105 6.62294375 -0.88935377 3.303314 0 0 Z " fill="#A4F095" transform="translate(549,156)"/>
<path d="M0 0 C0.33 0 0.66 0 1 0 C1.125 2.375 1.125 2.375 1 5 C-1 7 -1 7 -3.0234375 7.23046875 C-3.79945313 7.21628906 -4.57546875 7.20210938 -5.375 7.1875 C-6.14585937 7.18105469 -6.91671875 7.17460937 -7.7109375 7.16796875 C-9.91889344 7.00595151 -11.87535332 6.60634894 -14 6 C-14 5.34 -14 4.68 -14 4 C-14.99 3.67 -15.98 3.34 -17 3 C-11.72 3.33 -6.44 3.66 -1 4 C-0.67 2.68 -0.34 1.36 0 0 Z " fill="#CAB311" transform="translate(528,336)"/>
<path d="M0 0 C0.66 0.66 1.32 1.32 2 2 C1.56493802 8.09086767 0.25960616 14.03215721 -1 20 C-3.31806043 16.41519279 -2.98413176 14.11164779 -2.1875 10 C-1.99542969 8.96875 -1.80335938 7.9375 -1.60546875 6.875 C-1.11922571 4.56612984 -0.5979212 2.28197448 0 0 Z " fill="#3E913D" transform="translate(550,140)"/>
<path d="M0 0 C1.32 0.66 2.64 1.32 4 2 C3.34 6.29 2.68 10.58 2 15 C1.67 15 1.34 15 1 15 C0.67 13.35 0.34 11.7 0 10 C-0.66 10.66 -1.32 11.32 -2 12 C-1 3.42857143 -1 3.42857143 0 0 Z " fill="#A0EF95" transform="translate(517,299)"/>
<path d="M0 0 C0.66 0.33 1.32 0.66 2 1 C2.10251672 6.12583611 2.03590199 10.94997778 1 16 C0.01 16 -0.98 16 -2 16 C-1.85890014 13.89551062 -1.71195825 11.7914123 -1.5625 9.6875 C-1.48128906 8.51574219 -1.40007813 7.34398437 -1.31640625 6.13671875 C-1 3 -1 3 0 0 Z " fill="#CAF7BE" transform="translate(528,253)"/>
<path d="M0 0 C3.55780196 0.60990891 6.6828589 1.5783681 10 3 C10 3.33 10 3.66 10 4 C8.01432292 4.22786458 6.02864583 4.45572917 4.04296875 4.68359375 C1.80603607 4.97170735 1.80603607 4.97170735 -1 6 C-1.33 6.99 -1.66 7.98 -2 9 C-2.33 8.34 -2.66 7.68 -3 7 C-2.06421005 4.64018187 -1.06652192 2.30368736 0 0 Z " fill="#EFB238" transform="translate(464,328)"/>
<path d="M0 0 C0.33 0 0.66 0 1 0 C1.05447047 1.41623216 1.09300508 2.83308191 1.125 4.25 C1.14820313 5.03890625 1.17140625 5.8278125 1.1953125 6.640625 C0.9828378 9.20731941 0.28654105 10.7916067 -1 13 C-1.66 13 -2.32 13 -3 13 C-3.0270043 11.54176788 -3.04639787 10.08339325 -3.0625 8.625 C-3.07410156 7.81289062 -3.08570313 7.00078125 -3.09765625 6.1640625 C-3 4 -3 4 -2 2 C-1.34 2 -0.68 2 0 2 C0 1.34 0 0.68 0 0 Z " fill="#C2F9B2" transform="translate(553,146)"/>
<path d="M0 0 C-1.41166886 0.98635837 -2.82956184 1.96381255 -4.25 2.9375 C-5.43335938 3.75541016 -5.43335938 3.75541016 -6.640625 4.58984375 C-9 6 -9 6 -11.234375 6.50390625 C-11.81703125 6.66761719 -12.3996875 6.83132812 -13 7 C-13.33 7.99 -13.66 8.98 -14 10 C-14.33 8.68 -14.66 7.36 -15 6 C-13.07010782 4.80017556 -11.13080772 3.61547182 -9.1875 2.4375 C-8.10855469 1.77621094 -7.02960937 1.11492187 -5.91796875 0.43359375 C-3 -1 -3 -1 0 0 Z " fill="#2D7D28" transform="translate(566,132)"/>
<path d="M0 0 C2.7103832 3.24136471 4.13944318 6.4957618 5.625 10.4375 C6.05039062 11.54996094 6.47578125 12.66242188 6.9140625 13.80859375 C7.84707814 16.55058575 8.52049518 19.14961026 9 22 C3.43368861 16.23489177 0.84967413 7.85948569 0 0 Z " fill="#ECB245" transform="translate(568,336)"/>
<path d="M0 0 C1.17719456 3.44349429 0.83086208 5.66153505 -0.1875 9.125 C-0.42855469 9.99382813 -0.66960938 10.86265625 -0.91796875 11.7578125 C-2.23164772 14.48002091 -3.32217494 14.78719747 -6 16 C-6.33 16.99 -6.66 17.98 -7 19 C-7.66 18.67 -8.32 18.34 -9 18 C-8.27683594 16.93072266 -8.27683594 16.93072266 -7.5390625 15.83984375 C-4.10658541 10.63508768 -1.22866712 6.14333558 0 0 Z " fill="#EEAF38" transform="translate(573,655)"/>
<path d="M0 0 C0.66 0.33 1.32 0.66 2 1 C1.67 1.66 1.34 2.32 1 3 C1.66 3.33 2.32 3.66 3 4 C-0.96 5.98 -0.96 5.98 -5 8 C-5 7.34 -5 6.68 -5 6 C-5.99 5.67 -6.98 5.34 -8 5 C-6.71475739 4.13619741 -5.42157581 3.28419631 -4.125 2.4375 C-3.04605469 1.72400391 -3.04605469 1.72400391 -1.9453125 0.99609375 C-1.30335938 0.66738281 -0.66140625 0.33867188 0 0 Z " fill="#A7EE95" transform="translate(600,112)"/>
<path d="M0 0 C0.33 0 0.66 0 1 0 C1.4833961 15.22697706 1.4833961 15.22697706 -2.57421875 19.7578125 C-3.04472656 20.16773438 -3.51523437 20.57765625 -4 21 C-3.25428948 16.35197907 -2.3717461 11.7381195 -1.4375 7.125 C-1.29892578 6.43664062 -1.16035156 5.74828125 -1.01757812 5.0390625 C-0.67927173 3.35919626 -0.33976088 1.67957266 0 0 Z " fill="#CBECC6" transform="translate(561,187)"/>
<path d="M0 0 C-0.33 0.99 -0.66 1.98 -1 3 C-1.66 3 -2.32 3 -3 3 C-3 3.99 -3 4.98 -3 6 C-2.34 6 -1.68 6 -1 6 C-1.33 8.64 -1.66 11.28 -2 14 C-2.66 12.68 -3.32 11.36 -4 10 C-4.66 10 -5.32 10 -6 10 C-5.71872579 8.51882199 -5.42466268 7.04006751 -5.125 5.5625 C-4.96257813 4.73878906 -4.80015625 3.91507813 -4.6328125 3.06640625 C-4.42398438 2.38449219 -4.21515625 1.70257813 -4 1 C-2 0 -2 0 0 0 Z " fill="#A5F19B" transform="translate(557,138)"/>
<path d="M0 0 C11.385 0.99 11.385 0.99 23 2 C23 2.33 23 2.66 23 3 C16.07 3 9.14 3 2 3 C2 2.34 2 1.68 2 1 C1.34 0.67 0.68 0.34 0 0 Z " fill="#FEEFCA" transform="translate(486,692)"/>
<path d="M0 0 C-2.20528272 0.67668949 -4.41438609 1.34093498 -6.625 2 C-7.85476563 2.37125 -9.08453125 2.7425 -10.3515625 3.125 C-13.73846826 3.93727719 -16.53854429 4.17041013 -20 4 C-17.37004222 0.59322195 -14.70531902 0.33309825 -10.5625 -0.25 C-9.42941406 -0.42015625 -8.29632812 -0.5903125 -7.12890625 -0.765625 C-4.36747944 -0.97247345 -2.58449574 -0.88901573 0 0 Z " fill="#F4AE32" transform="translate(561,688)"/>
<path d="M0 0 C0.33 0 0.66 0 1 0 C2.08259802 5.30473031 1.95080605 8.92790426 0 14 C-1.625 15.9375 -1.625 15.9375 -3 17 C-2.36934845 11.2190275 -1.34844868 5.6556294 0 0 Z " fill="#289B1B" transform="translate(545,190)"/>
<path d="M0 0 C-0.74324341 2.39489543 -1.47057354 3.70777616 -3.69140625 4.93359375 C-5.44073501 5.67219923 -7.21934149 6.34049685 -9 7 C-9 5.68 -9 4.36 -9 3 C-8.01 3 -7.02 3 -6 3 C-6 2.34 -6 1.68 -6 1 C-4 0 -4 0 0 0 Z " fill="#BEF2B5" transform="translate(573,131)"/>
<path d="M0 0 C0.33 0.99 0.66 1.98 1 3 C1.99 2.34 2.98 1.68 4 1 C4.99 1.33 5.98 1.66 7 2 C5.76055724 2.86941494 4.50792941 3.72005457 3.25 4.5625 C2.55390625 5.03816406 1.8578125 5.51382813 1.140625 6.00390625 C-1 7 -1 7 -3.265625 6.65234375 C-3.83796875 6.43707031 -4.4103125 6.22179687 -5 6 C-3.35 4.02 -1.7 2.04 0 0 Z " fill="#FEF2BB" transform="translate(557,672)"/>
<path d="M0 0 C1.55078125 1.17578125 1.55078125 1.17578125 3 3 C2.85546875 5.48046875 2.85546875 5.48046875 2.1875 8.1875 C1.86845703 9.53908203 1.86845703 9.53908203 1.54296875 10.91796875 C1.27419922 11.94857422 1.27419922 11.94857422 1 13 C0.01 13 -0.98 13 -2 13 C-1.85769192 11.58297487 -1.71099254 10.1663904 -1.5625 8.75 C-1.48128906 7.96109375 -1.40007813 7.1721875 -1.31640625 6.359375 C-1.02365007 4.17635361 -0.57935581 2.1226818 0 0 Z " fill="#429838" transform="translate(528,323)"/>
<path d="M0 0 C1.05702173 3.17106519 0.97492531 3.92629749 0.125 7 C-0.05804687 7.680625 -0.24109375 8.36125 -0.4296875 9.0625 C-0.91736881 10.71928035 -1.45385403 12.3615621 -2 14 C-2.66 14 -3.32 14 -4 14 C-3 5.42857143 -3 5.42857143 -2 2 C-1.34 2 -0.68 2 0 2 C0 1.34 0 0.68 0 0 Z " fill="#2B8826" transform="translate(557,201)"/>
<path d="M0 0 C2.89932357 2.39509338 3.50168276 4.31245243 4 8 C2.35 8.66 0.7 9.32 -1 10 C-1.66 9.34 -2.32 8.68 -3 8 C-3 7.67 -3 7.34 -3 7 C-3.33 6.34 -3.66 5.68 -4 5 C-2.35 5 -0.7 5 1 5 C0.67 3.35 0.34 1.7 0 0 Z " fill="#399E32" transform="translate(628,109)"/>
<path d="M0 0 C2.20887757 0.11498267 4.41710787 0.24243505 6.625 0.375 C8.46964844 0.47941406 8.46964844 0.47941406 10.3515625 0.5859375 C13.83653855 0.9814487 16.73049601 1.76261849 20 3 C20 3.33 20 3.66 20 4 C12.91923749 4.40850553 6.80074041 2.90420731 0 1 C0 0.67 0 0.34 0 0 Z " fill="#F1B341" transform="translate(470,688)"/>
<path d="M0 0 C1.65 1.65 3.3 3.3 5 5 C3.25034642 5.05429959 1.50020213 5.09292823 -0.25 5.125 C-1.22453125 5.14820313 -2.1990625 5.17140625 -3.203125 5.1953125 C-6 5 -6 5 -10 3 C-6.7 3 -3.4 3 0 3 C0 2.01 0 1.02 0 0 Z " fill="#FEF1BF" transform="translate(488,671)"/>
<path d="M0 0 C0.33 0 0.66 0 1 0 C1.6875 2.8125 1.6875 2.8125 2 6 C0.625 7.625 0.625 7.625 -1 9 C-1.71447643 11.10332891 -1.71447643 11.10332891 -2 13 C-2.66 13 -3.32 13 -4 13 C-4.33 13.99 -4.66 14.98 -5 16 C-4.34309381 12.21760329 -3.279869 8.78158474 -1.9375 5.1875 C-1.57527344 4.21167969 -1.21304687 3.23585938 -0.83984375 2.23046875 C-0.42412109 1.12638672 -0.42412109 1.12638672 0 0 Z " fill="#F3B238" transform="translate(460,337)"/>
<path d="M0 0 C0.82638376 2.89234315 1 4.88742431 1 8 C1.66 7.67 2.32 7.34 3 7 C2.67 8.98 2.34 10.96 2 13 C0.68 12.67 -0.64 12.34 -2 12 C-2.33 12.66 -2.66 13.32 -3 14 C-2.69024532 12.22868439 -2.37709575 10.45796222 -2.0625 8.6875 C-1.88847656 7.70136719 -1.71445312 6.71523437 -1.53515625 5.69921875 C-1 3 -1 3 0 0 Z " fill="#9CEB92" transform="translate(539,198)"/>
<path d="M0 0 C0.66 0.66 1.32 1.32 2 2 C1.64638402 6.5970078 0.58012426 10.68099369 -1 15 C-1.33 15 -1.66 15 -2 15 C-2.19392201 9.47322267 -1.7479503 5.24385089 0 0 Z " fill="#92E785" transform="translate(557,184)"/>
<path d="M0 0 C0.99 0.33 1.98 0.66 3 1 C2.34 4.63 1.68 8.26 1 12 C0.01 11.67 -0.98 11.34 -2 11 C-1.125 3.375 -1.125 3.375 0 0 Z " fill="#41A03E" transform="translate(537,285)"/>
<path d="M0 0 C0.99 0.66 1.98 1.32 3 2 C2.34 5.3 1.68 8.6 1 12 C0.01 12.33 -0.98 12.66 -2 13 C-1.85769192 11.58297487 -1.71099254 10.1663904 -1.5625 8.75 C-1.48128906 7.96109375 -1.40007813 7.1721875 -1.31640625 6.359375 C-1.02365007 4.17635361 -0.57935581 2.1226818 0 0 Z " fill="#3E9C38" transform="translate(562,170)"/>
<path d="M0 0 C2.15254408 1.57853232 2.89358061 2.92145152 3.875 5.375 C2.555 5.045 1.235 4.715 -0.125 4.375 C-0.455 5.035 -0.785 5.695 -1.125 6.375 C-1.455 5.385 -1.785 4.395 -2.125 3.375 C-3.115 3.87 -3.115 3.87 -4.125 4.375 C-4.125 3.715 -4.125 3.055 -4.125 2.375 C-4.785 2.045 -5.445 1.715 -6.125 1.375 C-2.73486547 -0.8043722 -2.73486547 -0.8043722 0 0 Z " fill="#3F9639" transform="translate(622.125,98.625)"/>
<path d="M0 0 C0.99 0.66 1.98 1.32 3 2 C2.34 5.63 1.68 9.26 1 13 C0.67 12.34 0.34 11.68 0 11 C-0.66 11 -1.32 11 -2 11 C-1.34 7.37 -0.68 3.74 0 0 Z " fill="#42993D" transform="translate(514,301)"/>
<path d="M0 0 C6.03280791 1.6166348 9.950809 3.16709462 14 8 C8.24857558 6.70886391 4.62256741 4.6791863 0 1 C0 0.67 0 0.34 0 0 Z " fill="#EDB13D" transform="translate(456,680)"/>
<path d="M0 0 C0.66 0 1.32 0 2 0 C4.43425238 4.96993194 5.34615998 8.34605369 5 14 C3.37723842 11.56585763 2.38255208 9.68680554 1.375 7 C0.98441406 5.9790625 0.98441406 5.9790625 0.5859375 4.9375 C0 3 0 3 0 0 Z " fill="#FEF5D4" transform="translate(581,364)"/>
<path d="M0 0 C1.2380014 3.57644848 0.74926071 6.33694766 0 10 C-0.99 10.33 -1.98 10.66 -3 11 C-2.88590407 9.54077307 -2.75834456 8.08259402 -2.625 6.625 C-2.55539062 5.81289063 -2.48578125 5.00078125 -2.4140625 4.1640625 C-2 2 -2 2 0 0 Z " fill="#C1FAB6" transform="translate(521,291)"/>
<path d="M0 0 C1.32 0.66 2.64 1.32 4 2 C-0.95 4.475 -0.95 4.475 -6 7 C-6.66 6.34 -7.32 5.68 -8 5 C-6.7636832 4.10577086 -5.51028438 3.23512109 -4.25 2.375 C-3.55390625 1.88773438 -2.8578125 1.40046875 -2.140625 0.8984375 C-1.43421875 0.60195312 -0.7278125 0.30546875 0 0 Z " fill="#99E780" transform="translate(581,140)"/>
<path d="M0 0 C-1.09987776 3.29963329 -1.45586748 3.61064772 -4.3125 5.25 C-4.90675781 5.60578125 -5.50101563 5.9615625 -6.11328125 6.328125 C-8.4491564 7.15994803 -9.69274206 6.7945524 -12 6 C-10.37829621 4.99466333 -8.75252763 3.99588093 -7.125 3 C-5.76761719 2.1646875 -5.76761719 2.1646875 -4.3828125 1.3125 C-2 0 -2 0 0 0 Z " fill="#D8F7DB" transform="translate(606,132)"/>
<path d="M0 0 C0.66 0.66 1.32 1.32 2 2 C-5.42857143 6.28571429 -5.42857143 6.28571429 -9 8 C-9.66 7.34 -10.32 6.68 -11 6 C-7.37 4.02 -3.74 2.04 0 0 Z " fill="#358C35" transform="translate(575,124)"/>
<path d="M0 0 C2.78637633 4.1795645 1.79562512 6.14668677 1 11 C0.01 11.33 -0.98 11.66 -2 12 C-1 3.42857143 -1 3.42857143 0 0 Z " fill="#40943D" transform="translate(521,270)"/>
<path d="M0 0 C4 1 4 1 7 3 C5.824375 3.12375 5.824375 3.12375 4.625 3.25 C1.85250896 3.72806339 1.85250896 3.72806339 0.6875 6.0625 C0.3471875 7.0215625 0.3471875 7.0215625 0 8 C-0.66 8 -1.32 8 -2 8 C-1.34 5.36 -0.68 2.72 0 0 Z " fill="#FDF2CC" transform="translate(469,336)"/>
<path d="M0 0 C0.33 0 0.66 0 1 0 C1.21192221 5.19209404 0.5912689 9.126739 -1 14 C-1.33 14 -1.66 14 -2 14 C-2.3690205 4.58997722 -2.3690205 4.58997722 0 0 Z " fill="#298E22" transform="translate(561,180)"/>
<path d="M0 0 C1.32 0 2.64 0 4 0 C3.125 4.75 3.125 4.75 2 7 C1.34 7 0.68 7 0 7 C0 4.69 0 2.38 0 0 Z " fill="#BDF3AA" transform="translate(530,242)"/>
<path d="M0 0 C0.66 0.33 1.32 0.66 2 1 C-0.35514485 4.53271727 -2.10064011 5.44025604 -6 7 C-8.1953125 6.578125 -8.1953125 6.578125 -10 6 C-8.3811004 4.96951963 -6.75467511 3.95085322 -5.125 2.9375 C-4.22007812 2.36902344 -3.31515625 1.80054687 -2.3828125 1.21484375 C-1.20332031 0.61349609 -1.20332031 0.61349609 0 0 Z " fill="#299F22" transform="translate(619,105)"/>
<path d="M0 0 C0.66 0 1.32 0 2 0 C1.67 2.64 1.34 5.28 1 8 C0.34 8 -0.32 8 -1 8 C-1.33 9.32 -1.66 10.64 -2 12 C-1.85831863 10.56208484 -1.71148957 9.1246763 -1.5625 7.6875 C-1.48128906 6.88699219 -1.40007813 6.08648437 -1.31640625 5.26171875 C-1 3 -1 3 0 0 Z " fill="#E8FDDF" transform="translate(548,140)"/>
<path d="M0 0 C-1.26239712 0.86658615 -2.53527501 1.71792059 -3.8125 2.5625 C-4.87404297 3.27599609 -4.87404297 3.27599609 -5.95703125 4.00390625 C-8 5 -8 5 -11 4 C-4.14893617 -1.38297872 -4.14893617 -1.38297872 0 0 Z " fill="#A2F193" transform="translate(628,116)"/>
<path d="M0 0 C2.475 0.495 2.475 0.495 5 1 C5.0825 1.61875 5.165 2.2375 5.25 2.875 C5.81258459 5.18437567 5.81258459 5.18437567 8.0625 6.25 C8.701875 6.4975 9.34125 6.745 10 7 C6.433255 7 5.89456323 6.36308045 3.3125 4.0625 C2.68988281 3.51722656 2.06726563 2.97195313 1.42578125 2.41015625 C0.95527344 1.94480469 0.48476563 1.47945312 0 1 C0 0.67 0 0.34 0 0 Z " fill="#FEF1C4" transform="translate(463,664)"/>
<path d="M0 0 C0.33 0 0.66 0 1 0 C1.02712066 1.43739513 1.04645067 2.87493863 1.0625 4.3125 C1.07410156 5.11300781 1.08570313 5.91351563 1.09765625 6.73828125 C1 9 1 9 0 12 C-0.66 12 -1.32 12 -2 12 C-1 3.42857143 -1 3.42857143 0 0 Z " fill="#F0AC34" transform="translate(470,370)"/>
<path d="M0 0 C0.66 1.98 1.32 3.96 2 6 C1.34 6 0.68 6 0 6 C-0.33 5.34 -0.66 4.68 -1 4 C-4.02934491 3.34227572 -4.02934491 3.34227572 -7 3 C-4.74624683 0.74624683 -3.20799182 0 0 0 Z " fill="#EFB846" transform="translate(566,328)"/>
<path d="M0 0 C0.66 0.66 1.32 1.32 2 2 C1.96712417 4.72869407 1.43602229 7.2966618 1 10 C0.67 9.34 0.34 8.68 0 8 C-0.66 8 -1.32 8 -2 8 C-1.47731534 5.23723823 -0.89130413 2.6739124 0 0 Z " fill="#3B993C" transform="translate(541,181)"/>
<path d="M0 0 C0.99 0.33 1.98 0.66 3 1 C2.34 3.31 1.68 5.62 1 8 C0.01 7.67 -0.98 7.34 -2 7 C-1.125 1.125 -1.125 1.125 0 0 Z " fill="#389629" transform="translate(568,150)"/>
<path d="M0 0 C0.66 0.66 1.32 1.32 2 2 C-4.625 6 -4.625 6 -8 6 C-8 5.34 -8 4.68 -8 4 C-5.36 2.68 -2.72 1.36 0 0 Z " fill="#99ED8E" transform="translate(591,135)"/>
<path d="M0 0 C0.33 0.66 0.66 1.32 1 2 C3.02463255 2.65213292 3.02463255 2.65213292 5 3 C1.78548731 4.60725635 -1.43612536 4.05748185 -5 4 C-3.36587557 2.29159719 -2.13093906 1.06546953 0 0 Z " fill="#9FE797" transform="translate(581,123)"/>
<path d="M0 0 C0.66 0.33 1.32 0.66 2 1 C0 4 0 4 -2.3828125 4.51171875 C-3.28773438 4.56972656 -4.19265625 4.62773438 -5.125 4.6875 C-6.03507813 4.75324219 -6.94515625 4.81898438 -7.8828125 4.88671875 C-8.93082031 4.94279297 -8.93082031 4.94279297 -10 5 C-9.67 4.34 -9.34 3.68 -9 3 C-7.00239695 2.65259077 -5.00212229 2.32033957 -3 2 C-2.01 1.34 -1.02 0.68 0 0 Z " fill="#EFB036" transform="translate(561,675)"/>
<path d="M0 0 C1.39195915 4.17587745 -0.17676781 6.13474776 -2 10 C-2.33 10 -2.66 10 -3 10 C-3.29296875 3.9453125 -3.29296875 3.9453125 -3 2 C-2.01 1.34 -1.02 0.68 0 0 Z " fill="#EBA82F" transform="translate(462,352)"/>
<path d="M0 0 C0.99 0 1.98 0 3 0 C2.40138258 2.35171131 1.73075648 4.6859378 1 7 C0.01 7.495 0.01 7.495 -1 8 C-1.125 2.25 -1.125 2.25 0 0 Z " fill="#FCEEBC" transform="translate(452,351)"/>
<path d="M0 0 C0.33 0 0.66 0 1 0 C1 1.98 1 3.96 1 6 C1.99 6.33 2.98 6.66 4 7 C2.35 7 0.7 7 -1 7 C-1.625 4.625 -1.625 4.625 -2 2 C-1.34 1.34 -0.68 0.68 0 0 Z " fill="#32992A" transform="translate(509,329)"/>
<path d="M0 0 C0.33 0 0.66 0 1 0 C0.67 2.97 0.34 5.94 0 9 C-0.66 9 -1.32 9 -2 9 C-2.25 3.375 -2.25 3.375 0 0 Z " fill="#BDF8B0" transform="translate(517,308)"/>
<path d="M0 0 C0.33 0.99 0.66 1.98 1 3 C0.01 3.495 0.01 3.495 -1 4 C-1 4.66 -1 5.32 -1 6 C-2.32 6.33 -3.64 6.66 -5 7 C-5 5.68 -5 4.36 -5 3 C-2.5 1.25 -2.5 1.25 0 0 Z " fill="#A7EC99" transform="translate(614,104)"/>
<path d="M0 0 C1.125 1.5625 1.125 1.5625 2 4 C1.125 7.75 1.125 7.75 0 11 C-0.33 11 -0.66 11 -1 11 C-1.125 3.375 -1.125 3.375 0 0 Z " fill="#97E880" transform="translate(525,327)"/>
<path d="M0 0 C0.66 0 1.32 0 2 0 C2 1.98 2 3.96 2 6 C1.01 6.33 0.02 6.66 -1 7 C-1.04254356 5.00045254 -1.04080783 2.99958364 -1 1 C-0.67 0.67 -0.34 0.34 0 0 Z " fill="#CEFDC2" transform="translate(513,320)"/>
<path d="M0 0 C0.99 0 1.98 0 3 0 C2.67 2.64 2.34 5.28 2 8 C1.67 7.34 1.34 6.68 1 6 C0.34 5.67 -0.32 5.34 -1 5 C-0.67 3.35 -0.34 1.7 0 0 Z " fill="#4CA244" transform="translate(547,240)"/>
<path d="M0 0 C0.33 0 0.66 0 1 0 C0.67 2.97 0.34 5.94 0 9 C-0.66 9 -1.32 9 -2 9 C-1.125 1.125 -1.125 1.125 0 0 Z " fill="#CAF9B9" transform="translate(544,186)"/>
<path d="M0 0 C0.33 0 0.66 0 1 0 C0.67 3.63 0.34 7.26 0 11 C-2 8 -2 8 -1.6875 4.375 C-1 1 -1 1 0 0 Z " fill="#A0F095" transform="translate(564,157)"/>
<path d="M0 0 C-1 3 -1 3 -2.875 4.1875 C-5 5 -5 5 -8 5 C-8 4.34 -8 3.68 -8 3 C-2.25 0 -2.25 0 0 0 Z " fill="#1F851D" transform="translate(578,146)"/>
<path d="M0 0 C2.18975773 3.28463659 2.99806563 6.20696275 4 10 C3.01 9.67 2.02 9.34 1 9 C0.67 6.03 0.34 3.06 0 0 Z " fill="#EFB042" transform="translate(580,364)"/>
<path d="M0 0 C0.33 0 0.66 0 1 0 C0.25 6.625 0.25 6.625 -2 10 C-2.25 3.375 -2.25 3.375 0 0 Z " fill="#309025" transform="translate(536,295)"/>
<path d="M0 0 C0.33 0 0.66 0 1 0 C1.25 6.625 1.25 6.625 -1 10 C-2.46726798 6.18510326 -1.43336419 3.70988378 0 0 Z " fill="#9BF496" transform="translate(537,278)"/>
<path d="M0 0 C0.66 0 1.32 0 2 0 C1.34 3.3 0.68 6.6 0 10 C-0.33 10 -0.66 10 -1 10 C-1.125 2.25 -1.125 2.25 0 0 Z " fill="#318332" transform="translate(528,242)"/>
<path d="M0 0 C0.33 0.66 0.66 1.32 1 2 C-3.30769231 5.93846154 -3.30769231 5.93846154 -6.8125 6.25 C-7.534375 6.1675 -8.25625 6.085 -9 6 C-6.11964908 3.75972706 -3.15133488 1.83827868 0 0 Z " fill="#299D22" transform="translate(574,132)"/>
<path d="M0 0 C0.66 0.33 1.32 0.66 2 1 C1.74438677 3.3431213 1.40729228 5.67843403 1 8 C0.01 8.495 0.01 8.495 -1 9 C-0.67 6.03 -0.34 3.06 0 0 Z " fill="#298720" transform="translate(564,164)"/>
<path d="M0 0 C0 1.32 0 2.64 0 4 C-1.65 4.66 -3.3 5.32 -5 6 C-5 3 -5 3 -3.625 1.3125 C-2 0 -2 0 0 0 Z " fill="#C3FCB7" transform="translate(559,138)"/>
<path d="M0 0 C1.98 0 3.96 0 6 0 C3.94766315 2.2477975 2.99332739 3.0022242 0 4 C0 2.68 0 1.36 0 0 Z " fill="#ABF0A8" transform="translate(576,127)"/>
</svg>
