<svg version="1.1" xmlns="http://www.w3.org/2000/svg" width="1024" height="768">
<path d="M0 0 C337.92 0 675.84 0 1024 0 C1024 253.44 1024 506.88 1024 768 C686.08 768 348.16 768 0 768 C0 514.56 0 261.12 0 0 Z " fill="#FCE9E7" transform="translate(0,0)" data-index="0" style="visibility: visible; opacity: 1; fill: rgb(255, 255, 255);"></path>
<path d="M0 0 C1.3271261 3.9813783 1.06915913 7.85045227 1 12 C1.81404297 11.45859375 1.81404297 11.45859375 2.64453125 10.90625 C3.35996094 10.4421875 4.07539063 9.978125 4.8125 9.5 C5.52019531 9.0359375 6.22789062 8.571875 6.95703125 8.09375 C9 7 9 7 12 7 C12.02691685 9.45840605 12.04679802 11.91651882 12.0625 14.375 C12.07087891 15.07367188 12.07925781 15.77234375 12.08789062 16.4921875 C12.11328125 21.7734375 12.11328125 21.7734375 11 24 C11.6290625 24.14695313 12.258125 24.29390625 12.90625 24.4453125 C22.70073684 27.01194007 29.84194092 32.04575486 35.12109375 40.875 C39.31345725 48.73760114 40.3146158 56.15312906 40.1875 64.9375 C40.1865332 66.20110352 40.1865332 66.20110352 40.18554688 67.49023438 C40.14695922 73.05971951 39.69694028 78.47465743 39 84 C21.45355277 84.26400339 4.06176965 82.67908914 -13.05078125 78.8046875 C-16.09059917 78.12980654 -18.87022928 77.81258858 -22 78 C-22.495 79.485 -22.495 79.485 -23 81 C-18.38 81.99 -13.76 82.98 -9 84 C-9 86.31 -9 88.62 -9 91 C-8.34 91 -7.68 91 -7 91 C-7 89.02 -7 87.04 -7 85 C1.25 85.99 9.5 86.98 18 88 C18 89.65 18 91.3 18 93 C18.66 93 19.32 93 20 93 C20 91.68 20 90.36 20 89 C22.81256281 88.97315688 25.62487241 88.95323812 28.4375 88.9375 C29.23994141 88.92912109 30.04238281 88.92074219 30.86914062 88.91210938 C32.91295221 88.9034857 34.95683902 88.9477185 37 89 C37.33 89.33 37.66 89.66 38 90 C40.48991025 90.10386243 42.95297347 90.14361526 45.44360352 90.1418457 C46.22449844 90.14532013 47.00539337 90.14879456 47.80995178 90.15237427 C49.51616764 90.15975204 51.22239323 90.16508658 52.92862129 90.16866493 C55.65317037 90.1758452 58.37754085 90.191535 61.10203552 90.21000671 C68.85323239 90.2623195 76.60434438 90.31018259 84.35571289 90.32592773 C144.19984967 90.46656644 144.19984967 90.46656644 160 101 C161.31891841 108.31745188 159.44968419 116.60120071 158.4375 123.875 C158.26259033 125.15890625 158.08768066 126.4428125 157.9074707 127.765625 C156.0696161 141.07187063 153.92255818 154.33064064 151.7878418 167.59179688 C149.70560589 180.52859668 147.67300444 193.47194022 145.69937134 206.42578125 C145.40627163 208.34939113 145.1125005 210.27289886 144.81796265 212.19628906 C143.12200021 223.27718385 141.52651532 234.36647539 140.03041077 245.47613525 C139.18682428 251.71189492 138.26353893 257.92467602 137.1875 264.125 C136.8498639 266.10670332 136.51265532 268.0884795 136.17578125 270.0703125 C135.99225098 271.14571289 135.8087207 272.22111328 135.61962891 273.32910156 C134.89343118 277.63135096 134.18625081 281.93655141 133.48046875 286.2421875 C133.07850681 288.68573044 132.67622647 291.12922075 132.27383423 293.57269287 C132.01040635 295.17591626 131.74799653 296.77930729 131.48666382 298.38287354 C131.11659646 300.65160283 130.74230551 302.91960107 130.3671875 305.1875 C130.25896164 305.85748016 130.15073578 306.52746033 130.03923035 307.21774292 C126.388949 329.13040361 117.54858485 351.66228722 101 367 C100.42765625 367.55429687 99.8553125 368.10859375 99.265625 368.6796875 C94.30707501 373.30105609 89.24422206 376.38547144 83 379 C81.86304688 379.48146484 81.86304688 379.48146484 80.703125 379.97265625 C70.54465387 383.6372054 58.44058897 383.50085136 48.51953125 379.26171875 C29.81156524 369.89323345 18.78631899 355.63179893 10 337 C9.70464355 336.38624512 9.40928711 335.77249023 9.10498047 335.14013672 C3.24088582 322.60585063 1.6122299 308.94943155 -0.47705078 295.39160156 C-0.92528685 292.4845542 -1.39120407 289.58163523 -1.87109375 286.6796875 C-3.37676136 277.51112881 -4.64825512 268.31760324 -5.87768555 259.10839844 C-6.6356824 253.4910564 -7.47874216 247.89892245 -8.4375 242.3125 C-10.95067801 227.63540753 -13.07237144 212.8914789 -15.07421875 198.13671875 C-15.25025635 196.84032471 -15.42629395 195.54393066 -15.60766602 194.20825195 C-15.94396407 191.71640872 -16.27668254 189.22407886 -16.60522461 186.73120117 C-17.55530689 179.64754712 -17.55530689 179.64754712 -18.9921875 172.65234375 C-20.74236375 165.25441157 -21.36703343 157.59429546 -22.25 150.05200195 C-22.49363005 147.98566703 -22.74630572 145.9205886 -23 143.85546875 C-23.144375 142.63496826 -23.28875 141.41446777 -23.4375 140.15698242 C-24.28760634 135.38583437 -25.69613614 132.98686845 -29.4375 130 C-44.80321026 116.90863675 -65.31863076 94.01711554 -67 73 C-67.80029596 61.79585657 -65.61731571 53.59492766 -58.59375 44.76171875 C-56.26480242 42.18731836 -53.75984929 40.10274231 -51 38 C-52.3303125 37.0409375 -52.3303125 37.0409375 -53.6875 36.0625 C-59.0272047 31.57056832 -62.0284893 25.85203883 -62.8125 18.9375 C-62.874375 17.638125 -62.93625 16.33875 -63 15 C-56.13968003 15.22130064 -50.21368268 16.70817488 -43.75 18.875 C-42.98187988 19.13168457 -42.21375977 19.38836914 -41.42236328 19.65283203 C-37.10067255 21.14465454 -33.04735527 22.8474257 -29 25 C-29.37137085 24.21351074 -29.37137085 24.21351074 -29.75024414 23.41113281 C-30.86650027 21.02957573 -31.96460567 18.6400738 -33.0625 16.25 C-33.45244141 15.425 -33.84238281 14.6 -34.24414062 13.75 C-34.60830078 12.95078125 -34.97246094 12.1515625 -35.34765625 11.328125 C-35.68804932 10.5949707 -36.02844238 9.86181641 -36.37915039 9.10644531 C-37.10491556 6.64403797 -36.88517644 5.38254311 -36 3 C-35 2 -35 2 -32.4375 1.9375 C-31.2309375 1.9684375 -31.2309375 1.9684375 -30 2 C-27.8568832 6.94911957 -25.80439587 11.92579162 -23.8125 16.9375 C-23.53986328 17.62134766 -23.26722656 18.30519531 -22.98632812 19.00976562 C-22.32341725 20.67285783 -21.66159285 22.33638303 -21 24 C-20.76925781 23.27554688 -20.53851563 22.55109375 -20.30078125 21.8046875 C-17.438423 13.31943578 -10.43883503 0 0 0 Z " fill="#FBAFB7" transform="translate(460,157)" data-index="1" style="visibility: visible; opacity: 1;"></path>
<path d="M0 0 C0.97409821 0.00060425 1.94819641 0.0012085 2.95181274 0.00183105 C31.35318861 0.04957669 59.299216 1.93167305 86.875 9.1875 C86.875 9.8475 86.875 10.5075 86.875 11.1875 C88.525 11.1875 90.175 11.1875 91.875 11.1875 C91.875 11.8475 91.875 12.5075 91.875 13.1875 C93.855 14.1775 93.855 14.1775 95.875 15.1875 C96.1590166 24.07141706 95.3154839 32.481445 93.9375 41.25 C92.77118935 48.85368607 91.66999663 56.39953536 91.11889648 64.07592773 C90.875 66.1875 90.875 66.1875 89.875 68.1875 C89.56553701 70.28633318 89.30473268 72.39234932 89.0625 74.5 C86.73489714 93.89593505 83.94254712 113.20219943 80.65869141 132.45898438 C79.45440724 139.56435353 78.35655317 146.66491973 77.4375 153.8125 C76.06372314 164.46565437 74.26416583 175.03972237 72.47253418 185.62866211 C70.80366085 195.49904528 69.21068637 205.36720206 67.84765625 215.28540039 C67.01247882 221.33981532 66.04103436 227.36226818 64.99267578 233.38330078 C64.30971433 237.36240822 63.71585676 241.33538452 63.23046875 245.34375 C60.95595526 263.84708701 55.20707078 280.52335844 46.875 297.1875 C46.215 297.1875 45.555 297.1875 44.875 297.1875 C44.79507813 297.72761719 44.71515625 298.26773437 44.6328125 298.82421875 C40.63175877 311.30173167 26.49912841 322.66946663 15.33984375 328.515625 C9.55391725 331.1875 9.55391725 331.1875 5.875 331.1875 C5.875 357.5875 5.875 383.9875 5.875 411.1875 C11.485 411.5175 17.095 411.8475 22.875 412.1875 C23.535 412.5175 24.195 412.8475 24.875 413.1875 C26.07125 413.27 27.2675 413.3525 28.5 413.4375 C40.4420755 414.69151439 54.01554615 419.04221913 62.4375 427.875 C64.61858627 431.383704 65.51500609 434.8416754 65.484375 438.9921875 C64.18074744 443.68858937 59.73336106 446.52676478 55.875 449.1875 C51.32729845 451.74081847 46.74264533 453.34526719 41.75 454.75 C40.98171875 454.96688477 40.2134375 455.18376953 39.421875 455.40722656 C31.63304337 457.47026516 23.82655422 458.21876143 15.8125 458.828125 C12.09327216 458.92666969 12.09327216 458.92666969 9.875 460.1875 C7.33721348 460.31118477 4.82802006 460.37545122 2.2890625 460.390625 C1.52455276 460.39763931 0.76004303 460.40465363 -0.02763367 460.41188049 C-2.51848136 460.42949851 -5.00909207 460.43574389 -7.5 460.4375 C-8.3454538 460.43817474 -9.19090759 460.43884949 -10.0619812 460.43954468 C-22.66583001 460.42349761 -34.7832285 459.93779994 -47.125 457.1875 C-47.97320312 457.01057617 -48.82140625 456.83365234 -49.6953125 456.65136719 C-59.99327711 454.47843661 -69.27381754 452.09505527 -78.125 446.1875 C-78.125 445.5275 -78.125 444.8675 -78.125 444.1875 C-79.115 443.8575 -80.105 443.5275 -81.125 443.1875 C-81.125 442.5275 -81.125 441.8675 -81.125 441.1875 C-81.785 441.1875 -82.445 441.1875 -83.125 441.1875 C-83.47604079 436.18516871 -83.54703838 432.29071162 -80.69921875 427.9140625 C-70.10887027 416.29884158 -53.13557985 414.37546112 -38.515625 411.921875 C-37.67032227 411.77975586 -36.82501953 411.63763672 -35.95410156 411.49121094 C-32.3636118 411.10576312 -28.73611988 411.1875 -25.125 411.1875 C-25.455 384.7875 -25.785 358.3875 -26.125 331.1875 C-29.095 329.8675 -32.065 328.5475 -35.125 327.1875 C-37.64785219 325.56955574 -40.0395447 323.96376318 -42.4375 322.1875 C-43.03111328 321.76210938 -43.62472656 321.33671875 -44.23632812 320.8984375 C-47.45965605 318.55550572 -50.49924761 316.1957694 -53.125 313.1875 C-53.125 312.5275 -53.125 311.8675 -53.125 311.1875 C-53.785 311.1875 -54.445 311.1875 -55.125 311.1875 C-73.21778044 289.27098761 -79.67237177 263.33876415 -83.13671875 235.8125 C-84.08668906 228.28203624 -85.26361369 220.80060995 -86.5 213.3125 C-88.74951452 199.60443849 -90.8833097 185.88083291 -92.98193359 172.14892578 C-93.21971321 170.59407348 -93.45750605 169.0392232 -93.6953125 167.484375 C-93.8115094 166.7234404 -93.9277063 165.9625058 -94.04742432 165.17851257 C-94.78899292 160.33587493 -95.55124346 155.49685918 -96.3237915 150.65907288 C-97.50045252 143.2841213 -98.60270566 135.91498759 -99.5 128.5 C-100.35725764 121.62142741 -101.32731379 114.76949191 -102.42578125 107.92578125 C-102.53966187 107.21374039 -102.65354248 106.50169952 -102.77087402 105.76808167 C-103.33686038 102.23985597 -103.9119996 98.71342419 -104.49951172 95.1887207 C-105.59550079 88.42760191 -106.4035278 82.03777829 -106.125 75.1875 C-103.8125 75.375 -103.8125 75.375 -101.125 76.1875 C-97.9063006 80.29326206 -97.37864277 84.60043935 -96.80859375 89.63671875 C-96.70660172 90.44937698 -96.60460968 91.26203522 -96.49952698 92.09931946 C-96.17620976 94.69000086 -95.86859563 97.28223251 -95.5625 99.875 C-95.14987404 103.27540863 -94.73082254 106.67499001 -94.30859375 110.07421875 C-94.15789429 111.29634819 -94.15789429 111.29634819 -94.00415039 112.54316711 C-93.38824638 117.4322823 -92.61504243 122.24024527 -91.56958008 127.05834961 C-90.77071434 130.88421898 -90.27786396 134.7541253 -89.75 138.625 C-89.49014806 140.4792459 -89.22970207 142.33340861 -88.96875 144.1875 C-88.83210938 145.16203125 -88.69546875 146.1365625 -88.5546875 147.140625 C-86.23305661 163.6030986 -83.68144123 180.01607461 -80.9128418 196.40917969 C-79.29308691 206.04881873 -77.85943693 215.70261472 -76.51513672 225.38378906 C-75.73253609 231.00793524 -74.93468926 236.62969124 -74.125 242.25 C-73.97087646 243.35625732 -73.81675293 244.46251465 -73.65795898 245.60229492 C-69.92061329 271.38358 -60.16386823 298.82761147 -39.15625 315.55078125 C-27.03988431 323.49789189 -14.61107003 327.5147061 -0.07373047 324.80517578 C9.1858893 322.52388624 17.84892062 318.42898278 24.515625 311.4765625 C25.875 310.1875 25.875 310.1875 27.875 310.1875 C28.14183594 309.60355469 28.40867187 309.01960938 28.68359375 308.41796875 C29.89904896 306.14247719 31.26058345 304.45442047 32.9375 302.5 C49.70877398 281.15156583 54.13858865 255.00144287 57.765625 228.82421875 C58.64822826 222.52752866 59.69087854 216.26463104 60.75390625 209.99609375 C62.7896185 197.94174917 64.57658163 185.85787206 66.30990601 173.75680542 C67.17438224 167.72499848 68.04877977 161.69462679 68.921875 155.6640625 C69.09220749 154.48619675 69.26253998 153.30833099 69.43803406 152.09477234 C72.26333491 132.57147145 75.1945685 113.07372449 78.5 93.625 C80.05909284 84.4147587 81.50173162 75.20376467 82.6875 65.9375 C82.81141113 64.99189209 82.93532227 64.04628418 83.06298828 63.07202148 C83.79489278 57.08366298 84.01412846 51.21802696 83.875 45.1875 C76.8215262 41.59889052 69.91274739 39.86971414 62.11865234 38.56526184 C60.51134543 38.29464094 58.90775531 38.00157231 57.30712891 37.69389343 C47.28350981 35.91551438 37.40925119 35.85658038 27.265625 35.80859375 C25.40329137 35.79238686 23.54096601 35.77520362 21.6786499 35.75709534 C16.8196188 35.71178832 11.96057624 35.67676919 7.10144043 35.64489746 C-0.71680889 35.59263258 -8.53493856 35.52801871 -16.35303497 35.45668221 C-19.08135359 35.43382847 -21.80965652 35.41758464 -24.5380249 35.40196228 C-26.19429713 35.38856703 -27.85056761 35.37495323 -29.50683594 35.36108398 C-30.26827911 35.35847061 -31.02972229 35.35585724 -31.8142395 35.35316467 C-37.01134204 35.30115796 -37.01134204 35.30115796 -38.125 34.1875 C-40.98377909 33.95048761 -43.82383297 33.76530818 -46.6875 33.625 C-47.89696289 33.56022461 -47.89696289 33.56022461 -49.13085938 33.49414062 C-51.12868805 33.38774738 -53.1268207 33.28709112 -55.125 33.1875 C-55.125 34.5075 -55.125 35.8275 -55.125 37.1875 C-55.785 37.1875 -56.445 37.1875 -57.125 37.1875 C-57.125 35.5375 -57.125 33.8875 -57.125 32.1875 C-58.8575 32.2803125 -58.8575 32.2803125 -60.625 32.375 C-67.90795298 32.4100704 -75.02434355 30.6511936 -82.125 29.1875 C-82.125 31.1675 -82.125 33.1475 -82.125 35.1875 C-82.785 35.1875 -83.445 35.1875 -84.125 35.1875 C-84.125 32.8775 -84.125 30.5675 -84.125 28.1875 C-84.71667969 28.13851562 -85.30835938 28.08953125 -85.91796875 28.0390625 C-90.31604472 27.62293133 -94.09428897 27.13784405 -98.125 25.1875 C-97.795 23.8675 -97.465 22.5475 -97.125 21.1875 C-91.70590584 21.67134769 -86.51347226 22.509082 -81.1875 23.625 C-70.63484856 25.73219571 -59.92517177 26.31334927 -49.20361328 26.9921875 C-46.57080667 27.15921726 -43.93990771 27.34261729 -41.30859375 27.53125 C-2.0787422 30.12583944 46.48991145 32.27228099 83.875 19.1875 C84.535 19.1875 85.195 19.1875 85.875 19.1875 C85.29555068 17.18886244 85.29555068 17.18886244 83.875 15.1875 C75.9882988 12.01140766 67.24466075 11.31678372 58.875 10.1875 C57.91239258 10.05166504 56.94978516 9.91583008 55.95800781 9.77587891 C26.19404955 5.74146365 -4.14378166 6.43594841 -34.125 6.1875 C-34.125 4.5375 -34.125 2.8875 -34.125 1.1875 C-22.75283538 0.03918359 -11.41904005 -0.01305572 0 0 Z " fill="#FCFAFA" transform="translate(535.125,212.8125)" data-index="2" style="visibility: visible; opacity: 1;"></path>
<path d="M0 0 C1.3271261 3.9813783 1.06915913 7.85045227 1 12 C1.81404297 11.45859375 1.81404297 11.45859375 2.64453125 10.90625 C3.35996094 10.4421875 4.07539063 9.978125 4.8125 9.5 C5.52019531 9.0359375 6.22789062 8.571875 6.95703125 8.09375 C9 7 9 7 12 7 C12.02691685 9.45840605 12.04679802 11.91651882 12.0625 14.375 C12.07087891 15.07367188 12.07925781 15.77234375 12.08789062 16.4921875 C12.11328125 21.7734375 12.11328125 21.7734375 11 24 C11.6290625 24.14695313 12.258125 24.29390625 12.90625 24.4453125 C22.70073684 27.01194007 29.84194092 32.04575486 35.12109375 40.875 C39.31345725 48.73760114 40.3146158 56.15312906 40.1875 64.9375 C40.1865332 66.20110352 40.1865332 66.20110352 40.18554688 67.49023438 C40.14695922 73.05971951 39.69694028 78.47465743 39 84 C21.45355277 84.26400339 4.06176965 82.67908914 -13.05078125 78.8046875 C-16.09059917 78.12980654 -18.87022928 77.81258858 -22 78 C-22.495 79.485 -22.495 79.485 -23 81 C-18.38 81.99 -13.76 82.98 -9 84 C-9 86.31 -9 88.62 -9 91 C-8.34 91 -7.68 91 -7 91 C-7 89.02 -7 87.04 -7 85 C1.25 85.99 9.5 86.98 18 88 C18 89.65 18 91.3 18 93 C18.66 93 19.32 93 20 93 C20 91.68 20 90.36 20 89 C25.61 89 31.22 89 37 89 C36.02130482 106.9427449 28.12205018 126.61806914 19.875 142.4375 C19.40646606 143.35039795 19.40646606 143.35039795 18.9284668 144.28173828 C16.48343438 148.75866596 13.71325292 151.94288847 8.89453125 153.8203125 C3.12939716 154.66399066 -0.28265085 153.4031726 -5.07421875 150.19140625 C-29.85471999 131.63084391 -58.59231054 107.39614295 -66.75 76.125 C-67.74224909 63.72188634 -66.49718818 54.70150198 -58.59375 44.76171875 C-56.26480242 42.18731836 -53.75984929 40.10274231 -51 38 C-52.3303125 37.0409375 -52.3303125 37.0409375 -53.6875 36.0625 C-59.0272047 31.57056832 -62.0284893 25.85203883 -62.8125 18.9375 C-62.874375 17.638125 -62.93625 16.33875 -63 15 C-56.13968003 15.22130064 -50.21368268 16.70817488 -43.75 18.875 C-42.98187988 19.13168457 -42.21375977 19.38836914 -41.42236328 19.65283203 C-37.10067255 21.14465454 -33.04735527 22.8474257 -29 25 C-29.37137085 24.21351074 -29.37137085 24.21351074 -29.75024414 23.41113281 C-30.86650027 21.02957573 -31.96460567 18.6400738 -33.0625 16.25 C-33.45244141 15.425 -33.84238281 14.6 -34.24414062 13.75 C-34.60830078 12.95078125 -34.97246094 12.1515625 -35.34765625 11.328125 C-35.68804932 10.5949707 -36.02844238 9.86181641 -36.37915039 9.10644531 C-37.10491556 6.64403797 -36.88517644 5.38254311 -36 3 C-35 2 -35 2 -32.4375 1.9375 C-31.2309375 1.9684375 -31.2309375 1.9684375 -30 2 C-27.8568832 6.94911957 -25.80439587 11.92579162 -23.8125 16.9375 C-23.53986328 17.62134766 -23.26722656 18.30519531 -22.98632812 19.00976562 C-22.32341725 20.67285783 -21.66159285 22.33638303 -21 24 C-20.76925781 23.27554688 -20.53851563 22.55109375 -20.30078125 21.8046875 C-17.438423 13.31943578 -10.43883503 0 0 0 Z " fill="#DC2327" transform="translate(460,157)" data-index="3" style="visibility: visible;"></path>
<path d="M0 0 C1.3271261 3.9813783 1.06915913 7.85045227 1 12 C1.81404297 11.45859375 1.81404297 11.45859375 2.64453125 10.90625 C3.35996094 10.4421875 4.07539063 9.978125 4.8125 9.5 C5.52019531 9.0359375 6.22789062 8.571875 6.95703125 8.09375 C9 7 9 7 12 7 C12.08139142 9.39652528 12.14067009 11.79025436 12.1875 14.1875 C12.21263672 14.86103516 12.23777344 15.53457031 12.26367188 16.22851562 C12.32869757 20.6719384 11.80384843 23.50367569 9 27 C8.34 27 7.68 27 7 27 C6.7525 27.61875 6.505 28.2375 6.25 28.875 C5 31 5 31 2.96484375 31.63671875 C2.31644531 32.08660156 1.66804688 32.53648437 1 33 C0.55845321 35.76041835 0.34901808 38.16942988 0.3125 40.9375 C0.0846657 48.74600291 0.0846657 48.74600291 -1 52 C-2.98 52 -4.96 52 -7 52 C-7 51.34 -7 50.68 -7 50 C-7.721875 50.0825 -8.44375 50.165 -9.1875 50.25 C-12.89340735 49.92058601 -14.40311527 48.59688473 -17 46 C-17 45.01 -17 44.02 -17 43 C-19.28528995 42.41231617 -19.28528995 42.41231617 -22 43 C-23.43054031 44.60256731 -24.52309078 46.31948579 -25.69140625 48.12109375 C-29.30057236 53.30320987 -34.21885044 55.96589182 -40 58 C-41.32 58 -42.64 58 -44 58 C-44.10844783 53.01139988 -43.7731521 48.19319379 -43.21875 43.234375 C-42.95128187 40.87655537 -42.95128187 40.87655537 -43 38 C-44.03125 38.0825 -45.0625 38.165 -46.125 38.25 C-50.87014894 37.94386136 -52.45782899 37.16534431 -56 34 C-60.70266891 27.87993789 -62.75189061 22.69139095 -63 15 C-56.13968003 15.22130064 -50.21368268 16.70817488 -43.75 18.875 C-42.98187988 19.13168457 -42.21375977 19.38836914 -41.42236328 19.65283203 C-37.10067255 21.14465454 -33.04735527 22.8474257 -29 25 C-29.37137085 24.21351074 -29.37137085 24.21351074 -29.75024414 23.41113281 C-30.86650027 21.02957573 -31.96460567 18.6400738 -33.0625 16.25 C-33.45244141 15.425 -33.84238281 14.6 -34.24414062 13.75 C-34.60830078 12.95078125 -34.97246094 12.1515625 -35.34765625 11.328125 C-35.68804932 10.5949707 -36.02844238 9.86181641 -36.37915039 9.10644531 C-37.10491556 6.64403797 -36.88517644 5.38254311 -36 3 C-35 2 -35 2 -32.4375 1.9375 C-31.2309375 1.9684375 -31.2309375 1.9684375 -30 2 C-27.8568832 6.94911957 -25.80439587 11.92579162 -23.8125 16.9375 C-23.53986328 17.62134766 -23.26722656 18.30519531 -22.98632812 19.00976562 C-22.32341725 20.67285783 -21.66159285 22.33638303 -21 24 C-20.76925781 23.27554688 -20.53851563 22.55109375 -20.30078125 21.8046875 C-17.438423 13.31943578 -10.43883503 0 0 0 Z " fill="#53AF32" transform="translate(460,157)" data-index="4" style="visibility: visible;"></path>
<path d="M0 0 C1.3271261 3.9813783 1.06915913 7.85045227 1 12 C1.54269531 11.6390625 2.08539063 11.278125 2.64453125 10.90625 C3.35996094 10.4421875 4.07539063 9.978125 4.8125 9.5 C5.52019531 9.0359375 6.22789062 8.571875 6.95703125 8.09375 C9 7 9 7 12 7 C12.08139142 9.39652528 12.14067009 11.79025436 12.1875 14.1875 C12.21263672 14.86103516 12.23777344 15.53457031 12.26367188 16.22851562 C12.32869757 20.6719384 11.80384843 23.50367569 9 27 C8.34 27 7.68 27 7 27 C6.7525 27.928125 6.7525 27.928125 6.5 28.875 C4.09818625 32.27756949 0.99837866 32.22612026 -3 33 C-3 32.34 -3 31.68 -3 31 C-3.556875 30.896875 -4.11375 30.79375 -4.6875 30.6875 C-7.47129258 29.85988599 -9.59851873 28.62262248 -12 27 C-12.33 26.34 -12.66 25.68 -13 25 C-15.02463255 24.34786708 -15.02463255 24.34786708 -17 24 C-16.65178298 16.47851243 -15.45809224 10.28925229 -9.83984375 4.9453125 C-3.73268072 0 -3.73268072 0 0 0 Z " fill="#389A25" transform="translate(460,157)" data-index="5" style="visibility: visible;"></path>
<path d="M0 0 C3.42488723 1.64789474 6.53610952 3.59797719 9.70703125 5.68359375 C38.57189136 22.25507221 85.20862627 18.8878211 115.93359375 10.9453125 C119.86281344 9.73401165 123.75311541 8.44608681 127.625 7.0625 C128.65765991 6.70128052 128.65765991 6.70128052 129.71118164 6.33276367 C133.64128126 4.8533875 135.73204704 3.52369873 138 0 C138.66 0 139.32 0 140 0 C139.78600145 3.74497454 139.07843077 4.92156923 136.375 7.625 C114.5234447 25.6132969 71.4999567 22.78000904 45.09179688 20.48388672 C30.30653892 18.87868759 14.51271284 15.34180856 2 7 C0.14241486 4.33476915 0 3.29052817 0 0 Z " fill="#4F4E4F" transform="translate(456,647)" data-index="6" style="visibility: visible;"></path>
<path d="M0 0 C1.13874184 3.47807412 0.90158296 6.25158956 0.44140625 9.859375 C0.30283203 10.97441406 0.16425781 12.08945313 0.02148438 13.23828125 C-0.12998047 14.39714844 -0.28144531 15.55601562 -0.4375 16.75 C-0.58509766 17.92433594 -0.73269531 19.09867188 -0.88476562 20.30859375 C-1.24996477 23.20662568 -1.62194968 26.1036212 -2 29 C-2.33 29 -2.66 29 -3 29 C-2.979375 27.9275 -2.95875 26.855 -2.9375 25.75 C-3.58546921 22.09048671 -3.58546921 22.09048671 -5.54296875 20.75 C-11.86299942 17.71448808 -18.88599605 16.52789285 -25.75648499 15.37762451 C-27.3632807 15.10717147 -28.96641585 14.81460756 -30.56663513 14.50762939 C-40.59905132 12.73036046 -50.49144365 12.65106517 -60.64453125 12.5859375 C-62.50926025 12.56718771 -64.37398111 12.54761159 -66.23869324 12.5272522 C-71.10302894 12.47632702 -75.96739204 12.43649155 -80.83184814 12.39910889 C-85.81309563 12.35881826 -90.79423311 12.30784137 -95.77539062 12.2578125 C-105.51684936 12.16152346 -115.25837079 12.07697104 -125 12 C-125.33 11.34 -125.66 10.68 -126 10 C-125.09307404 10.00888245 -124.18614807 10.01776489 -123.2517395 10.0269165 C-114.57736645 10.10807722 -105.90312632 10.16846845 -97.2284565 10.20724869 C-92.77192724 10.22785812 -88.31571935 10.25566736 -83.859375 10.30175781 C-40.85666059 11.36488081 -40.85666059 11.36488081 0 0 Z " fill="#FBE4E4" transform="translate(623,236)" data-index="7" style="visibility: visible;"></path>
<path d="M0 0 C6.87495323 0.22177268 12.83037939 1.71429313 19.3125 3.875 C20.08899902 4.13168457 20.86549805 4.38836914 21.66552734 4.65283203 C25.75410633 6.05808785 29.37640513 7.58427008 33 10 C32.67 11.65 32.34 13.3 32 15 C31.01 15.33 30.02 15.66 29 16 C28.29848848 17.3153341 27.63474075 18.65117592 27 20 C26.505 20.433125 26.01 20.86625 25.5 21.3125 C23.23647745 23.85896287 22.7985305 26.74445256 22 30 C20.5393715 27.35261084 20 26.10551666 20 23 C18.453125 23.12375 18.453125 23.12375 16.875 23.25 C12.12985106 22.94386136 10.54217101 22.16534431 7 19 C2.29733109 12.87993789 0.24810939 7.69139095 0 0 Z " fill="#3C9C27" transform="translate(397,172)" data-index="8" style="visibility: visible;"></path>
<path d="M0 0 C1.41910652 0.25774371 2.83524899 0.53183165 4.25 0.8125 C5.43335938 1.03873047 5.43335938 1.03873047 6.640625 1.26953125 C9 2 9 2 13 5 C9.37 4.67 5.74 4.34 2 4 C1.67 4.99 1.34 5.98 1 7 C-0.77734375 8.16796875 -0.77734375 8.16796875 -2.9375 9.1875 C-3.64777344 9.53167969 -4.35804688 9.87585938 -5.08984375 10.23046875 C-7 11 -7 11 -9 11 C-8.98839844 12.28777344 -8.97679687 13.57554687 -8.96484375 14.90234375 C-8.9554673 16.58072772 -8.94636695 18.25911326 -8.9375 19.9375 C-8.92912109 20.78763672 -8.92074219 21.63777344 -8.91210938 22.51367188 C-8.90888672 23.32255859 -8.90566406 24.13144531 -8.90234375 24.96484375 C-8.89710693 25.7137085 -8.89187012 26.46257324 -8.88647461 27.23413086 C-9 29 -9 29 -10 30 C-15.07187898 30.30431274 -19.21011564 29.69054742 -24 28 C-24.66 27.34 -25.32 26.68 -26 26 C-31.64673891 26.19550827 -36.01146518 28.32418278 -40.359375 31.7578125 C-42.7242282 33.54834421 -45.317769 34.7570149 -48 36 C-48 37.32 -48 38.64 -48 40 C-49.5 41.75 -49.5 41.75 -51 43 C-51 41.35 -51 39.7 -51 38 C-51.66 38 -52.32 38 -53 38 C-53.33 38.99 -53.66 39.98 -54 41 C-54.50904657 39.12743583 -55.00682455 37.25180659 -55.5 35.375 C-55.7784375 34.33085937 -56.056875 33.28671875 -56.34375 32.2109375 C-56.99118596 29.04312582 -57.1161292 26.22258533 -57 23 C-56.34 23 -55.68 23 -55 23 C-54.67 21.35 -54.34 19.7 -54 18 C-60.57839982 18.49414948 -60.57839982 18.49414948 -66 22 C-66.66 22 -67.32 22 -68 22 C-68 22.66 -68 23.32 -68 24 C-68.66 24 -69.32 24 -70 24 C-67.99194183 19.51598661 -65.23778986 16.508247 -61 14 C-58.12963767 13.50908288 -55.93442362 13.6911133 -53 14 C-51.8289345 21.14349955 -52.40704748 26.95678017 -54 34 C-43.90659121 30.89714377 -37.43972192 27.13873283 -32 18 C-30.35 18.33 -28.7 18.66 -27 19 C-27 19.99 -27 20.98 -27 22 C-23.77484237 23.73662334 -20.48670834 24.8905928 -17 26 C-17 26.66 -17 27.32 -17 28 C-15.02 28 -13.04 28 -11 28 C-11.00169189 27.16807129 -11.00169189 27.16807129 -11.00341797 26.31933594 C-10.99127666 23.79500011 -10.93360475 21.273667 -10.875 18.75 C-10.87886719 17.44095703 -10.87886719 17.44095703 -10.8828125 16.10546875 C-10.80640004 13.60296067 -10.66640129 11.41521345 -10 9 C-7.09375 6.5625 -7.09375 6.5625 -4 5 C-1.67722584 2.3908613 -1.67722584 2.3908613 0 0 Z " fill="#C12F1F" transform="translate(470,181)" data-index="9" style="visibility: visible;"></path>
<path d="M0 0 C0.33 0.99 0.66 1.98 1 3 C-8.1038427 13.43008152 -28.3538072 16.54245229 -41.50390625 17.59375 C-48.76157136 18.05017337 -56.00716497 18.18614917 -63.27636719 18.18530273 C-65.36674334 18.18749136 -67.4565911 18.20575372 -69.546875 18.22460938 C-81.95155197 18.27700381 -94.23139496 17.30127993 -106.25 14.0625 C-107.56768151 13.71474211 -108.88539017 13.36708705 -110.203125 13.01953125 C-111.45609375 12.68308594 -112.7090625 12.34664063 -114 12 C-116.33216112 11.41199768 -118.66538288 10.82817396 -121 10.25 C-122.66666667 9.83333333 -124.33333333 9.41666667 -126 9 C-126.433125 10.4540625 -126.433125 10.4540625 -126.875 11.9375 C-128 15 -128 15 -130 16 C-129.54705135 14.24859857 -129.08741252 12.49892656 -128.625 10.75 C-128.36976563 9.77546875 -128.11453125 8.8009375 -127.8515625 7.796875 C-127.10401491 5.34162697 -126.22876183 3.24382595 -125 1 C-125 2.65 -125 4.3 -125 6 C-123.41717291 6.43932799 -121.83369546 6.87631269 -120.25 7.3125 C-119.36828125 7.55613281 -118.4865625 7.79976563 -117.578125 8.05078125 C-116.39734375 8.36402344 -115.2165625 8.67726563 -114 9 C-113.12811035 9.23614014 -112.2562207 9.47228027 -111.35791016 9.71557617 C-79.17225506 18.15741371 -34.40274291 20.65373179 -4 4 C-1.72280252 1.95366794 -1.72280252 1.95366794 0 0 Z " fill="#F09BA7" transform="translate(619,261)" data-index="10" style="visibility: visible;"></path>
<path d="M0 0 C3.42488723 1.64789474 6.53610952 3.59797719 9.70703125 5.68359375 C15.32072142 8.90644483 20.96986869 10.69713279 27.25 12.0625 C28.02069824 12.23313965 28.79139648 12.4037793 29.58544922 12.57958984 C36.16709342 13.96596723 42.75409468 14.76533955 49.45410156 15.31665039 C53.12347674 15.62962651 56.58230127 16.07685453 60.1484375 17.015625 C63.66979549 17.91560696 66.88400599 18.37845495 70.5 18.625 C72.06234375 18.73714844 72.06234375 18.73714844 73.65625 18.8515625 C74.4296875 18.90054688 75.203125 18.94953125 76 19 C76 19.33 76 19.66 76 20 C71.76823299 20.02499226 67.53650677 20.04299623 63.3046875 20.05493164 C61.86945852 20.05991507 60.43423449 20.06670425 58.99902344 20.07543945 C39.32305061 20.1920683 18.84606949 18.23071299 2 7 C0.14241486 4.33476915 0 3.29052817 0 0 Z " fill="#454747" transform="translate(456,647)" data-index="11" style="visibility: visible;"></path>
<path d="M0 0 C5.41909416 0.48384769 10.61152774 1.321582 15.9375 2.4375 C27.47090897 4.77914889 39.27841678 5.25264173 51 6 C51 6.33 51 6.66 51 7 C44.565 7.495 44.565 7.495 38 8 C40.08141554 10.08141554 44.18606953 9.73088761 47.0625 10.0625 C47.82111328 10.15337891 48.57972656 10.24425781 49.36132812 10.33789062 C51.2404301 10.5624374 53.12016095 10.78170978 55 11 C55 11.33 55 11.66 55 12 C50.71 12 46.42 12 42 12 C42 13.32 42 14.64 42 16 C41.34 16 40.68 16 40 16 C40 14.35 40 12.7 40 11 C38.2675 11.0928125 38.2675 11.0928125 36.5 11.1875 C29.21704702 11.2225704 22.10065645 9.4636936 15 8 C15 9.98 15 11.96 15 14 C14.34 14 13.68 14 13 14 C13 11.69 13 9.38 13 7 C12.40832031 6.95101562 11.81664062 6.90203125 11.20703125 6.8515625 C6.80895528 6.43543133 3.03071103 5.95034405 -1 4 C-0.67 2.68 -0.34 1.36 0 0 Z " fill="#FACEC9" transform="translate(438,234)" data-index="12" style="visibility: visible;"></path>
<path d="M0 0 C0.66 0 1.32 0 2 0 C2.185625 0.61875 2.37125 1.2375 2.5625 1.875 C4.27916266 4.41267523 5.73940847 5.00184758 8.6875 5.68359375 C17.13083553 6.83884743 26.20599715 6.84166875 34 3 C34.66 2.01 35.32 1.02 36 0 C36.99 0.33 37.98 0.66 39 1 C39.25 3.3125 39.25 3.3125 39 6 C33.33688073 11.66311927 26.15598893 11.3655522 18.6875 11.375 C17.68009766 11.39949219 16.67269531 11.42398438 15.63476562 11.44921875 C8.97938304 11.47523327 4.63833571 10.61381049 -1 7 C-2.125 4.375 -2.125 4.375 -2 2 C-1.34 1.34 -0.68 0.68 0 0 Z " fill="#454746" transform="translate(507,628)" data-index="13" style="visibility: visible;"></path>
<path d="M0 0 C0.66 0 1.32 0 2 0 C1.78600145 3.74497454 1.07843077 4.92156923 -1.625 7.625 C-4.86586179 10.08252553 -8.17073125 11.59593479 -12 13 C-12.71800781 13.27972656 -13.43601562 13.55945313 -14.17578125 13.84765625 C-21.43060024 16.40049763 -28.37621293 16.29660267 -36 16 C-32.8444976 13.27274436 -30.32270269 12.44725545 -26.25 11.6875 C-20.78882274 10.51105592 -15.61316523 8.97460929 -10.375 7.0625 C-9.68825195 6.82168701 -9.00150391 6.58087402 -8.29394531 6.33276367 C-4.36074377 4.85609661 -2.26886859 3.52512133 0 0 Z " fill="#3A3B3C" transform="translate(594,647)" data-index="14" style="visibility: visible;"></path>
<path d="M0 0 C0.19658808 1.41543415 0.38187546 2.83244031 0.5625 4.25 C0.66691406 5.03890625 0.77132813 5.8278125 0.87890625 6.640625 C1.00171398 9.03339495 0.62840071 10.70818563 0 13 C-0.03888349 15.33300933 -0.0448635 17.66709801 0 20 C1.65 20.33 3.3 20.66 5 21 C4.835 21.598125 4.67 22.19625 4.5 22.8125 C3.8885876 25.11344336 3.8885876 25.11344336 4 28 C3.34 28.33 2.68 28.66 2 29 C2 27.35 2 25.7 2 24 C1.34 24 0.68 24 0 24 C-0.33 24.99 -0.66 25.98 -1 27 C-1.50904657 25.12743583 -2.00682455 23.25180659 -2.5 21.375 C-2.7784375 20.33085937 -3.056875 19.28671875 -3.34375 18.2109375 C-3.99118596 15.04312582 -4.1161292 12.22258533 -4 9 C-3.34 9 -2.68 9 -2 9 C-1.67 7.35 -1.34 5.7 -1 4 C-7.57839982 4.49414948 -7.57839982 4.49414948 -13 8 C-13.66 8 -14.32 8 -15 8 C-15 8.66 -15 9.32 -15 10 C-15.66 10 -16.32 10 -17 10 C-13.49567546 2.17480929 -8.40502801 -0.88473979 0 0 Z " fill="#B33F20" transform="translate(417,195)" data-index="15" style="visibility: visible;"></path>
<path d="M0 0 C1.2065625 0.0309375 1.2065625 0.0309375 2.4375 0.0625 C4.96708084 5.6034866 6.77596988 11.20590094 8.4375 17.0625 C7.7775 17.0625 7.1175 17.0625 6.4375 17.0625 C6.4375 15.7425 6.4375 14.4225 6.4375 13.0625 C5.4475 13.5575 5.4475 13.5575 4.4375 14.0625 C3.77977572 17.09184491 3.77977572 17.09184491 3.4375 20.0625 C1.03342845 17.06448136 -0.68734186 14.04225037 -2.3125 10.5625 C-2.76109375 9.6240625 -3.2096875 8.685625 -3.671875 7.71875 C-4.61468343 4.90686521 -4.6688381 3.76688201 -3.5625 1.0625 C-2.5625 0.0625 -2.5625 0.0625 0 0 Z " fill="#6EB150" transform="translate(427.5625,158.9375)" data-index="16" style="visibility: visible;"></path>
<path d="M0 0 C7.26 0.33 14.52 0.66 22 1 C22 1.33 22 1.66 22 2 C15.565 2.495 15.565 2.495 9 3 C11.08141554 5.08141554 15.18606953 4.73088761 18.0625 5.0625 C18.82111328 5.15337891 19.57972656 5.24425781 20.36132812 5.33789062 C22.2404301 5.5624374 24.12016095 5.78170978 26 6 C26 6.33 26 6.66 26 7 C21.71 7 17.42 7 13 7 C13 8.32 13 9.64 13 11 C12.34 11 11.68 11 11 11 C11 9.35 11 7.7 11 6 C9.783125 6.04125 8.56625 6.0825 7.3125 6.125 C1.11216291 6.14480938 -4.906352 5.05485097 -11 4 C-11 3.67 -11 3.34 -11 3 C-6.71 3 -2.42 3 2 3 C2.33 2.34 2.66 1.68 3 1 C2.01 0.67 1.02 0.34 0 0 Z " fill="#F8CBCC" transform="translate(467,239)" data-index="17" style="visibility: visible;"></path>
<path d="M0 0 C3.85462099 3.85462099 4.10865387 9.59972179 4.23046875 14.83984375 C4.22653828 16.53911832 4.21208715 18.23839877 4.1875 19.9375 C4.18685547 20.77990234 4.18621094 21.62230469 4.18554688 22.49023438 C4.14695922 28.05971951 3.69694028 33.47465743 3 39 C-4.7178544 39.12440253 -12.31146408 38.67485582 -20 38 C-20 37.67 -20 37.34 -20 37 C-13.07 37 -6.14 37 1 37 C1.0271102 32.52079219 1.04689286 28.04175053 1.0625 23.5625 C1.07087891 22.30244141 1.07925781 21.04238281 1.08789062 19.74414062 C1.10531376 13.0710797 0.91378066 6.61231832 0 0 Z " fill="#CB3D40" transform="translate(496,202)" data-index="18" style="visibility: visible;"></path>
<path d="M0 0 C2.64 0 5.28 0 8 0 C8.61875 1.4540625 8.61875 1.4540625 9.25 2.9375 C9.52199219 3.56785156 9.79398437 4.19820312 10.07421875 4.84765625 C10.73032219 6.37302753 11.37791477 7.90207242 12.01953125 9.43359375 C12.36371094 10.23925781 12.70789063 11.04492188 13.0625 11.875 C13.38347656 12.63554687 13.70445312 13.39609375 14.03515625 14.1796875 C14.86741594 16.17572342 14.86741594 16.17572342 17 17 C17.103125 16.278125 17.20625 15.55625 17.3125 14.8125 C18.07964643 11.6741737 19.06233364 9.58355515 21 7 C23.10546875 6.359375 23.10546875 6.359375 25 6 C24.68546875 6.46148437 24.3709375 6.92296875 24.046875 7.3984375 C20.57865253 12.68434283 18.17395942 18.07322794 16 24 C14.27746469 21.41619703 13.31506679 19.42490651 12.2734375 16.55078125 C11.809375 15.27944336 11.809375 15.27944336 11.3359375 13.98242188 C11.01882813 13.10134766 10.70171875 12.22027344 10.375 11.3125 C10.05015625 10.41982422 9.7253125 9.52714844 9.390625 8.60742188 C8.59018545 6.40621312 7.79345802 4.20373293 7 2 C3.37114676 1.84850702 3.37114676 1.84850702 0 3 C0 2.01 0 1.02 0 0 Z " fill="#D7EBC3" transform="translate(423,158)" data-index="19" style="visibility: visible;"></path>
<path d="M0 0 C0.94875 0.165 1.8975 0.33 2.875 0.5 C8.52738387 1.30748341 14.54446068 1.81851311 20 0 C20 1.32 20 2.64 20 4 C16.7564127 5.92325647 14.31326483 6.27080868 10.5625 6.25 C9.63566406 6.25515625 8.70882812 6.2603125 7.75390625 6.265625 C4.83945824 5.98451512 2.65109503 5.21247903 0 4 C0 2.68 0 1.36 0 0 Z " fill="#535455" transform="translate(516,621)" data-index="20" style="visibility: visible;"></path>
<path d="M0 0 C1.41910652 0.25774371 2.83524899 0.53183165 4.25 0.8125 C5.03890625 0.96332031 5.8278125 1.11414063 6.640625 1.26953125 C9 2 9 2 13 5 C7.555 4.505 7.555 4.505 2 4 C1.67 4.99 1.34 5.98 1 7 C-0.77734375 8.16796875 -0.77734375 8.16796875 -2.9375 9.1875 C-3.64777344 9.53167969 -4.35804688 9.87585938 -5.08984375 10.23046875 C-7 11 -7 11 -9 11 C-9.33 12.32 -9.66 13.64 -10 15 C-10.375 12.25 -10.375 12.25 -10 9 C-7.25 6.9375 -7.25 6.9375 -4 5 C-1.67722584 2.3908613 -1.67722584 2.3908613 0 0 Z " fill="#B8361E" transform="translate(470,181)" data-index="21" style="visibility: visible;"></path>
<path d="M0 0 C0.66 0 1.32 0 2 0 C2.165 0.598125 2.33 1.19625 2.5 1.8125 C4.81276204 5.18527798 8.19891337 5.8331548 12 7 C11.67 7.99 11.34 8.98 11 10 C1.40546697 9.40546697 1.40546697 9.40546697 -2 6 C-1.125 1.125 -1.125 1.125 0 0 Z " fill="#373634" transform="translate(507,628)" data-index="22" style="visibility: visible;"></path>
<path d="M0 0 C5.22468239 -0.2176951 9.66539836 0.03741616 14.73828125 1.48828125 C19.4082581 2.54487359 24.23145221 2.69799197 29 3 C29 3.33 29 3.66 29 4 C25.31251691 4.02925502 21.62506408 4.04688418 17.9375 4.0625 C16.89916016 4.07087891 15.86082031 4.07925781 14.79101562 4.08789062 C9.41276931 4.10496442 4.29666789 3.95415152 -1 3 C-0.67 2.01 -0.34 1.02 0 0 Z " fill="#2C2E2C" transform="translate(503,663)" data-index="23" style="visibility: visible;"></path>
<path d="M0 0 C0.66 0 1.32 0 2 0 C1.78087133 3.83475164 1.05971606 4.94164113 -1.75 7.6875 C-4.52346608 9.66092779 -6.787972 10.96081447 -10 12 C-10 11.34 -10 10.68 -10 10 C-11.98 10 -13.96 10 -16 10 C-12.59100846 7.72733897 -9.21818264 6.55643969 -5.375 5.1953125 C-2.69223864 3.84510695 -1.70106175 2.41996284 0 0 Z " fill="#4F4E4F" transform="translate(594,647)" data-index="24" style="visibility: visible;"></path>
<path d="M0 0 C0.33 0 0.66 0 1 0 C1.02685412 2.31243792 1.04632841 4.6249627 1.0625 6.9375 C1.07410156 8.22527344 1.08570313 9.51304687 1.09765625 10.83984375 C1 14 1 14 0 15 C-2.33160941 15.08967728 -4.66796188 15.0777346 -7 15 C-7.86625 14.979375 -8.7325 14.95875 -9.625 14.9375 C-13.36184252 13.46243059 -14.95180576 10.33812083 -17 7 C-16.46375 7.28875 -15.9275 7.5775 -15.375 7.875 C-12.64719516 9.16711808 -9.87387282 10.08558592 -7 11 C-7 11.66 -7 12.32 -7 13 C-5.02 13 -3.04 13 -1 13 C-0.67 8.71 -0.34 4.42 0 0 Z " fill="#896D25" transform="translate(460,196)" data-index="25" style="visibility: visible;"></path>
<path d="M0 0 C0.33 0 0.66 0 1 0 C1.03738281 0.89203125 1.07476562 1.7840625 1.11328125 2.703125 C1.17902344 3.87359375 1.24476563 5.0440625 1.3125 6.25 C1.39951172 7.99023438 1.39951172 7.99023438 1.48828125 9.765625 C2.01711803 13.10819638 2.73772333 14.5497057 5 17 C4.154375 16.814375 3.30875 16.62875 2.4375 16.4375 C-1.2773282 15.96470368 -4.32974273 16.33935369 -8 17 C-8.66 15.35 -9.32 13.7 -10 12 C-7.03 12 -4.06 12 -1 12 C-0.67 8.04 -0.34 4.08 0 0 Z " fill="#BE3720" transform="translate(461,198)" data-index="26" style="visibility: visible;"></path>
<path d="M0 0 C0.33 0 0.66 0 1 0 C1 2.64 1 5.28 1 8 C2.31571603 7.7452486 3.62760376 7.47065859 4.9375 7.1875 C5.66839844 7.03667969 6.39929688 6.88585937 7.15234375 6.73046875 C7.76207031 6.48941406 8.37179687 6.24835938 9 6 C9.33 5.01 9.66 4.02 10 3 C11.875 1.75 11.875 1.75 14 1 C14.99 1.33 15.98 1.66 17 2 C11.53445567 7.13329239 6.81546979 11 -1 11 C-1.14285714 3.57142857 -1.14285714 3.57142857 0 0 Z " fill="#7B932A" transform="translate(417,204)" data-index="27" style="visibility: visible;"></path>
<path d="M0 0 C1.32 0 2.64 0 4 0 C5.3271261 3.9813783 5.06915913 7.85045227 5 12 C4.67 11.34 4.34 10.68 4 10 C3.34 9.773125 2.68 9.54625 2 9.3125 C0 8 0 8 -0.8125 4.4375 C-0.874375 3.303125 -0.93625 2.16875 -1 1 C-0.67 0.67 -0.34 0.34 0 0 Z " fill="#55B131" transform="translate(426,160)" data-index="28" style="visibility: visible;"></path>
<path d="M0 0 C0.33 0 0.66 0 1 0 C1 2.64 1 5.28 1 8 C1.54269531 7.6390625 2.08539063 7.278125 2.64453125 6.90625 C3.35996094 6.4421875 4.07539063 5.978125 4.8125 5.5 C5.87404297 4.80390625 5.87404297 4.80390625 6.95703125 4.09375 C9 3 9 3 12 3 C12.05383848 5.45862401 12.09359038 7.9160755 12.125 10.375 C12.14175781 11.07367188 12.15851563 11.77234375 12.17578125 12.4921875 C12.19344267 14.32897486 12.10303261 16.16601963 12 18 C11.34 18.66 10.68 19.32 10 20 C10.33 15.38 10.66 10.76 11 6 C9.68 6 8.36 6 7 6 C7 6.66 7 7.32 7 8 C4.69 8.33 2.38 8.66 0 9 C0 6.03 0 3.06 0 0 Z " fill="#6CA958" transform="translate(460,161)" data-index="29" style="visibility: visible;"></path>
<path d="M0 0 C3.63 0.66 7.26 1.32 11 2 C11.33 3.32 11.66 4.64 12 6 C10.56208484 5.85831863 9.1246763 5.71148957 7.6875 5.5625 C6.88699219 5.48128906 6.08648437 5.40007812 5.26171875 5.31640625 C3 5 3 5 0 4 C0 2.68 0 1.36 0 0 Z " fill="#FBDDD7" transform="translate(439,235)" data-index="30" style="visibility: visible;"></path>
<path d="M0 0 C0 0.66 0 1.32 0 2 C-1.85625 2.1546875 -1.85625 2.1546875 -3.75 2.3125 C-7.327552 2.7423119 -9.26182593 3.57776909 -12 6 C-12.66 6 -13.32 6 -14 6 C-14 6.66 -14 7.32 -14 8 C-14.66 8 -15.32 8 -16 8 C-12.94502539 -0.24843145 -7.7823923 -1.74432931 0 0 Z " fill="#D0363C" transform="translate(416,197)" data-index="31" style="visibility: visible;"></path>
<path d="M0 0 C1.32 0.33 2.64 0.66 4 1 C1.1359273 5.07579576 -1.32352264 7.2229386 -6 9 C-11.00583467 9.60070016 -11.75246826 9.1856488 -16 6 C-12.04 6.33 -8.08 6.66 -4 7 C-4 6.34 -4 5.68 -4 5 C-3.01 5 -2.02 5 -1 5 C-0.67 3.35 -0.34 1.7 0 0 Z " fill="#D34048" transform="translate(474,302)" data-index="32" style="visibility: visible;"></path>
<path d="M0 0 C1.77074917 -0.02705729 3.54161711 -0.04642195 5.3125 -0.0625 C6.29863281 -0.07410156 7.28476562 -0.08570313 8.30078125 -0.09765625 C11 0 11 0 14 1 C13.67 1.99 13.34 2.98 13 4 C8.62065881 3.48041715 4.31196609 2.94324258 0 2 C0 1.34 0 0.68 0 0 Z " fill="#FEF9F8" transform="translate(456,239)" data-index="33" style="visibility: visible;"></path>
<path d="M0 0 C1.65 0.33 3.3 0.66 5 1 C5 1.99 5 2.98 5 4 C4.01 4 3.02 4 2 4 C1.67 4.99 1.34 5.98 1 7 C-0.98 7.33 -2.96 7.66 -5 8 C-3.35 5.36 -1.7 2.72 0 0 Z " fill="#A45424" transform="translate(438,199)" data-index="34" style="visibility: visible;"></path>

<path d="M0 0 C2.86867231 1.38264837 5.56024032 2.92148553 8.25 4.625 C8.95640625 5.07101562 9.6628125 5.51703125 10.390625 5.9765625 C10.92171875 6.31429687 11.4528125 6.65203125 12 7 C8.25297715 8.03366148 5.77200794 8.25733598 2 7 C0.35179805 4.39757586 0 3.13751221 0 0 Z " fill="#454947" transform="translate(456,647)" data-index="36" style="visibility: hidden;"></path>

<path d="M0 0 C1.91635217 -0.05423638 3.83314925 -0.09289963 5.75 -0.125 C7.35101563 -0.15980469 7.35101563 -0.15980469 8.984375 -0.1953125 C12 0 12 0 16 2 C11.71 2 7.42 2 3 2 C3 3.32 3 4.64 3 6 C2.34 6 1.68 6 1 6 C0.67 4.02 0.34 2.04 0 0 Z " fill="#FBC6BF" transform="translate(477,244)" data-index="38" style="visibility: hidden;"></path>

<path d="M0 0 C5.94 1.485 5.94 1.485 12 3 C12 3.66 12 4.32 12 5 C8.37 5 4.74 5 1 5 C0.67 3.35 0.34 1.7 0 0 Z " fill="#2F3332" transform="translate(516,621)" data-index="40" style="visibility: hidden;"></path>

<path d="M0 0 C0.66 0.33 1.32 0.66 2 1 C-3.90702873 5.440745 -8.67889378 7.83791965 -16 9 C-13.369307 6.369307 -10.2885168 4.96006012 -7 3.3125 C-6.03707031 2.81266602 -6.03707031 2.81266602 -5.0546875 2.30273438 C-3.40073736 1.47056908 -1.70233557 0.72808225 0 0 Z " fill="#EBB2BA" transform="translate(553,528)" data-index="42" style="visibility: hidden;"></path>

<path d="M0 0 C1.2684375 0.495 1.2684375 0.495 2.5625 1 C6.20989216 2.06105954 9.22274664 2.15109013 13 2 C13 3.32 13 4.64 13 6 C11.35 6 9.7 6 8 6 C8 5.34 8 4.68 8 4 C6.8553125 4.12375 6.8553125 4.12375 5.6875 4.25 C3 4 3 4 1.1875 2 C0.5996875 1.01 0.5996875 1.01 0 0 Z " fill="#62A328" transform="translate(445,203)" data-index="44" style="visibility: hidden;"></path>

<path d="M0 0 C0.66 0 1.32 0 2 0 C2.66 2.97 3.32 5.94 4 9 C1.5625 8.3125 1.5625 8.3125 -1 7 C-1.9375 4.5 -1.9375 4.5 -2 2 C-1.34 1.34 -0.68 0.68 0 0 Z " fill="#454644" transform="translate(507,628)" data-index="46" style="visibility: hidden;"></path>

<path d="M0 0 C6.0546875 0.390625 6.0546875 0.390625 8 1 C8.66 2.32 9.32 3.64 10 5 C6.7 4.34 3.4 3.68 0 3 C0 2.01 0 1.02 0 0 Z " fill="#2E2F2F" transform="translate(472,657)" data-index="48" style="visibility: hidden;"></path>

<path d="M0 0 C3 3.625 3 3.625 3 7 C-0.72433382 5.7874262 -4.37802806 4.49140021 -8 3 C-4.94736336 2.01879536 -3.05263664 2.01879536 0 3 C0 2.01 0 1.02 0 0 Z " fill="#C2E3A8" transform="translate(428,175)" data-index="50" style="visibility: hidden;"></path>

<path d="M0 0 C9.59453303 1.74259681 9.59453303 1.74259681 13 5 C12.34 4.855625 11.68 4.71125 11 4.5625 C7.34400449 3.87700084 3.69377805 3.43824485 0 3 C0 2.01 0 1.02 0 0 Z " fill="#C14141" transform="translate(470,181)" data-index="52" style="visibility: hidden;"></path>

<path d="M0 0 C2.97 0 5.94 0 9 0 C8.67 1.32 8.34 2.64 8 4 C5.03 3.67 2.06 3.34 -1 3 C-0.67 2.01 -0.34 1.02 0 0 Z " fill="#3A383A" transform="translate(503,663)" data-index="54" style="visibility: hidden;"></path>

<path d="M0 0 C0.66 0 1.32 0 2 0 C2 2.64 2 5.28 2 8 C1.01 8 0.02 8 -1 8 C-1.04241723 5.66705225 -1.04092937 3.33297433 -1 1 C-0.67 0.67 -0.34 0.34 0 0 Z " fill="#F66E63" transform="translate(424,234)" data-index="56" style="visibility: hidden;"></path>

<path d="M0 0 C0.66 0 1.32 0 2 0 C0.66666667 4 -0.66666667 8 -2 12 C-3.0625 10.1875 -3.0625 10.1875 -4 8 C-3.67 7.01 -3.34 6.02 -3 5 C-2.34 5 -1.68 5 -1 5 C-0.67 3.35 -0.34 1.7 0 0 Z " fill="#FCCEC7" transform="translate(396,206)" data-index="58" style="visibility: hidden;"></path>

<path d="M0 0 C0.99 0 1.98 0 3 0 C3.33 2.64 3.66 5.28 4 8 C3.34 8 2.68 8 2 8 C1.34 5.36 0.68 2.72 0 0 Z " fill="#F77973" transform="translate(408,243)" data-index="60" style="visibility: hidden;"></path>

<path d="M0 0 C-5.75 5 -5.75 5 -8 5 C-7.75 3.125 -7.75 3.125 -7 1 C-4.09342573 -1.03460199 -3.47133392 -1.15711131 0 0 Z " fill="#DEECCA" transform="translate(456,159)" data-index="62" style="visibility: hidden;"></path>

<path d="M0 0 C0.66 0 1.32 0 2 0 C2.33 2.64 2.66 5.28 3 8 C2.01 7.67 1.02 7.34 0 7 C0 4.69 0 2.38 0 0 Z " fill="#F86D63" transform="translate(461,247)" data-index="64" style="visibility: hidden;"></path>

<path d="M0 0 C0.99 0 1.98 0 3 0 C3 2.31 3 4.62 3 7 C2.34 7 1.68 7 1 7 C0.67 4.69 0.34 2.38 0 0 Z " fill="#F6746C" transform="translate(484,227)" data-index="66" style="visibility: hidden;"></path>

<path d="M0 0 C0.99 0.33 1.98 0.66 3 1 C4.1875 4.0625 4.1875 4.0625 5 7 C2 6 2 6 0 3 C0 2.01 0 1.02 0 0 Z " fill="#FB9486" transform="translate(487,213)" data-index="68" style="visibility: hidden;"></path>

<path d="M0 0 C5.75 0.75 5.75 0.75 8 3 C5.36 3 2.72 3 0 3 C0 2.01 0 1.02 0 0 Z " fill="#FFFAF3" transform="translate(439,235)" data-index="70" style="visibility: hidden;"></path>
</svg>